M48
; DRILL file {KiCad 6.0.2+dfsg-1} date ons 15 jun 2022 14:14:39
; FORMAT={-:-/ absolute / inch / decimal}
; #@! TF.CreationDate,2022-06-15T14:14:39+02:00
; #@! TF.GenerationSoftware,Kicad,Pcbnew,6.0.2+dfsg-1
; #@! TF.FileFunction,MixedPlating,1,6
FMAT,2
INCH
; #@! TA.AperFunction,Plated,PTH,ViaDrill
T1C0.0157
; #@! TA.AperFunction,Plated,PTH,ComponentDrill
T2C0.0315
; #@! TA.AperFunction,Plated,PTH,ComponentDrill
T3C0.0390
; #@! TA.AperFunction,Plated,PTH,ComponentDrill
T4C0.0394
; #@! TA.AperFunction,Plated,PTH,ComponentDrill
T5C0.0469
; #@! TA.AperFunction,Plated,PTH,ComponentDrill
T6C0.0472
; #@! TA.AperFunction,Plated,PTH,ComponentDrill
T7C0.0512
%
G90
G05
T1
X5.3051Y-4.2815
X5.3543Y-4.6161
X5.5906Y-3.563
X5.7087Y-4.1339
X5.7451Y-3.4154
X5.7874Y-3.5335
X5.8169Y-4.1339
X5.8366Y-4.252
X5.876Y-3.6024
X5.935Y-4.0748
X6.0551Y-4.3465
X6.0925Y-4.6161
X6.1693Y-4.6516
X6.1949Y-4.8996
X6.2224Y-4.4409
X6.25Y-4.3602
X6.3091Y-3.6909
X6.5256Y-3.3465
X6.5256Y-3.5531
X6.5256Y-3.5531
X6.5354Y-3.6614
X6.5394Y-3.4941
X6.6142Y-4.8622
X6.6791Y-3.378
X6.6791Y-3.4646
X6.6949Y-4.6614
X6.7717Y-3.5728
X6.8406Y-3.5039
X7.0571Y-4.065
X7.0768Y-3.3268
X7.0866Y-3.563
X7.0965Y-3.7795
X7.0965Y-3.8583
X7.1161Y-3.5138
X7.1161Y-3.9665
X7.2441Y-3.5138
T2
X6.3898Y-4.3399
X6.3898Y-4.4383
X6.7126Y-4.3438
X6.7126Y-4.4422
T3
X6.0817Y-3.4375
X6.2589Y-3.4375
T4
X5.4411Y-3.6801
X5.4411Y-3.7801
X5.5411Y-3.6801
X5.5411Y-3.7801
X5.6411Y-3.6801
X5.6411Y-3.7801
X5.7411Y-3.6801
X5.7411Y-3.7801
X5.8268Y-4.6978
X5.8268Y-4.7978
X6.3727Y-4.6572
X6.4727Y-4.6572
X6.5727Y-4.6572
X7.1732Y-3.7244
X7.1732Y-3.8244
X7.1732Y-3.9244
X7.1732Y-4.0244
T5
X6.1614Y-3.9764
X6.2614Y-3.9764
X6.3614Y-3.9764
X6.4614Y-3.9764
T6
X4.6451Y-3.3753
X4.6451Y-3.5131
X4.6451Y-3.6509
X4.6451Y-3.7887
X4.6451Y-3.9265
X4.6451Y-4.0643
X4.6451Y-4.2021
X4.6451Y-4.3399
X4.6451Y-4.4777
X4.6451Y-4.6155
X4.6451Y-4.7532
X4.6451Y-4.891
X7.0338Y-4.3426
X7.0338Y-4.4926
X7.0338Y-4.6426
X7.0338Y-4.7926
T7
X6.0325Y-3.5355
X6.3085Y-3.5355
T0
M30
