%TF.GenerationSoftware,KiCad,Pcbnew,6.0.2+dfsg-1*%
%TF.CreationDate,2022-06-15T14:14:27+02:00*%
%TF.ProjectId,accra_A,61636372-615f-4412-9e6b-696361645f70,rev?*%
%TF.SameCoordinates,Original*%
%TF.FileFunction,Legend,Bot*%
%TF.FilePolarity,Positive*%
%FSLAX46Y46*%
G04 Gerber Fmt 4.6, Leading zero omitted, Abs format (unit mm)*
G04 Created by KiCad (PCBNEW 6.0.2+dfsg-1) date 2022-06-15 14:14:27*
%MOMM*%
%LPD*%
G01*
G04 APERTURE LIST*
%ADD10C,0.150000*%
%ADD11C,0.120000*%
G04 APERTURE END LIST*
D10*
%TO.C,J2*%
X180233333Y-99652380D02*
X180233333Y-100366666D01*
X180280952Y-100509523D01*
X180376190Y-100604761D01*
X180519047Y-100652380D01*
X180614285Y-100652380D01*
X179804761Y-99747619D02*
X179757142Y-99700000D01*
X179661904Y-99652380D01*
X179423809Y-99652380D01*
X179328571Y-99700000D01*
X179280952Y-99747619D01*
X179233333Y-99842857D01*
X179233333Y-99938095D01*
X179280952Y-100080952D01*
X179852380Y-100652380D01*
X179233333Y-100652380D01*
%TO.C,C7*%
X179666666Y-85907142D02*
X179714285Y-85954761D01*
X179857142Y-86002380D01*
X179952380Y-86002380D01*
X180095238Y-85954761D01*
X180190476Y-85859523D01*
X180238095Y-85764285D01*
X180285714Y-85573809D01*
X180285714Y-85430952D01*
X180238095Y-85240476D01*
X180190476Y-85145238D01*
X180095238Y-85050000D01*
X179952380Y-85002380D01*
X179857142Y-85002380D01*
X179714285Y-85050000D01*
X179666666Y-85097619D01*
X179333333Y-85002380D02*
X178666666Y-85002380D01*
X179095238Y-86002380D01*
%TO.C,C6*%
X181157142Y-90433333D02*
X181204761Y-90385714D01*
X181252380Y-90242857D01*
X181252380Y-90147619D01*
X181204761Y-90004761D01*
X181109523Y-89909523D01*
X181014285Y-89861904D01*
X180823809Y-89814285D01*
X180680952Y-89814285D01*
X180490476Y-89861904D01*
X180395238Y-89909523D01*
X180300000Y-90004761D01*
X180252380Y-90147619D01*
X180252380Y-90242857D01*
X180300000Y-90385714D01*
X180347619Y-90433333D01*
X180252380Y-91290476D02*
X180252380Y-91100000D01*
X180300000Y-91004761D01*
X180347619Y-90957142D01*
X180490476Y-90861904D01*
X180680952Y-90814285D01*
X181061904Y-90814285D01*
X181157142Y-90861904D01*
X181204761Y-90909523D01*
X181252380Y-91004761D01*
X181252380Y-91195238D01*
X181204761Y-91290476D01*
X181157142Y-91338095D01*
X181061904Y-91385714D01*
X180823809Y-91385714D01*
X180728571Y-91338095D01*
X180680952Y-91290476D01*
X180633333Y-91195238D01*
X180633333Y-91004761D01*
X180680952Y-90909523D01*
X180728571Y-90861904D01*
X180823809Y-90814285D01*
D11*
%TO.C,J2*%
X180870000Y-95870000D02*
X180870000Y-103550000D01*
X183530000Y-94600000D02*
X183530000Y-93270000D01*
X183530000Y-103550000D02*
X180870000Y-103550000D01*
X183530000Y-95870000D02*
X180870000Y-95870000D01*
X183530000Y-93270000D02*
X182200000Y-93270000D01*
X183530000Y-95870000D02*
X183530000Y-103550000D01*
%TO.C,C7*%
X182561252Y-86185000D02*
X182038748Y-86185000D01*
X182561252Y-84715000D02*
X182038748Y-84715000D01*
%TO.C,C6*%
X183635000Y-90288748D02*
X183635000Y-90811252D01*
X182165000Y-90288748D02*
X182165000Y-90811252D01*
%TD*%
M02*
