%TF.GenerationSoftware,KiCad,Pcbnew,6.0.2+dfsg-1*%
%TF.CreationDate,2022-06-15T14:14:26+02:00*%
%TF.ProjectId,accra_A,61636372-615f-4412-9e6b-696361645f70,rev?*%
%TF.SameCoordinates,Original*%
%TF.FileFunction,Copper,L6,Bot*%
%TF.FilePolarity,Positive*%
%FSLAX46Y46*%
G04 Gerber Fmt 4.6, Leading zero omitted, Abs format (unit mm)*
G04 Created by KiCad (PCBNEW 6.0.2+dfsg-1) date 2022-06-15 14:14:26*
%MOMM*%
%LPD*%
G01*
G04 APERTURE LIST*
G04 Aperture macros list*
%AMRoundRect*
0 Rectangle with rounded corners*
0 $1 Rounding radius*
0 $2 $3 $4 $5 $6 $7 $8 $9 X,Y pos of 4 corners*
0 Add a 4 corners polygon primitive as box body*
4,1,4,$2,$3,$4,$5,$6,$7,$8,$9,$2,$3,0*
0 Add four circle primitives for the rounded corners*
1,1,$1+$1,$2,$3*
1,1,$1+$1,$4,$5*
1,1,$1+$1,$6,$7*
1,1,$1+$1,$8,$9*
0 Add four rect primitives between the rounded corners*
20,1,$1+$1,$2,$3,$4,$5,0*
20,1,$1+$1,$4,$5,$6,$7,0*
20,1,$1+$1,$6,$7,$8,$9,0*
20,1,$1+$1,$8,$9,$2,$3,0*%
G04 Aperture macros list end*
%TA.AperFunction,ComponentPad*%
%ADD10RoundRect,0.250000X1.550000X-0.650000X1.550000X0.650000X-1.550000X0.650000X-1.550000X-0.650000X0*%
%TD*%
%TA.AperFunction,ComponentPad*%
%ADD11O,3.600000X1.800000*%
%TD*%
%TA.AperFunction,ComponentPad*%
%ADD12RoundRect,0.250000X-0.620000X-0.845000X0.620000X-0.845000X0.620000X0.845000X-0.620000X0.845000X0*%
%TD*%
%TA.AperFunction,ComponentPad*%
%ADD13O,1.740000X2.190000*%
%TD*%
%TA.AperFunction,ComponentPad*%
%ADD14R,1.700000X1.700000*%
%TD*%
%TA.AperFunction,ComponentPad*%
%ADD15O,1.700000X1.700000*%
%TD*%
%TA.AperFunction,ComponentPad*%
%ADD16RoundRect,0.250000X-1.550000X0.650000X-1.550000X-0.650000X1.550000X-0.650000X1.550000X0.650000X0*%
%TD*%
%TA.AperFunction,SMDPad,CuDef*%
%ADD17RoundRect,0.250000X0.250000X0.475000X-0.250000X0.475000X-0.250000X-0.475000X0.250000X-0.475000X0*%
%TD*%
%TA.AperFunction,SMDPad,CuDef*%
%ADD18RoundRect,0.250000X-0.475000X0.250000X-0.475000X-0.250000X0.475000X-0.250000X0.475000X0.250000X0*%
%TD*%
%TA.AperFunction,ComponentPad*%
%ADD19R,1.500000X2.300000*%
%TD*%
%TA.AperFunction,ComponentPad*%
%ADD20O,1.500000X2.300000*%
%TD*%
%TA.AperFunction,ComponentPad*%
%ADD21C,2.100000*%
%TD*%
%TA.AperFunction,ComponentPad*%
%ADD22C,1.750000*%
%TD*%
%TA.AperFunction,ComponentPad*%
%ADD23R,1.600000X1.600000*%
%TD*%
%TA.AperFunction,ComponentPad*%
%ADD24C,1.600000*%
%TD*%
%TA.AperFunction,ViaPad*%
%ADD25C,0.800000*%
%TD*%
%TA.AperFunction,Conductor*%
%ADD26C,0.250000*%
%TD*%
%TA.AperFunction,Conductor*%
%ADD27C,0.500000*%
%TD*%
G04 APERTURE END LIST*
D10*
%TO.P,J4,1,Pin_1*%
%TO.N,+3V3*%
X117985000Y-124232500D03*
D11*
%TO.P,J4,2,Pin_2*%
%TO.N,GND*%
X117985000Y-120732500D03*
%TO.P,J4,3,Pin_3*%
%TO.N,Net-(J3-Pad7)*%
X117985000Y-117232500D03*
%TO.P,J4,4,Pin_4*%
%TO.N,+3V3*%
X117985000Y-113732500D03*
%TO.P,J4,5,Pin_5*%
%TO.N,GND*%
X117985000Y-110232500D03*
%TO.P,J4,6,Pin_6*%
%TO.N,Net-(J3-Pad5)*%
X117985000Y-106732500D03*
%TO.P,J4,7,Pin_7*%
%TO.N,+3V3*%
X117985000Y-103232500D03*
%TO.P,J4,8,Pin_8*%
%TO.N,GND*%
X117985000Y-99732500D03*
%TO.P,J4,9,Pin_9*%
%TO.N,Net-(J3-Pad3)*%
X117985000Y-96232500D03*
%TO.P,J4,10,Pin_10*%
%TO.N,+3V3*%
X117985000Y-92732500D03*
%TO.P,J4,11,Pin_11*%
%TO.N,GND*%
X117985000Y-89232500D03*
%TO.P,J4,12,Pin_12*%
%TO.N,Net-(J3-Pad1)*%
X117985000Y-85732500D03*
%TD*%
D12*
%TO.P,J5,1,Pin_1*%
%TO.N,+3V3*%
X156500000Y-101000000D03*
D13*
%TO.P,J5,2,Pin_2*%
%TO.N,/RXD*%
X159040000Y-101000000D03*
%TO.P,J5,3,Pin_3*%
%TO.N,/TXD*%
X161580000Y-101000000D03*
%TO.P,J5,4,Pin_4*%
%TO.N,GND*%
X164120000Y-101000000D03*
%TD*%
D14*
%TO.P,J3,1,Pin_1*%
%TO.N,Net-(J3-Pad1)*%
X145825000Y-93475000D03*
D15*
%TO.P,J3,2,Pin_2*%
%TO.N,Net-(J3-Pad2)*%
X145825000Y-96015000D03*
%TO.P,J3,3,Pin_3*%
%TO.N,Net-(J3-Pad3)*%
X143285000Y-93475000D03*
%TO.P,J3,4,Pin_4*%
%TO.N,Net-(J3-Pad4)*%
X143285000Y-96015000D03*
%TO.P,J3,5,Pin_5*%
%TO.N,Net-(J3-Pad5)*%
X140745000Y-93475000D03*
%TO.P,J3,6,Pin_6*%
%TO.N,Net-(J3-Pad6)*%
X140745000Y-96015000D03*
%TO.P,J3,7,Pin_7*%
%TO.N,Net-(J3-Pad7)*%
X138205000Y-93475000D03*
%TO.P,J3,8,Pin_8*%
%TO.N,Net-(J3-Pad8)*%
X138205000Y-96015000D03*
%TD*%
D14*
%TO.P,J2,1,Pin_1*%
%TO.N,/USB_D-*%
X182200000Y-94600000D03*
D15*
%TO.P,J2,2,Pin_2*%
%TO.N,/USB_D+*%
X182200000Y-97140000D03*
%TO.P,J2,3,Pin_3*%
%TO.N,+28V*%
X182200000Y-99680000D03*
%TO.P,J2,4,Pin_4*%
%TO.N,GND*%
X182200000Y-102220000D03*
%TD*%
D16*
%TO.P,J1,1,Pin_1*%
%TO.N,GND*%
X178657500Y-110302500D03*
D11*
%TO.P,J1,2,Pin_2*%
%TO.N,Net-(D1-Pad1)*%
X178657500Y-114112500D03*
%TO.P,J1,3,Pin_3*%
%TO.N,Net-(D1-Pad2)*%
X178657500Y-117922500D03*
%TO.P,J1,4,Pin_4*%
%TO.N,+28V*%
X178657500Y-121732500D03*
%TD*%
D17*
%TO.P,C7,1*%
%TO.N,+3V3*%
X183250000Y-85450000D03*
%TO.P,C7,2*%
%TO.N,GND*%
X181350000Y-85450000D03*
%TD*%
D18*
%TO.P,C6,1*%
%TO.N,+3V3*%
X182900000Y-89600000D03*
%TO.P,C6,2*%
%TO.N,GND*%
X182900000Y-91500000D03*
%TD*%
D14*
%TO.P,JP1,1,A*%
%TO.N,Net-(D1-Pad1)*%
X148000000Y-119325000D03*
D15*
%TO.P,JP1,2,B*%
%TO.N,Net-(JP1-Pad2)*%
X148000000Y-121865000D03*
%TD*%
D19*
%TO.P,U1,1,IN*%
%TO.N,+28V*%
X166947000Y-118292500D03*
D20*
%TO.P,U1,2,GND*%
%TO.N,GND*%
X164407000Y-118292500D03*
%TO.P,U1,3,OUT*%
%TO.N,+3V3*%
X161867000Y-118292500D03*
%TD*%
D21*
%TO.P,SW1,*%
%TO.N,*%
X153225000Y-89802500D03*
X160235000Y-89802500D03*
D22*
%TO.P,SW1,1,1*%
%TO.N,/config*%
X154475000Y-87312500D03*
%TO.P,SW1,2,2*%
%TO.N,GND*%
X158975000Y-87312500D03*
%TD*%
D23*
%TO.P,C2,1*%
%TO.N,+3V3*%
X162300000Y-112732380D03*
D24*
%TO.P,C2,2*%
%TO.N,GND*%
X162300000Y-110232380D03*
%TD*%
D23*
%TO.P,C1,1*%
%TO.N,+28V*%
X170500000Y-112832380D03*
D24*
%TO.P,C1,2*%
%TO.N,GND*%
X170500000Y-110332380D03*
%TD*%
D25*
%TO.N,GND*%
X173750000Y-89000000D03*
X168000000Y-123500000D03*
X166000000Y-93000000D03*
X165750000Y-85000000D03*
X165750000Y-90250000D03*
X165750000Y-90250000D03*
%TO.N,+3V3*%
X148250000Y-108000000D03*
X158750000Y-110750000D03*
%TO.N,Net-(D1-Pad1)*%
X154750000Y-117250000D03*
%TO.N,GND*%
X179750000Y-84500000D03*
X180750000Y-89250000D03*
X160250000Y-93750000D03*
X180750000Y-100750000D03*
X180250000Y-98000000D03*
X180250000Y-96000000D03*
X150750000Y-103500000D03*
%TO.N,/D*%
X172000000Y-90750000D03*
X180000000Y-90500000D03*
%TO.N,CNT3*%
X147750000Y-105000000D03*
%TO.N,CNT2*%
X149250000Y-91500000D03*
%TO.N,CNT1*%
X147000000Y-89750000D03*
%TO.N,CNT4*%
X136000000Y-117250000D03*
X179250000Y-103250000D03*
%TO.N,CNT3*%
X145000000Y-105000000D03*
%TO.N,CNT2*%
X142000000Y-90500000D03*
%TO.N,CNT1*%
X145925000Y-86750000D03*
%TO.N,+3V3*%
X184000000Y-89250000D03*
%TO.N,Net-(J3-Pad7)*%
X134750000Y-108750000D03*
%TO.N,+3V3*%
X170050000Y-118400000D03*
X169650000Y-88000000D03*
%TO.N,Net-(D1-Pad2)*%
X158050000Y-112800000D03*
X153800000Y-110400000D03*
X157350000Y-124450000D03*
X156700000Y-118150000D03*
%TO.N,Net-(C5-Pad1)*%
X166100000Y-88750000D03*
X169650000Y-85800000D03*
%TD*%
D26*
%TO.N,+3V3*%
X156000000Y-108000000D02*
X148250000Y-108000000D01*
X158750000Y-110750000D02*
X156000000Y-108000000D01*
%TO.N,Net-(D1-Pad1)*%
X152675000Y-119325000D02*
X148000000Y-119325000D01*
X154750000Y-117250000D02*
X152675000Y-119325000D01*
D27*
%TO.N,+3V3*%
X180104511Y-102254511D02*
X179895489Y-102045489D01*
X179895489Y-102045489D02*
X179895489Y-99604511D01*
X179895489Y-99604511D02*
X179395489Y-99104511D01*
X179395489Y-99104511D02*
X179395489Y-93104511D01*
X179395489Y-93104511D02*
X182900000Y-89600000D01*
X170050000Y-118400000D02*
X172300000Y-116150000D01*
X182000000Y-116100000D02*
X182750000Y-115350000D01*
X172300000Y-116150000D02*
X172300000Y-116100000D01*
X172300000Y-116100000D02*
X182000000Y-116100000D01*
X182750000Y-115350000D02*
X182750000Y-110540978D01*
X182750000Y-110540978D02*
X180104511Y-107895489D01*
X180104511Y-107895489D02*
X180104511Y-102254511D01*
D26*
%TO.N,CNT2*%
X145500000Y-90750000D02*
X148500000Y-90750000D01*
X148500000Y-90750000D02*
X149250000Y-91500000D01*
D27*
%TO.N,+3V3*%
X164732380Y-112732380D02*
X170050000Y-118050000D01*
X170050000Y-118050000D02*
X170050000Y-118400000D01*
D26*
%TO.N,CNT3*%
X147750000Y-105000000D02*
X145000000Y-105000000D01*
%TO.N,/D*%
X172000000Y-90750000D02*
X179750000Y-90750000D01*
X179750000Y-90750000D02*
X180000000Y-90500000D01*
%TO.N,CNT2*%
X145500000Y-90750000D02*
X145000000Y-90250000D01*
%TO.N,CNT1*%
X147000000Y-89750000D02*
X145925000Y-88675000D01*
X145925000Y-88675000D02*
X145925000Y-86750000D01*
%TO.N,CNT4*%
X136000000Y-116250000D02*
X136000000Y-117250000D01*
X176770489Y-105729511D02*
X146520489Y-105729511D01*
X179250000Y-103250000D02*
X176770489Y-105729511D01*
X146520489Y-105729511D02*
X136000000Y-116250000D01*
%TO.N,CNT2*%
X145000000Y-90250000D02*
X142250000Y-90250000D01*
X142250000Y-90250000D02*
X142000000Y-90500000D01*
%TO.N,+3V3*%
X184000000Y-89250000D02*
X183250000Y-89250000D01*
X183250000Y-89250000D02*
X182900000Y-89600000D01*
D27*
X114750000Y-114715000D02*
X114750000Y-123250000D01*
X114750000Y-123250000D02*
X115732500Y-124232500D01*
X115732500Y-124232500D02*
X117985000Y-124232500D01*
X114750000Y-114715000D02*
X115732500Y-113732500D01*
X114750000Y-94862020D02*
X114750000Y-102000000D01*
X114750000Y-102000000D02*
X115982500Y-103232500D01*
X114750000Y-94862020D02*
X116879520Y-92732500D01*
D26*
X116879520Y-92732500D02*
X117985000Y-92732500D01*
D27*
X117985000Y-103232500D02*
X115982500Y-103232500D01*
X115732500Y-113732500D02*
X114750000Y-112750000D01*
X117985000Y-113732500D02*
X115732500Y-113732500D01*
X114750000Y-112750000D02*
X114750000Y-106467500D01*
X114750000Y-106467500D02*
X117985000Y-103232500D01*
D26*
X116017500Y-113732500D02*
X117985000Y-113732500D01*
%TO.N,Net-(J3-Pad7)*%
X134750000Y-108750000D02*
X134750000Y-95000000D01*
X134750000Y-95000000D02*
X136275000Y-93475000D01*
X136275000Y-93475000D02*
X138205000Y-93475000D01*
D27*
%TO.N,+3V3*%
X162300000Y-112732380D02*
X164732380Y-112732380D01*
D26*
X173254520Y-84395480D02*
X177745480Y-84395480D01*
X180450000Y-87100000D02*
X181600000Y-87100000D01*
X169650000Y-88000000D02*
X173254520Y-84395480D01*
X177745480Y-84395480D02*
X180450000Y-87100000D01*
X181600000Y-87100000D02*
X183250000Y-85450000D01*
%TO.N,Net-(D1-Pad2)*%
X153800000Y-110400000D02*
X153800000Y-112100000D01*
X154500000Y-112800000D02*
X158050000Y-112800000D01*
X153800000Y-112100000D02*
X154500000Y-112800000D01*
X158300000Y-123700000D02*
X157550000Y-124450000D01*
X157550000Y-124450000D02*
X157350000Y-124450000D01*
X156700000Y-118150000D02*
X158300000Y-119750000D01*
X158300000Y-119750000D02*
X158300000Y-123700000D01*
D27*
%TO.N,+28V*%
X184179511Y-101659511D02*
X184179511Y-120570489D01*
X182200000Y-99680000D02*
X184179511Y-101659511D01*
X184179511Y-120570489D02*
X183017500Y-121732500D01*
X183017500Y-121732500D02*
X178657500Y-121732500D01*
D26*
%TO.N,Net-(C5-Pad1)*%
X167800000Y-88750000D02*
X166100000Y-88750000D01*
X169650000Y-85800000D02*
X169650000Y-86900000D01*
X169650000Y-86900000D02*
X167800000Y-88750000D01*
%TO.N,+3V3*%
X182900000Y-89600000D02*
X183650000Y-88850000D01*
X183650000Y-88850000D02*
X183650000Y-85850000D01*
X183650000Y-85850000D02*
X183250000Y-85450000D01*
%TD*%
%TA.AperFunction,Conductor*%
%TO.N,GND*%
G36*
X172917933Y-84048602D02*
G01*
X172964426Y-84102258D01*
X172974530Y-84172532D01*
X172945036Y-84237112D01*
X172938907Y-84243695D01*
X170197029Y-86985573D01*
X170134717Y-87019599D01*
X170063902Y-87014534D01*
X170007066Y-86971987D01*
X169982415Y-86907461D01*
X169980978Y-86891045D01*
X169980500Y-86880083D01*
X169980500Y-86371752D01*
X170000502Y-86303631D01*
X170029796Y-86271790D01*
X170075293Y-86236879D01*
X170075298Y-86236874D01*
X170081848Y-86231848D01*
X170178903Y-86105362D01*
X170239915Y-85958067D01*
X170260725Y-85800000D01*
X170239915Y-85641933D01*
X170178903Y-85494638D01*
X170081848Y-85368152D01*
X169955363Y-85271097D01*
X169808067Y-85210085D01*
X169650000Y-85189275D01*
X169491933Y-85210085D01*
X169344638Y-85271097D01*
X169218152Y-85368152D01*
X169121097Y-85494638D01*
X169060085Y-85641933D01*
X169039275Y-85800000D01*
X169060085Y-85958067D01*
X169121097Y-86105362D01*
X169218152Y-86231848D01*
X169224702Y-86236874D01*
X169224707Y-86236879D01*
X169270204Y-86271790D01*
X169312071Y-86329128D01*
X169319500Y-86371752D01*
X169319500Y-86710912D01*
X169299498Y-86779033D01*
X169282595Y-86800007D01*
X167700007Y-88382595D01*
X167637695Y-88416621D01*
X167610912Y-88419500D01*
X166671751Y-88419500D01*
X166603630Y-88399498D01*
X166571788Y-88370204D01*
X166553058Y-88345794D01*
X166531848Y-88318152D01*
X166505234Y-88297730D01*
X166411914Y-88226124D01*
X166405363Y-88221097D01*
X166258067Y-88160085D01*
X166100000Y-88139275D01*
X165941933Y-88160085D01*
X165794638Y-88221097D01*
X165788087Y-88226124D01*
X165788084Y-88226126D01*
X165686837Y-88303815D01*
X165668152Y-88318152D01*
X165571097Y-88444638D01*
X165510085Y-88591933D01*
X165489275Y-88750000D01*
X165510085Y-88908067D01*
X165571097Y-89055362D01*
X165668152Y-89181848D01*
X165794637Y-89278903D01*
X165941933Y-89339915D01*
X166100000Y-89360725D01*
X166108188Y-89359647D01*
X166249879Y-89340993D01*
X166258067Y-89339915D01*
X166405363Y-89278903D01*
X166531848Y-89181848D01*
X166571789Y-89129795D01*
X166629126Y-89087929D01*
X166671751Y-89080500D01*
X167780082Y-89080500D01*
X167791064Y-89080980D01*
X167818264Y-89083360D01*
X167818265Y-89083360D01*
X167829249Y-89084321D01*
X167839900Y-89081467D01*
X167839902Y-89081467D01*
X167866290Y-89074397D01*
X167877018Y-89072019D01*
X167903924Y-89067274D01*
X167903927Y-89067273D01*
X167914781Y-89065359D01*
X167924327Y-89059848D01*
X167927814Y-89058579D01*
X167931182Y-89057009D01*
X167941830Y-89054155D01*
X167950859Y-89047833D01*
X167950863Y-89047831D01*
X167973242Y-89032161D01*
X167982512Y-89026255D01*
X168006169Y-89012597D01*
X168006173Y-89012594D01*
X168015718Y-89007083D01*
X168040364Y-88977711D01*
X168047791Y-88969607D01*
X168867945Y-88149453D01*
X168930257Y-88115427D01*
X169001072Y-88120492D01*
X169057908Y-88163039D01*
X169073448Y-88190329D01*
X169121097Y-88305362D01*
X169218152Y-88431848D01*
X169224702Y-88436874D01*
X169224703Y-88436875D01*
X169258338Y-88462684D01*
X169344637Y-88528903D01*
X169491933Y-88589915D01*
X169650000Y-88610725D01*
X169658188Y-88609647D01*
X169799879Y-88590993D01*
X169808067Y-88589915D01*
X169955363Y-88528903D01*
X170041662Y-88462684D01*
X170075297Y-88436875D01*
X170075298Y-88436874D01*
X170081848Y-88431848D01*
X170178903Y-88305362D01*
X170239915Y-88158067D01*
X170260725Y-88000000D01*
X170252161Y-87934951D01*
X170263100Y-87864803D01*
X170287988Y-87829410D01*
X173354513Y-84762885D01*
X173416825Y-84728859D01*
X173443608Y-84725980D01*
X177556392Y-84725980D01*
X177624513Y-84745982D01*
X177645487Y-84762885D01*
X180202209Y-87319607D01*
X180209636Y-87327711D01*
X180234282Y-87357083D01*
X180243827Y-87362594D01*
X180243831Y-87362597D01*
X180267488Y-87376255D01*
X180276758Y-87382161D01*
X180299137Y-87397831D01*
X180299141Y-87397833D01*
X180308170Y-87404155D01*
X180318818Y-87407009D01*
X180322186Y-87408579D01*
X180325673Y-87409848D01*
X180335219Y-87415359D01*
X180346073Y-87417273D01*
X180346076Y-87417274D01*
X180372982Y-87422019D01*
X180383710Y-87424397D01*
X180410104Y-87431469D01*
X180410108Y-87431469D01*
X180420751Y-87434321D01*
X180431726Y-87433361D01*
X180431727Y-87433361D01*
X180458951Y-87430979D01*
X180469932Y-87430500D01*
X181580082Y-87430500D01*
X181591064Y-87430980D01*
X181618264Y-87433360D01*
X181618265Y-87433360D01*
X181629249Y-87434321D01*
X181639900Y-87431467D01*
X181639902Y-87431467D01*
X181666290Y-87424397D01*
X181677018Y-87422019D01*
X181703924Y-87417274D01*
X181703927Y-87417273D01*
X181714781Y-87415359D01*
X181724327Y-87409848D01*
X181727814Y-87408579D01*
X181731182Y-87407009D01*
X181741830Y-87404155D01*
X181750859Y-87397833D01*
X181750863Y-87397831D01*
X181773242Y-87382161D01*
X181782512Y-87376255D01*
X181806169Y-87362597D01*
X181806173Y-87362594D01*
X181815718Y-87357083D01*
X181840364Y-87327711D01*
X181847779Y-87319619D01*
X182766028Y-86401369D01*
X182828339Y-86367345D01*
X182896869Y-86371582D01*
X182906435Y-86374941D01*
X182906440Y-86374942D01*
X182913684Y-86377486D01*
X182921324Y-86378208D01*
X182921328Y-86378209D01*
X182937264Y-86379715D01*
X182945570Y-86380500D01*
X183193500Y-86380500D01*
X183261621Y-86400502D01*
X183308114Y-86454158D01*
X183319500Y-86506500D01*
X183319500Y-88660912D01*
X183299498Y-88729033D01*
X183282595Y-88750007D01*
X183175007Y-88857595D01*
X183112695Y-88891621D01*
X183085912Y-88894500D01*
X182370570Y-88894500D01*
X182361283Y-88895378D01*
X182346329Y-88896791D01*
X182346326Y-88896792D01*
X182338684Y-88897514D01*
X182331437Y-88900059D01*
X182233797Y-88934348D01*
X182209450Y-88942898D01*
X182099275Y-89024275D01*
X182017898Y-89134450D01*
X181972514Y-89263684D01*
X181971792Y-89271326D01*
X181971791Y-89271329D01*
X181971075Y-89278903D01*
X181969500Y-89295570D01*
X181969500Y-89834135D01*
X181949498Y-89902256D01*
X181932595Y-89923230D01*
X179097812Y-92758014D01*
X179086723Y-92767868D01*
X179067094Y-92783343D01*
X179067092Y-92783345D01*
X179059693Y-92789178D01*
X179054339Y-92796925D01*
X179054337Y-92796927D01*
X179025948Y-92838004D01*
X179023653Y-92841216D01*
X178988387Y-92888962D01*
X178985969Y-92895848D01*
X178981817Y-92901855D01*
X178978978Y-92910833D01*
X178978977Y-92910834D01*
X178963923Y-92958434D01*
X178962670Y-92962188D01*
X178946123Y-93009306D01*
X178946122Y-93009314D01*
X178943003Y-93018194D01*
X178942720Y-93025396D01*
X178942678Y-93025608D01*
X178940515Y-93032450D01*
X178939989Y-93039134D01*
X178939989Y-93092435D01*
X178939892Y-93097381D01*
X178937626Y-93155059D01*
X178939526Y-93162224D01*
X178939989Y-93170639D01*
X178939989Y-99069995D01*
X178939116Y-99084804D01*
X178935071Y-99118981D01*
X178936763Y-99128245D01*
X178936763Y-99128248D01*
X178945736Y-99177380D01*
X178946386Y-99181282D01*
X178955208Y-99239959D01*
X178958367Y-99246537D01*
X178959679Y-99253722D01*
X178964021Y-99262080D01*
X178964021Y-99262081D01*
X178987039Y-99306392D01*
X178988809Y-99309934D01*
X179005931Y-99345590D01*
X179014498Y-99363432D01*
X179019393Y-99368728D01*
X179019510Y-99368901D01*
X179022819Y-99375271D01*
X179027173Y-99380370D01*
X179064868Y-99418065D01*
X179068297Y-99421631D01*
X179107474Y-99464012D01*
X179113885Y-99467736D01*
X179120153Y-99473350D01*
X179271022Y-99624218D01*
X179403084Y-99756280D01*
X179437109Y-99818593D01*
X179439989Y-99845376D01*
X179439989Y-102010973D01*
X179439116Y-102025782D01*
X179435071Y-102059959D01*
X179436763Y-102069223D01*
X179436763Y-102069226D01*
X179445736Y-102118358D01*
X179446386Y-102122260D01*
X179453673Y-102170725D01*
X179455208Y-102180937D01*
X179458367Y-102187515D01*
X179459679Y-102194700D01*
X179464021Y-102203058D01*
X179464021Y-102203059D01*
X179487039Y-102247370D01*
X179488809Y-102250912D01*
X179501631Y-102277613D01*
X179514498Y-102304410D01*
X179519393Y-102309706D01*
X179519510Y-102309879D01*
X179522819Y-102316249D01*
X179527173Y-102321348D01*
X179564867Y-102359042D01*
X179568296Y-102362608D01*
X179600276Y-102397203D01*
X179602364Y-102399462D01*
X179607474Y-102404990D01*
X179606715Y-102405691D01*
X179642449Y-102456844D01*
X179649011Y-102496977D01*
X179649011Y-102571315D01*
X179629009Y-102639436D01*
X179575353Y-102685929D01*
X179505079Y-102696033D01*
X179474793Y-102687724D01*
X179453527Y-102678915D01*
X179408067Y-102660085D01*
X179250000Y-102639275D01*
X179091933Y-102660085D01*
X178944638Y-102721097D01*
X178818152Y-102818152D01*
X178813126Y-102824702D01*
X178777641Y-102870947D01*
X178721097Y-102944638D01*
X178660085Y-103091933D01*
X178639275Y-103250000D01*
X178640353Y-103258187D01*
X178647839Y-103315048D01*
X178636900Y-103385197D01*
X178612012Y-103420590D01*
X176670496Y-105362106D01*
X176608184Y-105396132D01*
X176581401Y-105399011D01*
X148428685Y-105399011D01*
X148360564Y-105379009D01*
X148314071Y-105325353D01*
X148303967Y-105255079D01*
X148312276Y-105224793D01*
X148336755Y-105165696D01*
X148339915Y-105158067D01*
X148360725Y-105000000D01*
X148339915Y-104841933D01*
X148278903Y-104694638D01*
X148181848Y-104568152D01*
X148055363Y-104471097D01*
X147908067Y-104410085D01*
X147750000Y-104389275D01*
X147591933Y-104410085D01*
X147444638Y-104471097D01*
X147318152Y-104568152D01*
X147313124Y-104574705D01*
X147278212Y-104620204D01*
X147220874Y-104662071D01*
X147178249Y-104669500D01*
X145571751Y-104669500D01*
X145503630Y-104649498D01*
X145471788Y-104620204D01*
X145431848Y-104568152D01*
X145305363Y-104471097D01*
X145158067Y-104410085D01*
X145000000Y-104389275D01*
X144841933Y-104410085D01*
X144694638Y-104471097D01*
X144568152Y-104568152D01*
X144471097Y-104694638D01*
X144410085Y-104841933D01*
X144389275Y-105000000D01*
X144410085Y-105158067D01*
X144471097Y-105305362D01*
X144568152Y-105431848D01*
X144694637Y-105528903D01*
X144841933Y-105589915D01*
X145000000Y-105610725D01*
X145008188Y-105609647D01*
X145149879Y-105590993D01*
X145158067Y-105589915D01*
X145305363Y-105528903D01*
X145431848Y-105431848D01*
X145471789Y-105379795D01*
X145529126Y-105337929D01*
X145571751Y-105330500D01*
X146147912Y-105330500D01*
X146216033Y-105350502D01*
X146262526Y-105404158D01*
X146272630Y-105474432D01*
X146243136Y-105539012D01*
X146237007Y-105545595D01*
X135780393Y-116002209D01*
X135772289Y-116009636D01*
X135742917Y-116034282D01*
X135737406Y-116043827D01*
X135737403Y-116043831D01*
X135723745Y-116067488D01*
X135717839Y-116076758D01*
X135702169Y-116099137D01*
X135702167Y-116099141D01*
X135695845Y-116108170D01*
X135692991Y-116118818D01*
X135691421Y-116122186D01*
X135690152Y-116125673D01*
X135684641Y-116135219D01*
X135682727Y-116146073D01*
X135682726Y-116146076D01*
X135677981Y-116172982D01*
X135675603Y-116183710D01*
X135668533Y-116210098D01*
X135665679Y-116220751D01*
X135667937Y-116246555D01*
X135669020Y-116258936D01*
X135669500Y-116269918D01*
X135669500Y-116678249D01*
X135649498Y-116746370D01*
X135620206Y-116778210D01*
X135568152Y-116818152D01*
X135563126Y-116824702D01*
X135527641Y-116870947D01*
X135471097Y-116944638D01*
X135410085Y-117091933D01*
X135389275Y-117250000D01*
X135410085Y-117408067D01*
X135471097Y-117555362D01*
X135568152Y-117681848D01*
X135574702Y-117686874D01*
X135574703Y-117686875D01*
X135631395Y-117730376D01*
X135694637Y-117778903D01*
X135841933Y-117839915D01*
X135850121Y-117840993D01*
X135897131Y-117847182D01*
X136000000Y-117860725D01*
X136008188Y-117859647D01*
X136149879Y-117840993D01*
X136158067Y-117839915D01*
X136305363Y-117778903D01*
X136368606Y-117730375D01*
X136425297Y-117686875D01*
X136425298Y-117686874D01*
X136431848Y-117681848D01*
X136528903Y-117555362D01*
X136589915Y-117408067D01*
X136610725Y-117250000D01*
X136589915Y-117091933D01*
X136528903Y-116944638D01*
X136431848Y-116818152D01*
X136425297Y-116813125D01*
X136425293Y-116813121D01*
X136379796Y-116778210D01*
X136337929Y-116720872D01*
X136330500Y-116678248D01*
X136330500Y-116439088D01*
X136350502Y-116370967D01*
X136367405Y-116349993D01*
X142317398Y-110400000D01*
X153189275Y-110400000D01*
X153190353Y-110408188D01*
X153207162Y-110535861D01*
X153210085Y-110558067D01*
X153271097Y-110705362D01*
X153368152Y-110831848D01*
X153374702Y-110836874D01*
X153374707Y-110836879D01*
X153420204Y-110871790D01*
X153462071Y-110929128D01*
X153469500Y-110971752D01*
X153469500Y-112080082D01*
X153469020Y-112091064D01*
X153465679Y-112129249D01*
X153468533Y-112139900D01*
X153468533Y-112139902D01*
X153475603Y-112166290D01*
X153477981Y-112177018D01*
X153482726Y-112203924D01*
X153482727Y-112203927D01*
X153484641Y-112214781D01*
X153490152Y-112224327D01*
X153491421Y-112227814D01*
X153492991Y-112231182D01*
X153495845Y-112241830D01*
X153502167Y-112250859D01*
X153502169Y-112250863D01*
X153517839Y-112273242D01*
X153523745Y-112282512D01*
X153537403Y-112306169D01*
X153537406Y-112306173D01*
X153542917Y-112315718D01*
X153552799Y-112324010D01*
X153572283Y-112340359D01*
X153580387Y-112347785D01*
X154252210Y-113019607D01*
X154259636Y-113027711D01*
X154284282Y-113057083D01*
X154293825Y-113062593D01*
X154293829Y-113062596D01*
X154317493Y-113076258D01*
X154326760Y-113082162D01*
X154358170Y-113104155D01*
X154368820Y-113107008D01*
X154372193Y-113108581D01*
X154375675Y-113109848D01*
X154385219Y-113115359D01*
X154404960Y-113118840D01*
X154422993Y-113122020D01*
X154433721Y-113124399D01*
X154460104Y-113131468D01*
X154460106Y-113131468D01*
X154470750Y-113134320D01*
X154481725Y-113133360D01*
X154481726Y-113133360D01*
X154508939Y-113130979D01*
X154519920Y-113130500D01*
X157478249Y-113130500D01*
X157546370Y-113150502D01*
X157578211Y-113179795D01*
X157618152Y-113231848D01*
X157624702Y-113236874D01*
X157624703Y-113236875D01*
X157668144Y-113270208D01*
X157744637Y-113328903D01*
X157891933Y-113389915D01*
X158050000Y-113410725D01*
X158058188Y-113409647D01*
X158199879Y-113390993D01*
X158208067Y-113389915D01*
X158355363Y-113328903D01*
X158431856Y-113270208D01*
X158475297Y-113236875D01*
X158475298Y-113236874D01*
X158481848Y-113231848D01*
X158578903Y-113105362D01*
X158639915Y-112958067D01*
X158648610Y-112892026D01*
X158653124Y-112857732D01*
X158660725Y-112800000D01*
X158639915Y-112641933D01*
X158578903Y-112494638D01*
X158481848Y-112368152D01*
X158473448Y-112361706D01*
X158392458Y-112299561D01*
X158355363Y-112271097D01*
X158208067Y-112210085D01*
X158050000Y-112189275D01*
X157891933Y-112210085D01*
X157744638Y-112271097D01*
X157738087Y-112276124D01*
X157738084Y-112276126D01*
X157666736Y-112330873D01*
X157618152Y-112368152D01*
X157596336Y-112396584D01*
X157578212Y-112420204D01*
X157520874Y-112462071D01*
X157478249Y-112469500D01*
X154689088Y-112469500D01*
X154620967Y-112449498D01*
X154599992Y-112432595D01*
X154167404Y-112000006D01*
X154133379Y-111937694D01*
X154130500Y-111910911D01*
X154130500Y-110971752D01*
X154150502Y-110903631D01*
X154179796Y-110871790D01*
X154225293Y-110836879D01*
X154225298Y-110836874D01*
X154231848Y-110831848D01*
X154328903Y-110705362D01*
X154389915Y-110558067D01*
X154392839Y-110535861D01*
X154409647Y-110408188D01*
X154410725Y-110400000D01*
X154389915Y-110241933D01*
X154328903Y-110094638D01*
X154231848Y-109968152D01*
X154105363Y-109871097D01*
X153958067Y-109810085D01*
X153800000Y-109789275D01*
X153641933Y-109810085D01*
X153494638Y-109871097D01*
X153368152Y-109968152D01*
X153363126Y-109974702D01*
X153276126Y-110088084D01*
X153271097Y-110094638D01*
X153210085Y-110241933D01*
X153189275Y-110400000D01*
X142317398Y-110400000D01*
X144717398Y-108000000D01*
X147639275Y-108000000D01*
X147660085Y-108158067D01*
X147721097Y-108305362D01*
X147818152Y-108431848D01*
X147824702Y-108436874D01*
X147824703Y-108436875D01*
X147881395Y-108480376D01*
X147944637Y-108528903D01*
X148091933Y-108589915D01*
X148250000Y-108610725D01*
X148258188Y-108609647D01*
X148399879Y-108590993D01*
X148408067Y-108589915D01*
X148555363Y-108528903D01*
X148618606Y-108480375D01*
X148675297Y-108436875D01*
X148675298Y-108436874D01*
X148681848Y-108431848D01*
X148721789Y-108379795D01*
X148779126Y-108337929D01*
X148821751Y-108330500D01*
X155810912Y-108330500D01*
X155879033Y-108350502D01*
X155900007Y-108367405D01*
X158112012Y-110579409D01*
X158146037Y-110641721D01*
X158147839Y-110684949D01*
X158139275Y-110750000D01*
X158160085Y-110908067D01*
X158221097Y-111055362D01*
X158318152Y-111181848D01*
X158444637Y-111278903D01*
X158591933Y-111339915D01*
X158750000Y-111360725D01*
X158758188Y-111359647D01*
X158899879Y-111340993D01*
X158908067Y-111339915D01*
X159055363Y-111278903D01*
X159181848Y-111181848D01*
X159278903Y-111055362D01*
X159339915Y-110908067D01*
X159360725Y-110750000D01*
X159339915Y-110591933D01*
X159278903Y-110444638D01*
X159181848Y-110318152D01*
X159133040Y-110280700D01*
X159082517Y-110241933D01*
X159077202Y-110237855D01*
X160987483Y-110237855D01*
X161006472Y-110454899D01*
X161008375Y-110465692D01*
X161064764Y-110676141D01*
X161068510Y-110686433D01*
X161160586Y-110883891D01*
X161166069Y-110893386D01*
X161202509Y-110945428D01*
X161212988Y-110953804D01*
X161226434Y-110946736D01*
X161927978Y-110245192D01*
X161934356Y-110233512D01*
X162664408Y-110233512D01*
X162664539Y-110235345D01*
X162668790Y-110241960D01*
X163374287Y-110947457D01*
X163386062Y-110953887D01*
X163398077Y-110944591D01*
X163433931Y-110893386D01*
X163439414Y-110883891D01*
X163531490Y-110686433D01*
X163535236Y-110676141D01*
X163591625Y-110465692D01*
X163593528Y-110454899D01*
X163603768Y-110337855D01*
X169187483Y-110337855D01*
X169206472Y-110554899D01*
X169208375Y-110565692D01*
X169264764Y-110776141D01*
X169268510Y-110786433D01*
X169360586Y-110983891D01*
X169366069Y-110993386D01*
X169402509Y-111045428D01*
X169412988Y-111053804D01*
X169426434Y-111046736D01*
X170127978Y-110345192D01*
X170134356Y-110333512D01*
X170864408Y-110333512D01*
X170864539Y-110335345D01*
X170868790Y-110341960D01*
X171574287Y-111047457D01*
X171586062Y-111053887D01*
X171598077Y-111044591D01*
X171629583Y-110999595D01*
X176349501Y-110999595D01*
X176349838Y-111006114D01*
X176359757Y-111101706D01*
X176362649Y-111115100D01*
X176414088Y-111269284D01*
X176420261Y-111282462D01*
X176505563Y-111420307D01*
X176514599Y-111431708D01*
X176629329Y-111546239D01*
X176640740Y-111555251D01*
X176778743Y-111640316D01*
X176791924Y-111646463D01*
X176946210Y-111697638D01*
X176959586Y-111700505D01*
X177053938Y-111710172D01*
X177060354Y-111710500D01*
X178385385Y-111710500D01*
X178400624Y-111706025D01*
X178401829Y-111704635D01*
X178403500Y-111696952D01*
X178403500Y-111692384D01*
X178911500Y-111692384D01*
X178915975Y-111707623D01*
X178917365Y-111708828D01*
X178925048Y-111710499D01*
X180254595Y-111710499D01*
X180261114Y-111710162D01*
X180356706Y-111700243D01*
X180370100Y-111697351D01*
X180524284Y-111645912D01*
X180537462Y-111639739D01*
X180675307Y-111554437D01*
X180686708Y-111545401D01*
X180801239Y-111430671D01*
X180810251Y-111419260D01*
X180895316Y-111281257D01*
X180901463Y-111268076D01*
X180952638Y-111113790D01*
X180955505Y-111100414D01*
X180965172Y-111006062D01*
X180965500Y-110999646D01*
X180965500Y-110574615D01*
X180961025Y-110559376D01*
X180959635Y-110558171D01*
X180951952Y-110556500D01*
X178929615Y-110556500D01*
X178914376Y-110560975D01*
X178913171Y-110562365D01*
X178911500Y-110570048D01*
X178911500Y-111692384D01*
X178403500Y-111692384D01*
X178403500Y-110574615D01*
X178399025Y-110559376D01*
X178397635Y-110558171D01*
X178389952Y-110556500D01*
X176367616Y-110556500D01*
X176352377Y-110560975D01*
X176351172Y-110562365D01*
X176349501Y-110570048D01*
X176349501Y-110999595D01*
X171629583Y-110999595D01*
X171633931Y-110993386D01*
X171639414Y-110983891D01*
X171731490Y-110786433D01*
X171735236Y-110776141D01*
X171791625Y-110565692D01*
X171793528Y-110554899D01*
X171812517Y-110337855D01*
X171812517Y-110326905D01*
X171793528Y-110109861D01*
X171791625Y-110099068D01*
X171773222Y-110030385D01*
X176349500Y-110030385D01*
X176353975Y-110045624D01*
X176355365Y-110046829D01*
X176363048Y-110048500D01*
X178385385Y-110048500D01*
X178400624Y-110044025D01*
X178401829Y-110042635D01*
X178403500Y-110034952D01*
X178403500Y-108912616D01*
X178399025Y-108897377D01*
X178397635Y-108896172D01*
X178389952Y-108894501D01*
X177060405Y-108894501D01*
X177053886Y-108894838D01*
X176958294Y-108904757D01*
X176944900Y-108907649D01*
X176790716Y-108959088D01*
X176777538Y-108965261D01*
X176639693Y-109050563D01*
X176628292Y-109059599D01*
X176513761Y-109174329D01*
X176504749Y-109185740D01*
X176419684Y-109323743D01*
X176413537Y-109336924D01*
X176362362Y-109491210D01*
X176359495Y-109504586D01*
X176349828Y-109598938D01*
X176349500Y-109605355D01*
X176349500Y-110030385D01*
X171773222Y-110030385D01*
X171735236Y-109888619D01*
X171731490Y-109878327D01*
X171639414Y-109680869D01*
X171633931Y-109671374D01*
X171597491Y-109619332D01*
X171587012Y-109610956D01*
X171573566Y-109618024D01*
X170872022Y-110319568D01*
X170864408Y-110333512D01*
X170134356Y-110333512D01*
X170135592Y-110331248D01*
X170135461Y-110329415D01*
X170131210Y-110322800D01*
X169425713Y-109617303D01*
X169413938Y-109610873D01*
X169401923Y-109620169D01*
X169366069Y-109671374D01*
X169360586Y-109680869D01*
X169268510Y-109878327D01*
X169264764Y-109888619D01*
X169208375Y-110099068D01*
X169206472Y-110109861D01*
X169187483Y-110326905D01*
X169187483Y-110337855D01*
X163603768Y-110337855D01*
X163612517Y-110237855D01*
X163612517Y-110226905D01*
X163593528Y-110009861D01*
X163591625Y-109999068D01*
X163535236Y-109788619D01*
X163531490Y-109778327D01*
X163439414Y-109580869D01*
X163433931Y-109571374D01*
X163397491Y-109519332D01*
X163387012Y-109510956D01*
X163373566Y-109518024D01*
X162672022Y-110219568D01*
X162664408Y-110233512D01*
X161934356Y-110233512D01*
X161935592Y-110231248D01*
X161935461Y-110229415D01*
X161931210Y-110222800D01*
X161225713Y-109517303D01*
X161213938Y-109510873D01*
X161201923Y-109520169D01*
X161166069Y-109571374D01*
X161160586Y-109580869D01*
X161068510Y-109778327D01*
X161064764Y-109788619D01*
X161008375Y-109999068D01*
X161006472Y-110009861D01*
X160987483Y-110226905D01*
X160987483Y-110237855D01*
X159077202Y-110237855D01*
X159055363Y-110221097D01*
X158908067Y-110160085D01*
X158750000Y-110139275D01*
X158684949Y-110147839D01*
X158614802Y-110136900D01*
X158579409Y-110112012D01*
X157612766Y-109145368D01*
X161578576Y-109145368D01*
X161585644Y-109158814D01*
X162287188Y-109860358D01*
X162301132Y-109867972D01*
X162302965Y-109867841D01*
X162309580Y-109863590D01*
X162927802Y-109245368D01*
X169778576Y-109245368D01*
X169785644Y-109258814D01*
X170487188Y-109960358D01*
X170501132Y-109967972D01*
X170502965Y-109967841D01*
X170509580Y-109963590D01*
X171215077Y-109258093D01*
X171221507Y-109246318D01*
X171212211Y-109234303D01*
X171161006Y-109198449D01*
X171151511Y-109192966D01*
X170954053Y-109100890D01*
X170943761Y-109097144D01*
X170733312Y-109040755D01*
X170722519Y-109038852D01*
X170505475Y-109019863D01*
X170494525Y-109019863D01*
X170277481Y-109038852D01*
X170266688Y-109040755D01*
X170056239Y-109097144D01*
X170045947Y-109100890D01*
X169848489Y-109192966D01*
X169838994Y-109198449D01*
X169786952Y-109234889D01*
X169778576Y-109245368D01*
X162927802Y-109245368D01*
X163015077Y-109158093D01*
X163021507Y-109146318D01*
X163012211Y-109134303D01*
X162961006Y-109098449D01*
X162951511Y-109092966D01*
X162754053Y-109000890D01*
X162743761Y-108997144D01*
X162533312Y-108940755D01*
X162522519Y-108938852D01*
X162305475Y-108919863D01*
X162294525Y-108919863D01*
X162077481Y-108938852D01*
X162066688Y-108940755D01*
X161856239Y-108997144D01*
X161845947Y-109000890D01*
X161648489Y-109092966D01*
X161638994Y-109098449D01*
X161586952Y-109134889D01*
X161578576Y-109145368D01*
X157612766Y-109145368D01*
X157432659Y-108965261D01*
X156247791Y-107780393D01*
X156240364Y-107772289D01*
X156222804Y-107751362D01*
X156222805Y-107751362D01*
X156215718Y-107742917D01*
X156206173Y-107737406D01*
X156206169Y-107737403D01*
X156182512Y-107723745D01*
X156173242Y-107717839D01*
X156150863Y-107702169D01*
X156150859Y-107702167D01*
X156141830Y-107695845D01*
X156131182Y-107692991D01*
X156127814Y-107691421D01*
X156124327Y-107690152D01*
X156114781Y-107684641D01*
X156103927Y-107682727D01*
X156103924Y-107682726D01*
X156077018Y-107677981D01*
X156066290Y-107675603D01*
X156039902Y-107668533D01*
X156039900Y-107668533D01*
X156029249Y-107665679D01*
X156018265Y-107666640D01*
X156018264Y-107666640D01*
X155991064Y-107669020D01*
X155980082Y-107669500D01*
X148821751Y-107669500D01*
X148753630Y-107649498D01*
X148721788Y-107620204D01*
X148711862Y-107607268D01*
X148681848Y-107568152D01*
X148555363Y-107471097D01*
X148408067Y-107410085D01*
X148250000Y-107389275D01*
X148091933Y-107410085D01*
X147944638Y-107471097D01*
X147818152Y-107568152D01*
X147721097Y-107694638D01*
X147660085Y-107841933D01*
X147639275Y-108000000D01*
X144717398Y-108000000D01*
X146620482Y-106096916D01*
X146682794Y-106062890D01*
X146709577Y-106060011D01*
X176750571Y-106060011D01*
X176761553Y-106060491D01*
X176788753Y-106062871D01*
X176788754Y-106062871D01*
X176799738Y-106063832D01*
X176810389Y-106060978D01*
X176810391Y-106060978D01*
X176836779Y-106053908D01*
X176847507Y-106051530D01*
X176874413Y-106046785D01*
X176874416Y-106046784D01*
X176885270Y-106044870D01*
X176894816Y-106039359D01*
X176898303Y-106038090D01*
X176901671Y-106036520D01*
X176912319Y-106033666D01*
X176921348Y-106027344D01*
X176921352Y-106027342D01*
X176943731Y-106011672D01*
X176953001Y-106005766D01*
X176976658Y-105992108D01*
X176976662Y-105992105D01*
X176986207Y-105986594D01*
X177010853Y-105957222D01*
X177018280Y-105949118D01*
X179079410Y-103887988D01*
X179141722Y-103853962D01*
X179184950Y-103852161D01*
X179250000Y-103860725D01*
X179258188Y-103859647D01*
X179399879Y-103840993D01*
X179408067Y-103839915D01*
X179474794Y-103812276D01*
X179545382Y-103804687D01*
X179608869Y-103836466D01*
X179645097Y-103897524D01*
X179649011Y-103928685D01*
X179649011Y-107860973D01*
X179648138Y-107875782D01*
X179644093Y-107909959D01*
X179645785Y-107919223D01*
X179645785Y-107919226D01*
X179654758Y-107968358D01*
X179655408Y-107972260D01*
X179660810Y-108008188D01*
X179664230Y-108030937D01*
X179667389Y-108037515D01*
X179668701Y-108044700D01*
X179673043Y-108053058D01*
X179673043Y-108053059D01*
X179696061Y-108097370D01*
X179697831Y-108100912D01*
X179723520Y-108154410D01*
X179728415Y-108159706D01*
X179728532Y-108159879D01*
X179731841Y-108166249D01*
X179736195Y-108171348D01*
X179773891Y-108209044D01*
X179777320Y-108212610D01*
X179816496Y-108254990D01*
X179822907Y-108258714D01*
X179829180Y-108264333D01*
X180244252Y-108679405D01*
X180278278Y-108741717D01*
X180273213Y-108812532D01*
X180230666Y-108869368D01*
X180164146Y-108894179D01*
X180155157Y-108894500D01*
X178929615Y-108894500D01*
X178914376Y-108898975D01*
X178913171Y-108900365D01*
X178911500Y-108908048D01*
X178911500Y-110030385D01*
X178915975Y-110045624D01*
X178917365Y-110046829D01*
X178925048Y-110048500D01*
X180947384Y-110048500D01*
X180962623Y-110044025D01*
X180963828Y-110042635D01*
X180965499Y-110034952D01*
X180965499Y-109704842D01*
X180985501Y-109636721D01*
X181039157Y-109590228D01*
X181109431Y-109580124D01*
X181174011Y-109609618D01*
X181180594Y-109615747D01*
X182257595Y-110692748D01*
X182291621Y-110755060D01*
X182294500Y-110781843D01*
X182294500Y-115109134D01*
X182274498Y-115177255D01*
X182257596Y-115198229D01*
X181848231Y-115607595D01*
X181785918Y-115641620D01*
X181759135Y-115644500D01*
X172366625Y-115644500D01*
X172354748Y-115643142D01*
X172354709Y-115643641D01*
X172345318Y-115642902D01*
X172336142Y-115640775D01*
X172326747Y-115641440D01*
X172326744Y-115641440D01*
X172287982Y-115644185D01*
X172279083Y-115644500D01*
X172265779Y-115644500D01*
X172261129Y-115645199D01*
X172261117Y-115645200D01*
X172254858Y-115646141D01*
X172245029Y-115647226D01*
X172231952Y-115648152D01*
X172199513Y-115650449D01*
X172190728Y-115653847D01*
X172182211Y-115655751D01*
X172173865Y-115658319D01*
X172164552Y-115659719D01*
X172123418Y-115679471D01*
X172114339Y-115683400D01*
X172071769Y-115699869D01*
X172064378Y-115705695D01*
X172056808Y-115710013D01*
X172049572Y-115714930D01*
X172041079Y-115719009D01*
X172034161Y-115725404D01*
X172034158Y-115725406D01*
X172007563Y-115749990D01*
X172000040Y-115756415D01*
X171973869Y-115777048D01*
X171964204Y-115784667D01*
X171958849Y-115792416D01*
X171952886Y-115798765D01*
X171947420Y-115805587D01*
X171940499Y-115811985D01*
X171935767Y-115820131D01*
X171935765Y-115820134D01*
X171917577Y-115851446D01*
X171912278Y-115859797D01*
X171886328Y-115897344D01*
X171883487Y-115906327D01*
X171879345Y-115914783D01*
X171877250Y-115913757D01*
X171854320Y-115951506D01*
X170314095Y-117491731D01*
X170251783Y-117525757D01*
X170180968Y-117520692D01*
X170135905Y-117491731D01*
X166702425Y-114058251D01*
X176648297Y-114058251D01*
X176658050Y-114268975D01*
X176659454Y-114274800D01*
X176703640Y-114458143D01*
X176707474Y-114474053D01*
X176709956Y-114479511D01*
X176709957Y-114479515D01*
X176723011Y-114508225D01*
X176794786Y-114666085D01*
X176916835Y-114838143D01*
X177069217Y-114984017D01*
X177246435Y-115098445D01*
X177252001Y-115100688D01*
X177436524Y-115175053D01*
X177436527Y-115175054D01*
X177442093Y-115177297D01*
X177545462Y-115197484D01*
X177644685Y-115216861D01*
X177644688Y-115216861D01*
X177649131Y-115217729D01*
X177654672Y-115218000D01*
X179610211Y-115218000D01*
X179767496Y-115202994D01*
X179783739Y-115198229D01*
X179964151Y-115145301D01*
X179969915Y-115143610D01*
X180063925Y-115095192D01*
X180152122Y-115049768D01*
X180152125Y-115049766D01*
X180157453Y-115047022D01*
X180209442Y-115006184D01*
X180318626Y-114920420D01*
X180318631Y-114920416D01*
X180323343Y-114916714D01*
X180461599Y-114757387D01*
X180567233Y-114574792D01*
X180611091Y-114448493D01*
X180634466Y-114381181D01*
X180634466Y-114381179D01*
X180636433Y-114375516D01*
X180637450Y-114368503D01*
X180665842Y-114172689D01*
X180665842Y-114172686D01*
X180666703Y-114166749D01*
X180656950Y-113956025D01*
X180632705Y-113855421D01*
X180608932Y-113756780D01*
X180608931Y-113756778D01*
X180607526Y-113750947D01*
X180597265Y-113728378D01*
X180539072Y-113600390D01*
X180520214Y-113558915D01*
X180398165Y-113386857D01*
X180268828Y-113263044D01*
X180250113Y-113245128D01*
X180245783Y-113240983D01*
X180068565Y-113126555D01*
X179997041Y-113097730D01*
X179878476Y-113049947D01*
X179878473Y-113049946D01*
X179872907Y-113047703D01*
X179738403Y-113021436D01*
X179670315Y-113008139D01*
X179670312Y-113008139D01*
X179665869Y-113007271D01*
X179660328Y-113007000D01*
X177704789Y-113007000D01*
X177547504Y-113022006D01*
X177541744Y-113023696D01*
X177541743Y-113023696D01*
X177399903Y-113065308D01*
X177345085Y-113081390D01*
X177313359Y-113097730D01*
X177162878Y-113175232D01*
X177162875Y-113175234D01*
X177157547Y-113177978D01*
X177111568Y-113214095D01*
X176996374Y-113304580D01*
X176996369Y-113304584D01*
X176991657Y-113308286D01*
X176987726Y-113312816D01*
X176987725Y-113312817D01*
X176942023Y-113365485D01*
X176853401Y-113467613D01*
X176747767Y-113650208D01*
X176730341Y-113700390D01*
X176682597Y-113837880D01*
X176678567Y-113849484D01*
X176648297Y-114058251D01*
X166702425Y-114058251D01*
X166296794Y-113652620D01*
X169494500Y-113652620D01*
X169506423Y-113712562D01*
X169551843Y-113780537D01*
X169619818Y-113825957D01*
X169679760Y-113837880D01*
X171320240Y-113837880D01*
X171380182Y-113825957D01*
X171448157Y-113780537D01*
X171493577Y-113712562D01*
X171505500Y-113652620D01*
X171505500Y-112012140D01*
X171493577Y-111952198D01*
X171448157Y-111884223D01*
X171380182Y-111838803D01*
X171320240Y-111826880D01*
X170933240Y-111826880D01*
X170865119Y-111806878D01*
X170818626Y-111753222D01*
X170808522Y-111682948D01*
X170838016Y-111618368D01*
X170900629Y-111579173D01*
X170943761Y-111567616D01*
X170954053Y-111563870D01*
X171151511Y-111471794D01*
X171161006Y-111466311D01*
X171213048Y-111429871D01*
X171221424Y-111419392D01*
X171214356Y-111405946D01*
X170512812Y-110704402D01*
X170498868Y-110696788D01*
X170497035Y-110696919D01*
X170490420Y-110701170D01*
X169784923Y-111406667D01*
X169778493Y-111418442D01*
X169787789Y-111430457D01*
X169838994Y-111466311D01*
X169848489Y-111471794D01*
X170045947Y-111563870D01*
X170056239Y-111567616D01*
X170099371Y-111579173D01*
X170159994Y-111616125D01*
X170191015Y-111679985D01*
X170182587Y-111750480D01*
X170137384Y-111805227D01*
X170066760Y-111826880D01*
X169679760Y-111826880D01*
X169619818Y-111838803D01*
X169551843Y-111884223D01*
X169506423Y-111952198D01*
X169494500Y-112012140D01*
X169494500Y-113652620D01*
X166296794Y-113652620D01*
X165078877Y-112434703D01*
X165069023Y-112423614D01*
X165053548Y-112403985D01*
X165053546Y-112403983D01*
X165047713Y-112396584D01*
X165039966Y-112391230D01*
X165039964Y-112391228D01*
X165006575Y-112368152D01*
X164998877Y-112362832D01*
X164995665Y-112360537D01*
X164947929Y-112325278D01*
X164941043Y-112322860D01*
X164935036Y-112318708D01*
X164926058Y-112315869D01*
X164926057Y-112315868D01*
X164878457Y-112300814D01*
X164874703Y-112299561D01*
X164827585Y-112283014D01*
X164827577Y-112283013D01*
X164818697Y-112279894D01*
X164811495Y-112279611D01*
X164811283Y-112279569D01*
X164804441Y-112277406D01*
X164797757Y-112276880D01*
X164744456Y-112276880D01*
X164739510Y-112276783D01*
X164739482Y-112276782D01*
X164681832Y-112274517D01*
X164674667Y-112276417D01*
X164666252Y-112276880D01*
X163431500Y-112276880D01*
X163363379Y-112256878D01*
X163316886Y-112203222D01*
X163305500Y-112150880D01*
X163305500Y-111912140D01*
X163293577Y-111852198D01*
X163248157Y-111784223D01*
X163180182Y-111738803D01*
X163120240Y-111726880D01*
X162733240Y-111726880D01*
X162665119Y-111706878D01*
X162618626Y-111653222D01*
X162608522Y-111582948D01*
X162638016Y-111518368D01*
X162700629Y-111479173D01*
X162743761Y-111467616D01*
X162754053Y-111463870D01*
X162951511Y-111371794D01*
X162961006Y-111366311D01*
X163013048Y-111329871D01*
X163021424Y-111319392D01*
X163014356Y-111305946D01*
X162312812Y-110604402D01*
X162298868Y-110596788D01*
X162297035Y-110596919D01*
X162290420Y-110601170D01*
X161584923Y-111306667D01*
X161578493Y-111318442D01*
X161587789Y-111330457D01*
X161638994Y-111366311D01*
X161648489Y-111371794D01*
X161845947Y-111463870D01*
X161856239Y-111467616D01*
X161899371Y-111479173D01*
X161959994Y-111516125D01*
X161991015Y-111579985D01*
X161982587Y-111650480D01*
X161937384Y-111705227D01*
X161866760Y-111726880D01*
X161479760Y-111726880D01*
X161419818Y-111738803D01*
X161351843Y-111784223D01*
X161306423Y-111852198D01*
X161294500Y-111912140D01*
X161294500Y-113552620D01*
X161306423Y-113612562D01*
X161351843Y-113680537D01*
X161419818Y-113725957D01*
X161479760Y-113737880D01*
X163120240Y-113737880D01*
X163180182Y-113725957D01*
X163248157Y-113680537D01*
X163293577Y-113612562D01*
X163305500Y-113552620D01*
X163305500Y-113313880D01*
X163325502Y-113245759D01*
X163379158Y-113199266D01*
X163431500Y-113187880D01*
X164491515Y-113187880D01*
X164559636Y-113207882D01*
X164580610Y-113224785D01*
X167021159Y-115665333D01*
X169440877Y-118085051D01*
X169474903Y-118147363D01*
X169468190Y-118222365D01*
X169463246Y-118234300D01*
X169463245Y-118234305D01*
X169460085Y-118241933D01*
X169439275Y-118400000D01*
X169460085Y-118558067D01*
X169521097Y-118705362D01*
X169618152Y-118831848D01*
X169624702Y-118836874D01*
X169624703Y-118836875D01*
X169654538Y-118859768D01*
X169744637Y-118928903D01*
X169891933Y-118989915D01*
X170050000Y-119010725D01*
X170058188Y-119009647D01*
X170199879Y-118990993D01*
X170208067Y-118989915D01*
X170355363Y-118928903D01*
X170445462Y-118859768D01*
X170475297Y-118836875D01*
X170475298Y-118836874D01*
X170481848Y-118831848D01*
X170578903Y-118705362D01*
X170639915Y-118558067D01*
X170650071Y-118480926D01*
X170678793Y-118415998D01*
X170685898Y-118408277D01*
X171225924Y-117868251D01*
X176648297Y-117868251D01*
X176658050Y-118078975D01*
X176659454Y-118084800D01*
X176705691Y-118276653D01*
X176707474Y-118284053D01*
X176709956Y-118289511D01*
X176709957Y-118289515D01*
X176731879Y-118337729D01*
X176794786Y-118476085D01*
X176916835Y-118648143D01*
X177069217Y-118794017D01*
X177246435Y-118908445D01*
X177297198Y-118928903D01*
X177436524Y-118985053D01*
X177436527Y-118985054D01*
X177442093Y-118987297D01*
X177545462Y-119007484D01*
X177644685Y-119026861D01*
X177644688Y-119026861D01*
X177649131Y-119027729D01*
X177654672Y-119028000D01*
X179610211Y-119028000D01*
X179767496Y-119012994D01*
X179775231Y-119010725D01*
X179964151Y-118955301D01*
X179969915Y-118953610D01*
X180090098Y-118891712D01*
X180152122Y-118859768D01*
X180152125Y-118859766D01*
X180157453Y-118857022D01*
X180233054Y-118797637D01*
X180318626Y-118730420D01*
X180318631Y-118730416D01*
X180323343Y-118726714D01*
X180461599Y-118567387D01*
X180567233Y-118384792D01*
X180611166Y-118258278D01*
X180634466Y-118191181D01*
X180634466Y-118191179D01*
X180636433Y-118185516D01*
X180637294Y-118179579D01*
X180665842Y-117982689D01*
X180665842Y-117982686D01*
X180666703Y-117976749D01*
X180656950Y-117766025D01*
X180644202Y-117713126D01*
X180608932Y-117566780D01*
X180608931Y-117566778D01*
X180607526Y-117560947D01*
X180598163Y-117540353D01*
X180538015Y-117408067D01*
X180520214Y-117368915D01*
X180398165Y-117196857D01*
X180245783Y-117050983D01*
X180068565Y-116936555D01*
X180008632Y-116912401D01*
X179878476Y-116859947D01*
X179878473Y-116859946D01*
X179872907Y-116857703D01*
X179738403Y-116831436D01*
X179670315Y-116818139D01*
X179670312Y-116818139D01*
X179665869Y-116817271D01*
X179660328Y-116817000D01*
X177704789Y-116817000D01*
X177547504Y-116832006D01*
X177345085Y-116891390D01*
X177339746Y-116894140D01*
X177162878Y-116985232D01*
X177162875Y-116985234D01*
X177157547Y-116987978D01*
X177152832Y-116991682D01*
X176996374Y-117114580D01*
X176996369Y-117114584D01*
X176991657Y-117118286D01*
X176853401Y-117277613D01*
X176747767Y-117460208D01*
X176678567Y-117659484D01*
X176677706Y-117665419D01*
X176677706Y-117665421D01*
X176649545Y-117859647D01*
X176648297Y-117868251D01*
X171225924Y-117868251D01*
X172501769Y-116592405D01*
X172564081Y-116558380D01*
X172590864Y-116555500D01*
X181965484Y-116555500D01*
X181980293Y-116556373D01*
X182014470Y-116560418D01*
X182023734Y-116558726D01*
X182023737Y-116558726D01*
X182072869Y-116549753D01*
X182076771Y-116549103D01*
X182126132Y-116541682D01*
X182126134Y-116541681D01*
X182135448Y-116540281D01*
X182142026Y-116537122D01*
X182149211Y-116535810D01*
X182157570Y-116531468D01*
X182201881Y-116508450D01*
X182205423Y-116506680D01*
X182250431Y-116485068D01*
X182250432Y-116485067D01*
X182258921Y-116480991D01*
X182264217Y-116476096D01*
X182264390Y-116475979D01*
X182270760Y-116472670D01*
X182275859Y-116468316D01*
X182313554Y-116430621D01*
X182317120Y-116427192D01*
X182352583Y-116394410D01*
X182359501Y-116388015D01*
X182363225Y-116381604D01*
X182368839Y-116375336D01*
X183047682Y-115696492D01*
X183058772Y-115686637D01*
X183078399Y-115671164D01*
X183085796Y-115665333D01*
X183119577Y-115616457D01*
X183121845Y-115613284D01*
X183151507Y-115573126D01*
X183151509Y-115573123D01*
X183157102Y-115565550D01*
X183159521Y-115558662D01*
X183163672Y-115552656D01*
X183181572Y-115496056D01*
X183182823Y-115492308D01*
X183199365Y-115445203D01*
X183202486Y-115436317D01*
X183202769Y-115429113D01*
X183202810Y-115428905D01*
X183204974Y-115422061D01*
X183205500Y-115415377D01*
X183205500Y-115362076D01*
X183205597Y-115357130D01*
X183207493Y-115308861D01*
X183207863Y-115299452D01*
X183205963Y-115292287D01*
X183205500Y-115283872D01*
X183205500Y-110575487D01*
X183206373Y-110560678D01*
X183209310Y-110535861D01*
X183210417Y-110526508D01*
X183199754Y-110468120D01*
X183199109Y-110464247D01*
X183190281Y-110405530D01*
X183187121Y-110398948D01*
X183185809Y-110391767D01*
X183181471Y-110383416D01*
X183181469Y-110383410D01*
X183158448Y-110339094D01*
X183156678Y-110335551D01*
X183135070Y-110290550D01*
X183135067Y-110290546D01*
X183130991Y-110282057D01*
X183126096Y-110276762D01*
X183125981Y-110276591D01*
X183122670Y-110270217D01*
X183118315Y-110265119D01*
X183080632Y-110227436D01*
X183077203Y-110223870D01*
X183044410Y-110188395D01*
X183038015Y-110181477D01*
X183031603Y-110177753D01*
X183025326Y-110172130D01*
X180596916Y-107743720D01*
X180562890Y-107681408D01*
X180560011Y-107654625D01*
X180560011Y-102487966D01*
X180868257Y-102487966D01*
X180898565Y-102622446D01*
X180901645Y-102632275D01*
X180981770Y-102829603D01*
X180986413Y-102838794D01*
X181097694Y-103020388D01*
X181103777Y-103028699D01*
X181243213Y-103189667D01*
X181250580Y-103196883D01*
X181414434Y-103332916D01*
X181422881Y-103338831D01*
X181606756Y-103446279D01*
X181616042Y-103450729D01*
X181815001Y-103526703D01*
X181824899Y-103529579D01*
X181928250Y-103550606D01*
X181942299Y-103549410D01*
X181946000Y-103539065D01*
X181946000Y-102492115D01*
X181941525Y-102476876D01*
X181940135Y-102475671D01*
X181932452Y-102474000D01*
X180883225Y-102474000D01*
X180869694Y-102477973D01*
X180868257Y-102487966D01*
X180560011Y-102487966D01*
X180560011Y-102289028D01*
X180560884Y-102274218D01*
X180562534Y-102260277D01*
X180564929Y-102240042D01*
X180554262Y-102181634D01*
X180553612Y-102177731D01*
X180552104Y-102167703D01*
X180544792Y-102119063D01*
X180541633Y-102112485D01*
X180540321Y-102105300D01*
X180533412Y-102092000D01*
X180512961Y-102052630D01*
X180511191Y-102049088D01*
X180489579Y-102004080D01*
X180489578Y-102004079D01*
X180485502Y-101995590D01*
X180480606Y-101990293D01*
X180480491Y-101990123D01*
X180477181Y-101983751D01*
X180472827Y-101978653D01*
X180435143Y-101940969D01*
X180431714Y-101937403D01*
X180419020Y-101923671D01*
X180392526Y-101895010D01*
X180393285Y-101894309D01*
X180357551Y-101843156D01*
X180350989Y-101803023D01*
X180350989Y-99639028D01*
X180351862Y-99624218D01*
X180354800Y-99599394D01*
X180355907Y-99590042D01*
X180345240Y-99531634D01*
X180344590Y-99527731D01*
X180337433Y-99480127D01*
X180335770Y-99469063D01*
X180332611Y-99462485D01*
X180331299Y-99455300D01*
X180315477Y-99424842D01*
X180303939Y-99402630D01*
X180302169Y-99399088D01*
X180280557Y-99354080D01*
X180280556Y-99354079D01*
X180276480Y-99345590D01*
X180271584Y-99340293D01*
X180271469Y-99340123D01*
X180268159Y-99333751D01*
X180263805Y-99328653D01*
X180226121Y-99290969D01*
X180222692Y-99287403D01*
X180189899Y-99251928D01*
X180183504Y-99245010D01*
X180177092Y-99241286D01*
X180170815Y-99235663D01*
X179887894Y-98952742D01*
X179853868Y-98890430D01*
X179850989Y-98863647D01*
X179850989Y-97125192D01*
X181139496Y-97125192D01*
X181141035Y-97143522D01*
X181154045Y-97298447D01*
X181156817Y-97331460D01*
X181158515Y-97337381D01*
X181158515Y-97337382D01*
X181158611Y-97337715D01*
X181213873Y-97530435D01*
X181308489Y-97714540D01*
X181437063Y-97876760D01*
X181441756Y-97880754D01*
X181441757Y-97880755D01*
X181468363Y-97903398D01*
X181594697Y-98010917D01*
X181775387Y-98111901D01*
X181972250Y-98175865D01*
X182177788Y-98200374D01*
X182183923Y-98199902D01*
X182183925Y-98199902D01*
X182378030Y-98184967D01*
X182378034Y-98184966D01*
X182384172Y-98184494D01*
X182390105Y-98182838D01*
X182390108Y-98182837D01*
X182577607Y-98130486D01*
X182577606Y-98130486D01*
X182583542Y-98128829D01*
X182768302Y-98035500D01*
X182931415Y-97908062D01*
X183066670Y-97751368D01*
X183168913Y-97571388D01*
X183234250Y-97374976D01*
X183260193Y-97169614D01*
X183260607Y-97140000D01*
X183240408Y-96933994D01*
X183180580Y-96735834D01*
X183083402Y-96553069D01*
X183079511Y-96548299D01*
X183079509Y-96548295D01*
X182956471Y-96397435D01*
X182956468Y-96397432D01*
X182952576Y-96392660D01*
X182940882Y-96382986D01*
X182797834Y-96264646D01*
X182797831Y-96264644D01*
X182793084Y-96260717D01*
X182611002Y-96162265D01*
X182512134Y-96131661D01*
X182419152Y-96102878D01*
X182419149Y-96102877D01*
X182413265Y-96101056D01*
X182407140Y-96100412D01*
X182407139Y-96100412D01*
X182213532Y-96080063D01*
X182213531Y-96080063D01*
X182207404Y-96079419D01*
X182120465Y-96087331D01*
X182007401Y-96097620D01*
X182007398Y-96097621D01*
X182001262Y-96098179D01*
X181802690Y-96156622D01*
X181773299Y-96171987D01*
X181624711Y-96249667D01*
X181624707Y-96249670D01*
X181619251Y-96252522D01*
X181457932Y-96382225D01*
X181324879Y-96540792D01*
X181321915Y-96546184D01*
X181321912Y-96546188D01*
X181280780Y-96621008D01*
X181225159Y-96722182D01*
X181223298Y-96728049D01*
X181223297Y-96728051D01*
X181204888Y-96786085D01*
X181162570Y-96919487D01*
X181139496Y-97125192D01*
X179850989Y-97125192D01*
X179850989Y-95470240D01*
X181144500Y-95470240D01*
X181156423Y-95530182D01*
X181201843Y-95598157D01*
X181269818Y-95643577D01*
X181329760Y-95655500D01*
X183070240Y-95655500D01*
X183130182Y-95643577D01*
X183198157Y-95598157D01*
X183243577Y-95530182D01*
X183255500Y-95470240D01*
X183255500Y-93729760D01*
X183243577Y-93669818D01*
X183198157Y-93601843D01*
X183130182Y-93556423D01*
X183070240Y-93544500D01*
X181329760Y-93544500D01*
X181269818Y-93556423D01*
X181201843Y-93601843D01*
X181156423Y-93669818D01*
X181144500Y-93729760D01*
X181144500Y-95470240D01*
X179850989Y-95470240D01*
X179850989Y-93345376D01*
X179870991Y-93277255D01*
X179887894Y-93256281D01*
X180668754Y-92475421D01*
X181451907Y-91692267D01*
X181514218Y-91658243D01*
X181585033Y-91663307D01*
X181641869Y-91705854D01*
X181666680Y-91772374D01*
X181667001Y-91781363D01*
X181667001Y-91797095D01*
X181667338Y-91803614D01*
X181677257Y-91899206D01*
X181680149Y-91912600D01*
X181731588Y-92066784D01*
X181737761Y-92079962D01*
X181823063Y-92217807D01*
X181832099Y-92229208D01*
X181946829Y-92343739D01*
X181958240Y-92352751D01*
X182096243Y-92437816D01*
X182109424Y-92443963D01*
X182263710Y-92495138D01*
X182277086Y-92498005D01*
X182371438Y-92507672D01*
X182377854Y-92508000D01*
X182627885Y-92508000D01*
X182643124Y-92503525D01*
X182644329Y-92502135D01*
X182646000Y-92494452D01*
X182646000Y-92489884D01*
X183154000Y-92489884D01*
X183158475Y-92505123D01*
X183159865Y-92506328D01*
X183167548Y-92507999D01*
X183422095Y-92507999D01*
X183428614Y-92507662D01*
X183524206Y-92497743D01*
X183537600Y-92494851D01*
X183691784Y-92443412D01*
X183704962Y-92437239D01*
X183842807Y-92351937D01*
X183854208Y-92342901D01*
X183968739Y-92228171D01*
X183977751Y-92216760D01*
X184062816Y-92078757D01*
X184068963Y-92065576D01*
X184120138Y-91911290D01*
X184123005Y-91897914D01*
X184132672Y-91803562D01*
X184133000Y-91797146D01*
X184133000Y-91772115D01*
X184128525Y-91756876D01*
X184127135Y-91755671D01*
X184119452Y-91754000D01*
X183172115Y-91754000D01*
X183156876Y-91758475D01*
X183155671Y-91759865D01*
X183154000Y-91767548D01*
X183154000Y-92489884D01*
X182646000Y-92489884D01*
X182646000Y-91372000D01*
X182666002Y-91303879D01*
X182719658Y-91257386D01*
X182772000Y-91246000D01*
X184114884Y-91246000D01*
X184130123Y-91241525D01*
X184131328Y-91240135D01*
X184132999Y-91232452D01*
X184132999Y-91202905D01*
X184132662Y-91196386D01*
X184122743Y-91100794D01*
X184119851Y-91087400D01*
X184068412Y-90933216D01*
X184062239Y-90920038D01*
X183976937Y-90782193D01*
X183967901Y-90770792D01*
X183853171Y-90656261D01*
X183841760Y-90647249D01*
X183703757Y-90562184D01*
X183690574Y-90556036D01*
X183551668Y-90509963D01*
X183493308Y-90469532D01*
X183466071Y-90403968D01*
X183478604Y-90334087D01*
X183526929Y-90282075D01*
X183549585Y-90271488D01*
X183551572Y-90270790D01*
X183590550Y-90257102D01*
X183700725Y-90175725D01*
X183782102Y-90065550D01*
X183826585Y-89938881D01*
X183868027Y-89881239D01*
X183934056Y-89855151D01*
X183961911Y-89855711D01*
X183991810Y-89859647D01*
X183991812Y-89859647D01*
X184000000Y-89860725D01*
X184008188Y-89859647D01*
X184042339Y-89855151D01*
X184158067Y-89839915D01*
X184165694Y-89836756D01*
X184165697Y-89836755D01*
X184301882Y-89780345D01*
X184372472Y-89772756D01*
X184435959Y-89804535D01*
X184472186Y-89865593D01*
X184476100Y-89896754D01*
X184476100Y-101007736D01*
X184456098Y-101075857D01*
X184402442Y-101122350D01*
X184332168Y-101132454D01*
X184267588Y-101102960D01*
X184261005Y-101096831D01*
X183250561Y-100086387D01*
X183216535Y-100024075D01*
X183220097Y-99957521D01*
X183232305Y-99920823D01*
X183234250Y-99914976D01*
X183260193Y-99709614D01*
X183260607Y-99680000D01*
X183240408Y-99473994D01*
X183180580Y-99275834D01*
X183091958Y-99109160D01*
X183086296Y-99098511D01*
X183086294Y-99098508D01*
X183083402Y-99093069D01*
X183079511Y-99088299D01*
X183079509Y-99088295D01*
X182956471Y-98937435D01*
X182956468Y-98937432D01*
X182952576Y-98932660D01*
X182945667Y-98926944D01*
X182797834Y-98804646D01*
X182797831Y-98804644D01*
X182793084Y-98800717D01*
X182611002Y-98702265D01*
X182512133Y-98671660D01*
X182419152Y-98642878D01*
X182419149Y-98642877D01*
X182413265Y-98641056D01*
X182407140Y-98640412D01*
X182407139Y-98640412D01*
X182213532Y-98620063D01*
X182213531Y-98620063D01*
X182207404Y-98619419D01*
X182120465Y-98627331D01*
X182007401Y-98637620D01*
X182007398Y-98637621D01*
X182001262Y-98638179D01*
X181802690Y-98696622D01*
X181773299Y-98711987D01*
X181624711Y-98789667D01*
X181624707Y-98789670D01*
X181619251Y-98792522D01*
X181457932Y-98922225D01*
X181324879Y-99080792D01*
X181321915Y-99086184D01*
X181321912Y-99086188D01*
X181256068Y-99205959D01*
X181225159Y-99262182D01*
X181223298Y-99268049D01*
X181223297Y-99268051D01*
X181169911Y-99436345D01*
X181162570Y-99459487D01*
X181139496Y-99665192D01*
X181141035Y-99683522D01*
X181154627Y-99845376D01*
X181156817Y-99871460D01*
X181158515Y-99877381D01*
X181158515Y-99877382D01*
X181211293Y-100061437D01*
X181213873Y-100070435D01*
X181234428Y-100110431D01*
X181280422Y-100199926D01*
X181308489Y-100254540D01*
X181437063Y-100416760D01*
X181594697Y-100550917D01*
X181600075Y-100553923D01*
X181600077Y-100553924D01*
X181685042Y-100601409D01*
X181775387Y-100651901D01*
X181781247Y-100653805D01*
X181834371Y-100671066D01*
X181892977Y-100711139D01*
X181920614Y-100776536D01*
X181908507Y-100846493D01*
X181860501Y-100898799D01*
X181834580Y-100910664D01*
X181676868Y-100962212D01*
X181667359Y-100966209D01*
X181478463Y-101064542D01*
X181469738Y-101070036D01*
X181299433Y-101197905D01*
X181291726Y-101204748D01*
X181144590Y-101358717D01*
X181138104Y-101366727D01*
X181018098Y-101542649D01*
X181013000Y-101551623D01*
X180923338Y-101744783D01*
X180919775Y-101754470D01*
X180864389Y-101954183D01*
X180865912Y-101962607D01*
X180878292Y-101966000D01*
X182328000Y-101966000D01*
X182396121Y-101986002D01*
X182442614Y-102039658D01*
X182454000Y-102092000D01*
X182454000Y-103538517D01*
X182458064Y-103552359D01*
X182471478Y-103554393D01*
X182478184Y-103553534D01*
X182488262Y-103551392D01*
X182692255Y-103490191D01*
X182701842Y-103486433D01*
X182893095Y-103392739D01*
X182901945Y-103387464D01*
X183075328Y-103263792D01*
X183083200Y-103257139D01*
X183234052Y-103106812D01*
X183240730Y-103098965D01*
X183365003Y-102926020D01*
X183370313Y-102917183D01*
X183464670Y-102726267D01*
X183468469Y-102716672D01*
X183477453Y-102687103D01*
X183516394Y-102627739D01*
X183581248Y-102598852D01*
X183651424Y-102609614D01*
X183704642Y-102656607D01*
X183724011Y-102723732D01*
X183724011Y-120329625D01*
X183704009Y-120397746D01*
X183687106Y-120418720D01*
X182865731Y-121240095D01*
X182803419Y-121274121D01*
X182776636Y-121277000D01*
X180645934Y-121277000D01*
X180577813Y-121256998D01*
X180531235Y-121203154D01*
X180520214Y-121178915D01*
X180398165Y-121006857D01*
X180265526Y-120879883D01*
X180250113Y-120865128D01*
X180245783Y-120860983D01*
X180068565Y-120746555D01*
X180008632Y-120722401D01*
X179878476Y-120669947D01*
X179878473Y-120669946D01*
X179872907Y-120667703D01*
X179749976Y-120643696D01*
X179670315Y-120628139D01*
X179670312Y-120628139D01*
X179665869Y-120627271D01*
X179660328Y-120627000D01*
X177704789Y-120627000D01*
X177547504Y-120642006D01*
X177345085Y-120701390D01*
X177339746Y-120704140D01*
X177162878Y-120795232D01*
X177162875Y-120795234D01*
X177157547Y-120797978D01*
X177109961Y-120835357D01*
X176996374Y-120924580D01*
X176996369Y-120924584D01*
X176991657Y-120928286D01*
X176853401Y-121087613D01*
X176747767Y-121270208D01*
X176718031Y-121355840D01*
X176683461Y-121455392D01*
X176678567Y-121469484D01*
X176677706Y-121475419D01*
X176677706Y-121475421D01*
X176653193Y-121644487D01*
X176648297Y-121678251D01*
X176658050Y-121888975D01*
X176660636Y-121899706D01*
X176700882Y-122066699D01*
X176707474Y-122094053D01*
X176709956Y-122099511D01*
X176709957Y-122099515D01*
X176747281Y-122181603D01*
X176794786Y-122286085D01*
X176916835Y-122458143D01*
X177069217Y-122604017D01*
X177246435Y-122718445D01*
X177252001Y-122720688D01*
X177436524Y-122795053D01*
X177436527Y-122795054D01*
X177442093Y-122797297D01*
X177545462Y-122817484D01*
X177644685Y-122836861D01*
X177644688Y-122836861D01*
X177649131Y-122837729D01*
X177654672Y-122838000D01*
X179610211Y-122838000D01*
X179767496Y-122822994D01*
X179969915Y-122763610D01*
X180063925Y-122715192D01*
X180152122Y-122669768D01*
X180152125Y-122669766D01*
X180157453Y-122667022D01*
X180209442Y-122626184D01*
X180318626Y-122540420D01*
X180318631Y-122540416D01*
X180323343Y-122536714D01*
X180461599Y-122377387D01*
X180534770Y-122250905D01*
X180586196Y-122201956D01*
X180643835Y-122188000D01*
X182982984Y-122188000D01*
X182997793Y-122188873D01*
X183031970Y-122192918D01*
X183041234Y-122191226D01*
X183041237Y-122191226D01*
X183090369Y-122182253D01*
X183094271Y-122181603D01*
X183143632Y-122174182D01*
X183143634Y-122174181D01*
X183152948Y-122172781D01*
X183159526Y-122169622D01*
X183166711Y-122168310D01*
X183219381Y-122140950D01*
X183222923Y-122139180D01*
X183267931Y-122117568D01*
X183267932Y-122117567D01*
X183276421Y-122113491D01*
X183281717Y-122108596D01*
X183281890Y-122108479D01*
X183288260Y-122105170D01*
X183293359Y-122100816D01*
X183331054Y-122063121D01*
X183334620Y-122059692D01*
X183370083Y-122026910D01*
X183377001Y-122020515D01*
X183380726Y-122014103D01*
X183386334Y-122007841D01*
X184261007Y-121133168D01*
X184323317Y-121099144D01*
X184394132Y-121104208D01*
X184450968Y-121146755D01*
X184475779Y-121213275D01*
X184476100Y-121222264D01*
X184476100Y-125852600D01*
X184456098Y-125920721D01*
X184402442Y-125967214D01*
X184350100Y-125978600D01*
X112652100Y-125978600D01*
X112583979Y-125958598D01*
X112537486Y-125904942D01*
X112526100Y-125852600D01*
X112526100Y-123264470D01*
X114289582Y-123264470D01*
X114291274Y-123273734D01*
X114291274Y-123273737D01*
X114300247Y-123322869D01*
X114300897Y-123326771D01*
X114309719Y-123385448D01*
X114312878Y-123392026D01*
X114314190Y-123399211D01*
X114318532Y-123407569D01*
X114318532Y-123407570D01*
X114341550Y-123451881D01*
X114343320Y-123455423D01*
X114369009Y-123508921D01*
X114373904Y-123514217D01*
X114374021Y-123514390D01*
X114377330Y-123520760D01*
X114381684Y-123525859D01*
X114419379Y-123563554D01*
X114422808Y-123567120D01*
X114461985Y-123609501D01*
X114468396Y-123613225D01*
X114474664Y-123618839D01*
X115386008Y-124530182D01*
X115395863Y-124541272D01*
X115417167Y-124568296D01*
X115424914Y-124573650D01*
X115424916Y-124573652D01*
X115451176Y-124591801D01*
X115462865Y-124599879D01*
X115465993Y-124602041D01*
X115469205Y-124604336D01*
X115516951Y-124639602D01*
X115523837Y-124642020D01*
X115529844Y-124646172D01*
X115538824Y-124649012D01*
X115538828Y-124649014D01*
X115586446Y-124664073D01*
X115590177Y-124665317D01*
X115646184Y-124684986D01*
X115653384Y-124685269D01*
X115653598Y-124685311D01*
X115660439Y-124687474D01*
X115667123Y-124688000D01*
X115720424Y-124688000D01*
X115725370Y-124688097D01*
X115783048Y-124690363D01*
X115790213Y-124688463D01*
X115798628Y-124688000D01*
X115853500Y-124688000D01*
X115921621Y-124708002D01*
X115968114Y-124761658D01*
X115979500Y-124814000D01*
X115979500Y-124936930D01*
X115982514Y-124968816D01*
X116027898Y-125098050D01*
X116109275Y-125208225D01*
X116219450Y-125289602D01*
X116348684Y-125334986D01*
X116356326Y-125335708D01*
X116356329Y-125335709D01*
X116371283Y-125337122D01*
X116380570Y-125338000D01*
X119589430Y-125338000D01*
X119598717Y-125337122D01*
X119613671Y-125335709D01*
X119613674Y-125335708D01*
X119621316Y-125334986D01*
X119750550Y-125289602D01*
X119860725Y-125208225D01*
X119942102Y-125098050D01*
X119987486Y-124968816D01*
X119990500Y-124936930D01*
X119990500Y-123528070D01*
X119987486Y-123496184D01*
X119942102Y-123366950D01*
X119860725Y-123256775D01*
X119750550Y-123175398D01*
X119621316Y-123130014D01*
X119613674Y-123129292D01*
X119613671Y-123129291D01*
X119598717Y-123127878D01*
X119589430Y-123127000D01*
X116380570Y-123127000D01*
X116371283Y-123127878D01*
X116356329Y-123129291D01*
X116356326Y-123129292D01*
X116348684Y-123130014D01*
X116219450Y-123175398D01*
X116109275Y-123256775D01*
X116027898Y-123366950D01*
X115982514Y-123496184D01*
X115979500Y-123528070D01*
X115979500Y-123531136D01*
X115979494Y-123531155D01*
X115979360Y-123534004D01*
X115978667Y-123533971D01*
X115959498Y-123599257D01*
X115905842Y-123645750D01*
X115835568Y-123655854D01*
X115770988Y-123626360D01*
X115764405Y-123620231D01*
X115242405Y-123098231D01*
X115208379Y-123035919D01*
X115205500Y-123009136D01*
X115205500Y-121001080D01*
X115702662Y-121001080D01*
X115730413Y-121133340D01*
X115733473Y-121143537D01*
X115817315Y-121355840D01*
X115822049Y-121365376D01*
X115940468Y-121560525D01*
X115946734Y-121569118D01*
X116096342Y-121741527D01*
X116103972Y-121748947D01*
X116280488Y-121893680D01*
X116289255Y-121899706D01*
X116487633Y-122012629D01*
X116497297Y-122017095D01*
X116711868Y-122094981D01*
X116722135Y-122097751D01*
X116947932Y-122138581D01*
X116956162Y-122139516D01*
X116975550Y-122140430D01*
X116978526Y-122140500D01*
X117712885Y-122140500D01*
X117728124Y-122136025D01*
X117729329Y-122134635D01*
X117731000Y-122126952D01*
X117731000Y-122122385D01*
X118239000Y-122122385D01*
X118243475Y-122137624D01*
X118244865Y-122138829D01*
X118252548Y-122140500D01*
X118942340Y-122140500D01*
X118947649Y-122140275D01*
X119117771Y-122125840D01*
X119128259Y-122124048D01*
X119349211Y-122066699D01*
X119359239Y-122063167D01*
X119567363Y-121969415D01*
X119576669Y-121964235D01*
X119746062Y-121850192D01*
X146939496Y-121850192D01*
X146941035Y-121868522D01*
X146954336Y-122026910D01*
X146956817Y-122056460D01*
X146958515Y-122062381D01*
X146958515Y-122062382D01*
X146996484Y-122194792D01*
X147013873Y-122255435D01*
X147108489Y-122439540D01*
X147237063Y-122601760D01*
X147241756Y-122605754D01*
X147241757Y-122605755D01*
X147313746Y-122667022D01*
X147394697Y-122735917D01*
X147400075Y-122738923D01*
X147400077Y-122738924D01*
X147485042Y-122786409D01*
X147575387Y-122836901D01*
X147772250Y-122900865D01*
X147977788Y-122925374D01*
X147983923Y-122924902D01*
X147983925Y-122924902D01*
X148178030Y-122909967D01*
X148178034Y-122909966D01*
X148184172Y-122909494D01*
X148190105Y-122907838D01*
X148190108Y-122907837D01*
X148377607Y-122855486D01*
X148377606Y-122855486D01*
X148383542Y-122853829D01*
X148568302Y-122760500D01*
X148731415Y-122633062D01*
X148866670Y-122476368D01*
X148968913Y-122296388D01*
X149034250Y-122099976D01*
X149060193Y-121894614D01*
X149060607Y-121865000D01*
X149040408Y-121658994D01*
X148980580Y-121460834D01*
X148883402Y-121278069D01*
X148879511Y-121273299D01*
X148879509Y-121273295D01*
X148756471Y-121122435D01*
X148756468Y-121122432D01*
X148752576Y-121117660D01*
X148745667Y-121111944D01*
X148597834Y-120989646D01*
X148597831Y-120989644D01*
X148593084Y-120985717D01*
X148411002Y-120887265D01*
X148312134Y-120856661D01*
X148219152Y-120827878D01*
X148219149Y-120827877D01*
X148213265Y-120826056D01*
X148207140Y-120825412D01*
X148207139Y-120825412D01*
X148013532Y-120805063D01*
X148013531Y-120805063D01*
X148007404Y-120804419D01*
X147920465Y-120812331D01*
X147807401Y-120822620D01*
X147807398Y-120822621D01*
X147801262Y-120823179D01*
X147602690Y-120881622D01*
X147573299Y-120896987D01*
X147424711Y-120974667D01*
X147424707Y-120974670D01*
X147419251Y-120977522D01*
X147414451Y-120981382D01*
X147414450Y-120981382D01*
X147404172Y-120989646D01*
X147257932Y-121107225D01*
X147124879Y-121265792D01*
X147121915Y-121271184D01*
X147121912Y-121271188D01*
X147070132Y-121365376D01*
X147025159Y-121447182D01*
X147023298Y-121453049D01*
X147023297Y-121453051D01*
X146964432Y-121638617D01*
X146962570Y-121644487D01*
X146939496Y-121850192D01*
X119746062Y-121850192D01*
X119766024Y-121836753D01*
X119774307Y-121830094D01*
X119939478Y-121672529D01*
X119946530Y-121664558D01*
X120082790Y-121481418D01*
X120088394Y-121472381D01*
X120191851Y-121268894D01*
X120195852Y-121259041D01*
X120263544Y-121041039D01*
X120265828Y-121030652D01*
X120269300Y-121004457D01*
X120267104Y-120990293D01*
X120253919Y-120986500D01*
X118257115Y-120986500D01*
X118241876Y-120990975D01*
X118240671Y-120992365D01*
X118239000Y-121000048D01*
X118239000Y-122122385D01*
X117731000Y-122122385D01*
X117731000Y-121004615D01*
X117726525Y-120989376D01*
X117725135Y-120988171D01*
X117717452Y-120986500D01*
X115717718Y-120986500D01*
X115704187Y-120990473D01*
X115702662Y-121001080D01*
X115205500Y-121001080D01*
X115205500Y-120460543D01*
X115700700Y-120460543D01*
X115702896Y-120474707D01*
X115716081Y-120478500D01*
X117712885Y-120478500D01*
X117728124Y-120474025D01*
X117729329Y-120472635D01*
X117731000Y-120464952D01*
X117731000Y-120460385D01*
X118239000Y-120460385D01*
X118243475Y-120475624D01*
X118244865Y-120476829D01*
X118252548Y-120478500D01*
X120252282Y-120478500D01*
X120265813Y-120474527D01*
X120267338Y-120463920D01*
X120239587Y-120331660D01*
X120236527Y-120321463D01*
X120186679Y-120195240D01*
X146944500Y-120195240D01*
X146956423Y-120255182D01*
X147001843Y-120323157D01*
X147069818Y-120368577D01*
X147129760Y-120380500D01*
X148870240Y-120380500D01*
X148930182Y-120368577D01*
X148998157Y-120323157D01*
X149043577Y-120255182D01*
X149055500Y-120195240D01*
X149055500Y-119781500D01*
X149075502Y-119713379D01*
X149129158Y-119666886D01*
X149181500Y-119655500D01*
X152655082Y-119655500D01*
X152666064Y-119655980D01*
X152693264Y-119658360D01*
X152693265Y-119658360D01*
X152704249Y-119659321D01*
X152714900Y-119656467D01*
X152714902Y-119656467D01*
X152741290Y-119649397D01*
X152752018Y-119647019D01*
X152778924Y-119642274D01*
X152778927Y-119642273D01*
X152789781Y-119640359D01*
X152799327Y-119634848D01*
X152802814Y-119633579D01*
X152806182Y-119632009D01*
X152816830Y-119629155D01*
X152825859Y-119622833D01*
X152825863Y-119622831D01*
X152848242Y-119607161D01*
X152857512Y-119601255D01*
X152881169Y-119587597D01*
X152881173Y-119587594D01*
X152890718Y-119582083D01*
X152915364Y-119552711D01*
X152922791Y-119544607D01*
X154317398Y-118150000D01*
X156089275Y-118150000D01*
X156090353Y-118158187D01*
X156090353Y-118158188D01*
X156106259Y-118279002D01*
X156110085Y-118308067D01*
X156171097Y-118455362D01*
X156268152Y-118581848D01*
X156394637Y-118678903D01*
X156541933Y-118739915D01*
X156550121Y-118740993D01*
X156593280Y-118746675D01*
X156700000Y-118760725D01*
X156765049Y-118752161D01*
X156835197Y-118763100D01*
X156870590Y-118787988D01*
X157932595Y-119849993D01*
X157966621Y-119912305D01*
X157969500Y-119939088D01*
X157969500Y-123510912D01*
X157949498Y-123579033D01*
X157932595Y-123600007D01*
X157683883Y-123848719D01*
X157621571Y-123882745D01*
X157546571Y-123876033D01*
X157515700Y-123863246D01*
X157515695Y-123863245D01*
X157508067Y-123860085D01*
X157350000Y-123839275D01*
X157191933Y-123860085D01*
X157044638Y-123921097D01*
X156918152Y-124018152D01*
X156821097Y-124144638D01*
X156760085Y-124291933D01*
X156739275Y-124450000D01*
X156760085Y-124608067D01*
X156821097Y-124755362D01*
X156918152Y-124881848D01*
X157044637Y-124978903D01*
X157191933Y-125039915D01*
X157350000Y-125060725D01*
X157358188Y-125059647D01*
X157499879Y-125040993D01*
X157508067Y-125039915D01*
X157655363Y-124978903D01*
X157781848Y-124881848D01*
X157878903Y-124755362D01*
X157939915Y-124608067D01*
X157946550Y-124557670D01*
X157975272Y-124492743D01*
X157982377Y-124485021D01*
X158519607Y-123947791D01*
X158527711Y-123940364D01*
X158548638Y-123922804D01*
X158557083Y-123915718D01*
X158562594Y-123906173D01*
X158562597Y-123906169D01*
X158576255Y-123882512D01*
X158582161Y-123873242D01*
X158597831Y-123850863D01*
X158597833Y-123850859D01*
X158604155Y-123841830D01*
X158607008Y-123831185D01*
X158608575Y-123827824D01*
X158609847Y-123824329D01*
X158615359Y-123814781D01*
X158622017Y-123777020D01*
X158624397Y-123766287D01*
X158631466Y-123739904D01*
X158634321Y-123729250D01*
X158630980Y-123691065D01*
X158630500Y-123680083D01*
X158630500Y-119769932D01*
X158630979Y-119758951D01*
X158633361Y-119731727D01*
X158633361Y-119731726D01*
X158634321Y-119720751D01*
X158631469Y-119710108D01*
X158631469Y-119710104D01*
X158624397Y-119683710D01*
X158622019Y-119672982D01*
X158617274Y-119646076D01*
X158617273Y-119646073D01*
X158615359Y-119635219D01*
X158609848Y-119625673D01*
X158608579Y-119622186D01*
X158607009Y-119618818D01*
X158604155Y-119608170D01*
X158597833Y-119599141D01*
X158597831Y-119599137D01*
X158582161Y-119576758D01*
X158576255Y-119567488D01*
X158562597Y-119543831D01*
X158562594Y-119543827D01*
X158557083Y-119534282D01*
X158527711Y-119509636D01*
X158519607Y-119502209D01*
X157758412Y-118741014D01*
X160911500Y-118741014D01*
X160926189Y-118885621D01*
X160984237Y-119070853D01*
X161078345Y-119240629D01*
X161204670Y-119388015D01*
X161281360Y-119447502D01*
X161353007Y-119503077D01*
X161353010Y-119503079D01*
X161358051Y-119506989D01*
X161363777Y-119509807D01*
X161363781Y-119509809D01*
X161510662Y-119582083D01*
X161532222Y-119592692D01*
X161619131Y-119615330D01*
X161713886Y-119640012D01*
X161713889Y-119640012D01*
X161720068Y-119641622D01*
X161803632Y-119646001D01*
X161907536Y-119651447D01*
X161907540Y-119651447D01*
X161913917Y-119651781D01*
X162105849Y-119622754D01*
X162118479Y-119618107D01*
X162282034Y-119557931D01*
X162282035Y-119557931D01*
X162288024Y-119555727D01*
X162453000Y-119453437D01*
X162572939Y-119340016D01*
X162589398Y-119324452D01*
X162589399Y-119324451D01*
X162594039Y-119320063D01*
X162705379Y-119161054D01*
X162782471Y-118982905D01*
X162808196Y-118859768D01*
X162821176Y-118797637D01*
X162821176Y-118797633D01*
X162822167Y-118792892D01*
X162822500Y-118786538D01*
X162822500Y-118746675D01*
X163149000Y-118746675D01*
X163149249Y-118752270D01*
X163163378Y-118910578D01*
X163165360Y-118921592D01*
X163221651Y-119127360D01*
X163225549Y-119137841D01*
X163317397Y-119330403D01*
X163323082Y-119340016D01*
X163447575Y-119513267D01*
X163454883Y-119521733D01*
X163608082Y-119670192D01*
X163616779Y-119677235D01*
X163793844Y-119796219D01*
X163803642Y-119801605D01*
X163998990Y-119887357D01*
X164009582Y-119890922D01*
X164135384Y-119921124D01*
X164149470Y-119920419D01*
X164153000Y-119911540D01*
X164153000Y-119910911D01*
X164661000Y-119910911D01*
X164665105Y-119924893D01*
X164674728Y-119926386D01*
X164674973Y-119926334D01*
X164878883Y-119863602D01*
X164889229Y-119859381D01*
X165078814Y-119761529D01*
X165088245Y-119755543D01*
X165257501Y-119625668D01*
X165265724Y-119618107D01*
X165407097Y-119462740D01*
X165991500Y-119462740D01*
X166003423Y-119522682D01*
X166048843Y-119590657D01*
X166116818Y-119636077D01*
X166176760Y-119648000D01*
X167717240Y-119648000D01*
X167777182Y-119636077D01*
X167845157Y-119590657D01*
X167890577Y-119522682D01*
X167902500Y-119462740D01*
X167902500Y-117122260D01*
X167890577Y-117062318D01*
X167845157Y-116994343D01*
X167777182Y-116948923D01*
X167717240Y-116937000D01*
X166176760Y-116937000D01*
X166116818Y-116948923D01*
X166048843Y-116994343D01*
X166003423Y-117062318D01*
X165991500Y-117122260D01*
X165991500Y-119462740D01*
X165407097Y-119462740D01*
X165409312Y-119460306D01*
X165416067Y-119451406D01*
X165529434Y-119270685D01*
X165534511Y-119260719D01*
X165614080Y-119062786D01*
X165617315Y-119052071D01*
X165660777Y-118842199D01*
X165661980Y-118833062D01*
X165664895Y-118782510D01*
X165665000Y-118778863D01*
X165665000Y-118564615D01*
X165660525Y-118549376D01*
X165659135Y-118548171D01*
X165651452Y-118546500D01*
X164679115Y-118546500D01*
X164663876Y-118550975D01*
X164662671Y-118552365D01*
X164661000Y-118560048D01*
X164661000Y-119910911D01*
X164153000Y-119910911D01*
X164153000Y-118564615D01*
X164148525Y-118549376D01*
X164147135Y-118548171D01*
X164139452Y-118546500D01*
X163167115Y-118546500D01*
X163151876Y-118550975D01*
X163150671Y-118552365D01*
X163149000Y-118560048D01*
X163149000Y-118746675D01*
X162822500Y-118746675D01*
X162822500Y-118020385D01*
X163149000Y-118020385D01*
X163153475Y-118035624D01*
X163154865Y-118036829D01*
X163162548Y-118038500D01*
X164134885Y-118038500D01*
X164150124Y-118034025D01*
X164151329Y-118032635D01*
X164153000Y-118024952D01*
X164153000Y-118020385D01*
X164661000Y-118020385D01*
X164665475Y-118035624D01*
X164666865Y-118036829D01*
X164674548Y-118038500D01*
X165646885Y-118038500D01*
X165662124Y-118034025D01*
X165663329Y-118032635D01*
X165665000Y-118024952D01*
X165665000Y-117838325D01*
X165664751Y-117832730D01*
X165650622Y-117674422D01*
X165648640Y-117663408D01*
X165592349Y-117457640D01*
X165588451Y-117447159D01*
X165496603Y-117254597D01*
X165490918Y-117244984D01*
X165366425Y-117071733D01*
X165359117Y-117063267D01*
X165205918Y-116914808D01*
X165197221Y-116907765D01*
X165020156Y-116788781D01*
X165010358Y-116783395D01*
X164815010Y-116697643D01*
X164804418Y-116694078D01*
X164678616Y-116663876D01*
X164664530Y-116664581D01*
X164661000Y-116673460D01*
X164661000Y-118020385D01*
X164153000Y-118020385D01*
X164153000Y-116674089D01*
X164148895Y-116660107D01*
X164139272Y-116658614D01*
X164139027Y-116658666D01*
X163935117Y-116721398D01*
X163924771Y-116725619D01*
X163735186Y-116823471D01*
X163725755Y-116829457D01*
X163556499Y-116959332D01*
X163548276Y-116966893D01*
X163404688Y-117124694D01*
X163397933Y-117133594D01*
X163284566Y-117314315D01*
X163279489Y-117324281D01*
X163199920Y-117522214D01*
X163196685Y-117532929D01*
X163153223Y-117742801D01*
X163152020Y-117751938D01*
X163149105Y-117802490D01*
X163149000Y-117806137D01*
X163149000Y-118020385D01*
X162822500Y-118020385D01*
X162822500Y-117843986D01*
X162807811Y-117699379D01*
X162749763Y-117514147D01*
X162655655Y-117344371D01*
X162529330Y-117196985D01*
X162450645Y-117135951D01*
X162380993Y-117081923D01*
X162380990Y-117081921D01*
X162375949Y-117078011D01*
X162370223Y-117075193D01*
X162370219Y-117075191D01*
X162207507Y-116995127D01*
X162201778Y-116992308D01*
X162086368Y-116962246D01*
X162020114Y-116944988D01*
X162020111Y-116944988D01*
X162013932Y-116943378D01*
X161930368Y-116938999D01*
X161826464Y-116933553D01*
X161826460Y-116933553D01*
X161820083Y-116933219D01*
X161628151Y-116962246D01*
X161622156Y-116964452D01*
X161622155Y-116964452D01*
X161538783Y-116995127D01*
X161445976Y-117029273D01*
X161281000Y-117131563D01*
X161139961Y-117264937D01*
X161136299Y-117270167D01*
X161136298Y-117270168D01*
X161124688Y-117286749D01*
X161028621Y-117423946D01*
X160951529Y-117602095D01*
X160950224Y-117608342D01*
X160913932Y-117782063D01*
X160911833Y-117792108D01*
X160911500Y-117798462D01*
X160911500Y-118741014D01*
X157758412Y-118741014D01*
X157337988Y-118320590D01*
X157303962Y-118258278D01*
X157302161Y-118215048D01*
X157308123Y-118169768D01*
X157310725Y-118150000D01*
X157289915Y-117991933D01*
X157281142Y-117970752D01*
X157232064Y-117852270D01*
X157228903Y-117844638D01*
X157131848Y-117718152D01*
X157107383Y-117699379D01*
X157011914Y-117626124D01*
X157005363Y-117621097D01*
X156858067Y-117560085D01*
X156822193Y-117555362D01*
X156708188Y-117540353D01*
X156700000Y-117539275D01*
X156691812Y-117540353D01*
X156577808Y-117555362D01*
X156541933Y-117560085D01*
X156394638Y-117621097D01*
X156388087Y-117626124D01*
X156388084Y-117626126D01*
X156344611Y-117659484D01*
X156268152Y-117718152D01*
X156263126Y-117724702D01*
X156180234Y-117832730D01*
X156171097Y-117844638D01*
X156167936Y-117852270D01*
X156118859Y-117970752D01*
X156110085Y-117991933D01*
X156089275Y-118150000D01*
X154317398Y-118150000D01*
X154579410Y-117887988D01*
X154641722Y-117853962D01*
X154684950Y-117852161D01*
X154750000Y-117860725D01*
X154758188Y-117859647D01*
X154899879Y-117840993D01*
X154908067Y-117839915D01*
X155055363Y-117778903D01*
X155118606Y-117730375D01*
X155175297Y-117686875D01*
X155175298Y-117686874D01*
X155181848Y-117681848D01*
X155278903Y-117555362D01*
X155339915Y-117408067D01*
X155360725Y-117250000D01*
X155339915Y-117091933D01*
X155278903Y-116944638D01*
X155181848Y-116818152D01*
X155175292Y-116813121D01*
X155112594Y-116765012D01*
X155055363Y-116721097D01*
X154908067Y-116660085D01*
X154750000Y-116639275D01*
X154591933Y-116660085D01*
X154444638Y-116721097D01*
X154318152Y-116818152D01*
X154313126Y-116824702D01*
X154277641Y-116870947D01*
X154221097Y-116944638D01*
X154160085Y-117091933D01*
X154139275Y-117250000D01*
X154142911Y-117277613D01*
X154147839Y-117315048D01*
X154136900Y-117385197D01*
X154112012Y-117420590D01*
X152575007Y-118957595D01*
X152512695Y-118991621D01*
X152485912Y-118994500D01*
X149181500Y-118994500D01*
X149113379Y-118974498D01*
X149066886Y-118920842D01*
X149055500Y-118868500D01*
X149055500Y-118454760D01*
X149043577Y-118394818D01*
X148998157Y-118326843D01*
X148953939Y-118297297D01*
X148940501Y-118288318D01*
X148930182Y-118281423D01*
X148870240Y-118269500D01*
X147129760Y-118269500D01*
X147069818Y-118281423D01*
X147059499Y-118288318D01*
X147046061Y-118297297D01*
X147001843Y-118326843D01*
X146956423Y-118394818D01*
X146944500Y-118454760D01*
X146944500Y-120195240D01*
X120186679Y-120195240D01*
X120152685Y-120109160D01*
X120147951Y-120099624D01*
X120029532Y-119904475D01*
X120023266Y-119895882D01*
X119873658Y-119723473D01*
X119866028Y-119716053D01*
X119689512Y-119571320D01*
X119680745Y-119565294D01*
X119482367Y-119452371D01*
X119472703Y-119447905D01*
X119258132Y-119370019D01*
X119247865Y-119367249D01*
X119022068Y-119326419D01*
X119013838Y-119325484D01*
X118994450Y-119324570D01*
X118991474Y-119324500D01*
X118257115Y-119324500D01*
X118241876Y-119328975D01*
X118240671Y-119330365D01*
X118239000Y-119338048D01*
X118239000Y-120460385D01*
X117731000Y-120460385D01*
X117731000Y-119342615D01*
X117726525Y-119327376D01*
X117725135Y-119326171D01*
X117717452Y-119324500D01*
X117027660Y-119324500D01*
X117022351Y-119324725D01*
X116852229Y-119339160D01*
X116841741Y-119340952D01*
X116620789Y-119398301D01*
X116610761Y-119401833D01*
X116402637Y-119495585D01*
X116393331Y-119500765D01*
X116203976Y-119628247D01*
X116195693Y-119634906D01*
X116030522Y-119792471D01*
X116023470Y-119800442D01*
X115887210Y-119983582D01*
X115881606Y-119992619D01*
X115778149Y-120196106D01*
X115774148Y-120205959D01*
X115706456Y-120423961D01*
X115704172Y-120434348D01*
X115700700Y-120460543D01*
X115205500Y-120460543D01*
X115205500Y-117178251D01*
X115975797Y-117178251D01*
X115985550Y-117388975D01*
X115986954Y-117394800D01*
X116026788Y-117560085D01*
X116034974Y-117594053D01*
X116037456Y-117599511D01*
X116037457Y-117599515D01*
X116074892Y-117681848D01*
X116122286Y-117786085D01*
X116244335Y-117958143D01*
X116396717Y-118104017D01*
X116573935Y-118218445D01*
X116579501Y-118220688D01*
X116764024Y-118295053D01*
X116764027Y-118295054D01*
X116769593Y-118297297D01*
X116863808Y-118315696D01*
X116972185Y-118336861D01*
X116972188Y-118336861D01*
X116976631Y-118337729D01*
X116982172Y-118338000D01*
X118937711Y-118338000D01*
X119094996Y-118322994D01*
X119103191Y-118320590D01*
X119291651Y-118265301D01*
X119297415Y-118263610D01*
X119391704Y-118215048D01*
X119479622Y-118169768D01*
X119479625Y-118169766D01*
X119484953Y-118167022D01*
X119536942Y-118126184D01*
X119646126Y-118040420D01*
X119646131Y-118040416D01*
X119650843Y-118036714D01*
X119661050Y-118024952D01*
X119785167Y-117881918D01*
X119789099Y-117877387D01*
X119894733Y-117694792D01*
X119932269Y-117586700D01*
X119961966Y-117501181D01*
X119961966Y-117501179D01*
X119963933Y-117495516D01*
X119968231Y-117465876D01*
X119993342Y-117292689D01*
X119993342Y-117292686D01*
X119994203Y-117286749D01*
X119984450Y-117076025D01*
X119981376Y-117063267D01*
X119936432Y-116876780D01*
X119936431Y-116876778D01*
X119935026Y-116870947D01*
X119929005Y-116857703D01*
X119875663Y-116740385D01*
X119847714Y-116678915D01*
X119725665Y-116506857D01*
X119600354Y-116386898D01*
X119577613Y-116365128D01*
X119573283Y-116360983D01*
X119396065Y-116246555D01*
X119305603Y-116210098D01*
X119205976Y-116169947D01*
X119205973Y-116169946D01*
X119200407Y-116167703D01*
X119065903Y-116141436D01*
X118997815Y-116128139D01*
X118997812Y-116128139D01*
X118993369Y-116127271D01*
X118987828Y-116127000D01*
X117032289Y-116127000D01*
X116875004Y-116142006D01*
X116869244Y-116143696D01*
X116869243Y-116143696D01*
X116791332Y-116166553D01*
X116672585Y-116201390D01*
X116634993Y-116220751D01*
X116490378Y-116295232D01*
X116490375Y-116295234D01*
X116485047Y-116297978D01*
X116480332Y-116301682D01*
X116323874Y-116424580D01*
X116323869Y-116424584D01*
X116319157Y-116428286D01*
X116315226Y-116432816D01*
X116315225Y-116432817D01*
X116285943Y-116466562D01*
X116180901Y-116587613D01*
X116075267Y-116770208D01*
X116042181Y-116865485D01*
X116010813Y-116955818D01*
X116006067Y-116969484D01*
X116005206Y-116975419D01*
X116005206Y-116975421D01*
X115983835Y-117122817D01*
X115975797Y-117178251D01*
X115205500Y-117178251D01*
X115205500Y-114955866D01*
X115225502Y-114887745D01*
X115242404Y-114866771D01*
X115884269Y-114224905D01*
X115946582Y-114190880D01*
X115973365Y-114188000D01*
X115996566Y-114188000D01*
X116064687Y-114208002D01*
X116111265Y-114261846D01*
X116122286Y-114286085D01*
X116244335Y-114458143D01*
X116396717Y-114604017D01*
X116573935Y-114718445D01*
X116579501Y-114720688D01*
X116764024Y-114795053D01*
X116764027Y-114795054D01*
X116769593Y-114797297D01*
X116872962Y-114817484D01*
X116972185Y-114836861D01*
X116972188Y-114836861D01*
X116976631Y-114837729D01*
X116982172Y-114838000D01*
X118937711Y-114838000D01*
X119094996Y-114822994D01*
X119297415Y-114763610D01*
X119391425Y-114715192D01*
X119479622Y-114669768D01*
X119479625Y-114669766D01*
X119484953Y-114667022D01*
X119545076Y-114619795D01*
X119646126Y-114540420D01*
X119646131Y-114540416D01*
X119650843Y-114536714D01*
X119789099Y-114377387D01*
X119894733Y-114194792D01*
X119963933Y-113995516D01*
X119985928Y-113843819D01*
X119993342Y-113792689D01*
X119993342Y-113792686D01*
X119994203Y-113786749D01*
X119984450Y-113576025D01*
X119980327Y-113558915D01*
X119936432Y-113376780D01*
X119936431Y-113376778D01*
X119935026Y-113370947D01*
X119917347Y-113332063D01*
X119863709Y-113214095D01*
X119847714Y-113178915D01*
X119753823Y-113046553D01*
X119729131Y-113011743D01*
X119729130Y-113011742D01*
X119725665Y-113006857D01*
X119615574Y-112901468D01*
X119577613Y-112865128D01*
X119573283Y-112860983D01*
X119396065Y-112746555D01*
X119318968Y-112715484D01*
X119205976Y-112669947D01*
X119205973Y-112669946D01*
X119200407Y-112667703D01*
X119029383Y-112634304D01*
X118997815Y-112628139D01*
X118997812Y-112628139D01*
X118993369Y-112627271D01*
X118987828Y-112627000D01*
X117032289Y-112627000D01*
X116875004Y-112642006D01*
X116869244Y-112643696D01*
X116869243Y-112643696D01*
X116791332Y-112666553D01*
X116672585Y-112701390D01*
X116667246Y-112704140D01*
X116490378Y-112795232D01*
X116490375Y-112795234D01*
X116485047Y-112797978D01*
X116480332Y-112801682D01*
X116323874Y-112924580D01*
X116323869Y-112924584D01*
X116319157Y-112928286D01*
X116315226Y-112932816D01*
X116315225Y-112932817D01*
X116286694Y-112965696D01*
X116180901Y-113087613D01*
X116156491Y-113129808D01*
X116107729Y-113214095D01*
X116056304Y-113263044D01*
X115998665Y-113277000D01*
X115973364Y-113277000D01*
X115905243Y-113256998D01*
X115884269Y-113240095D01*
X115242405Y-112598231D01*
X115208379Y-112535919D01*
X115205500Y-112509136D01*
X115205500Y-110501080D01*
X115702662Y-110501080D01*
X115730413Y-110633340D01*
X115733473Y-110643537D01*
X115817315Y-110855840D01*
X115822049Y-110865376D01*
X115940468Y-111060525D01*
X115946734Y-111069118D01*
X116096342Y-111241527D01*
X116103972Y-111248947D01*
X116280488Y-111393680D01*
X116289255Y-111399706D01*
X116487633Y-111512629D01*
X116497297Y-111517095D01*
X116711868Y-111594981D01*
X116722135Y-111597751D01*
X116947932Y-111638581D01*
X116956162Y-111639516D01*
X116975550Y-111640430D01*
X116978526Y-111640500D01*
X117712885Y-111640500D01*
X117728124Y-111636025D01*
X117729329Y-111634635D01*
X117731000Y-111626952D01*
X117731000Y-111622385D01*
X118239000Y-111622385D01*
X118243475Y-111637624D01*
X118244865Y-111638829D01*
X118252548Y-111640500D01*
X118942340Y-111640500D01*
X118947649Y-111640275D01*
X119117771Y-111625840D01*
X119128259Y-111624048D01*
X119349211Y-111566699D01*
X119359239Y-111563167D01*
X119567363Y-111469415D01*
X119576669Y-111464235D01*
X119766024Y-111336753D01*
X119774307Y-111330094D01*
X119939478Y-111172529D01*
X119946530Y-111164558D01*
X120082790Y-110981418D01*
X120088394Y-110972381D01*
X120191851Y-110768894D01*
X120195852Y-110759041D01*
X120263544Y-110541039D01*
X120265828Y-110530652D01*
X120269300Y-110504457D01*
X120267104Y-110490293D01*
X120253919Y-110486500D01*
X118257115Y-110486500D01*
X118241876Y-110490975D01*
X118240671Y-110492365D01*
X118239000Y-110500048D01*
X118239000Y-111622385D01*
X117731000Y-111622385D01*
X117731000Y-110504615D01*
X117726525Y-110489376D01*
X117725135Y-110488171D01*
X117717452Y-110486500D01*
X115717718Y-110486500D01*
X115704187Y-110490473D01*
X115702662Y-110501080D01*
X115205500Y-110501080D01*
X115205500Y-109960543D01*
X115700700Y-109960543D01*
X115702896Y-109974707D01*
X115716081Y-109978500D01*
X117712885Y-109978500D01*
X117728124Y-109974025D01*
X117729329Y-109972635D01*
X117731000Y-109964952D01*
X117731000Y-109960385D01*
X118239000Y-109960385D01*
X118243475Y-109975624D01*
X118244865Y-109976829D01*
X118252548Y-109978500D01*
X120252282Y-109978500D01*
X120265813Y-109974527D01*
X120267338Y-109963920D01*
X120239587Y-109831660D01*
X120236527Y-109821463D01*
X120152685Y-109609160D01*
X120147951Y-109599624D01*
X120029532Y-109404475D01*
X120023266Y-109395882D01*
X119873658Y-109223473D01*
X119866028Y-109216053D01*
X119689512Y-109071320D01*
X119680745Y-109065294D01*
X119482367Y-108952371D01*
X119472703Y-108947905D01*
X119258132Y-108870019D01*
X119247865Y-108867249D01*
X119022068Y-108826419D01*
X119013838Y-108825484D01*
X118994450Y-108824570D01*
X118991474Y-108824500D01*
X118257115Y-108824500D01*
X118241876Y-108828975D01*
X118240671Y-108830365D01*
X118239000Y-108838048D01*
X118239000Y-109960385D01*
X117731000Y-109960385D01*
X117731000Y-108842615D01*
X117726525Y-108827376D01*
X117725135Y-108826171D01*
X117717452Y-108824500D01*
X117027660Y-108824500D01*
X117022351Y-108824725D01*
X116852229Y-108839160D01*
X116841741Y-108840952D01*
X116620789Y-108898301D01*
X116610761Y-108901833D01*
X116402637Y-108995585D01*
X116393331Y-109000765D01*
X116203976Y-109128247D01*
X116195693Y-109134906D01*
X116030522Y-109292471D01*
X116023470Y-109300442D01*
X115887210Y-109483582D01*
X115881606Y-109492619D01*
X115778149Y-109696106D01*
X115774148Y-109705959D01*
X115706456Y-109923961D01*
X115704172Y-109934348D01*
X115700700Y-109960543D01*
X115205500Y-109960543D01*
X115205500Y-108750000D01*
X134139275Y-108750000D01*
X134160085Y-108908067D01*
X134221097Y-109055362D01*
X134318152Y-109181848D01*
X134444637Y-109278903D01*
X134591933Y-109339915D01*
X134750000Y-109360725D01*
X134758188Y-109359647D01*
X134899879Y-109340993D01*
X134908067Y-109339915D01*
X135055363Y-109278903D01*
X135181848Y-109181848D01*
X135278903Y-109055362D01*
X135339915Y-108908067D01*
X135360725Y-108750000D01*
X135339915Y-108591933D01*
X135278903Y-108444638D01*
X135181848Y-108318152D01*
X135175298Y-108313126D01*
X135175293Y-108313121D01*
X135129796Y-108278210D01*
X135087929Y-108220872D01*
X135080500Y-108178248D01*
X135080500Y-101899430D01*
X155424500Y-101899430D01*
X155427514Y-101931316D01*
X155430059Y-101938563D01*
X155466683Y-102042851D01*
X155472898Y-102060550D01*
X155554275Y-102170725D01*
X155664450Y-102252102D01*
X155673336Y-102255223D01*
X155673337Y-102255223D01*
X155699136Y-102264283D01*
X155793684Y-102297486D01*
X155801326Y-102298208D01*
X155801329Y-102298209D01*
X155816283Y-102299622D01*
X155825570Y-102300500D01*
X157174430Y-102300500D01*
X157183717Y-102299622D01*
X157198671Y-102298209D01*
X157198674Y-102298208D01*
X157206316Y-102297486D01*
X157300864Y-102264283D01*
X157326663Y-102255223D01*
X157326664Y-102255223D01*
X157335550Y-102252102D01*
X157445725Y-102170725D01*
X157527102Y-102060550D01*
X157533318Y-102042851D01*
X157569941Y-101938563D01*
X157572486Y-101931316D01*
X157575500Y-101899430D01*
X157575500Y-101276273D01*
X157964500Y-101276273D01*
X157979100Y-101429297D01*
X157980789Y-101435053D01*
X157980789Y-101435055D01*
X158002863Y-101510300D01*
X158036871Y-101626223D01*
X158039615Y-101631550D01*
X158039615Y-101631551D01*
X158105326Y-101759136D01*
X158130838Y-101808671D01*
X158134538Y-101813381D01*
X158134541Y-101813386D01*
X158234760Y-101940969D01*
X158257611Y-101970059D01*
X158262141Y-101973990D01*
X158262142Y-101973991D01*
X158408082Y-102100633D01*
X158408087Y-102100637D01*
X158412613Y-102104564D01*
X158477369Y-102142026D01*
X158582870Y-102203059D01*
X158590254Y-102207331D01*
X158595923Y-102209300D01*
X158595926Y-102209301D01*
X158681750Y-102239104D01*
X158784122Y-102274654D01*
X158790060Y-102275515D01*
X158981283Y-102303241D01*
X158981286Y-102303241D01*
X158987223Y-102304102D01*
X159192229Y-102294614D01*
X159198053Y-102293210D01*
X159198056Y-102293210D01*
X159373563Y-102250912D01*
X159391741Y-102246531D01*
X159397191Y-102244053D01*
X159397194Y-102244052D01*
X159494742Y-102199699D01*
X159578562Y-102161588D01*
X159732164Y-102052630D01*
X159741064Y-102046317D01*
X159741065Y-102046316D01*
X159745950Y-102042851D01*
X159750088Y-102038528D01*
X159750093Y-102038524D01*
X159883721Y-101898934D01*
X159883721Y-101898933D01*
X159887866Y-101894604D01*
X159999189Y-101722196D01*
X160056487Y-101580021D01*
X160073657Y-101537417D01*
X160073658Y-101537414D01*
X160075901Y-101531848D01*
X160109611Y-101359234D01*
X160114368Y-101334874D01*
X160114368Y-101334871D01*
X160115236Y-101330428D01*
X160115500Y-101325030D01*
X160115500Y-101276273D01*
X160504500Y-101276273D01*
X160519100Y-101429297D01*
X160520789Y-101435053D01*
X160520789Y-101435055D01*
X160542863Y-101510300D01*
X160576871Y-101626223D01*
X160579615Y-101631550D01*
X160579615Y-101631551D01*
X160645326Y-101759136D01*
X160670838Y-101808671D01*
X160674538Y-101813381D01*
X160674541Y-101813386D01*
X160774760Y-101940969D01*
X160797611Y-101970059D01*
X160802141Y-101973990D01*
X160802142Y-101973991D01*
X160948082Y-102100633D01*
X160948087Y-102100637D01*
X160952613Y-102104564D01*
X161017369Y-102142026D01*
X161122870Y-102203059D01*
X161130254Y-102207331D01*
X161135923Y-102209300D01*
X161135926Y-102209301D01*
X161221750Y-102239104D01*
X161324122Y-102274654D01*
X161330060Y-102275515D01*
X161521283Y-102303241D01*
X161521286Y-102303241D01*
X161527223Y-102304102D01*
X161732229Y-102294614D01*
X161738053Y-102293210D01*
X161738056Y-102293210D01*
X161913563Y-102250912D01*
X161931741Y-102246531D01*
X161937191Y-102244053D01*
X161937194Y-102244052D01*
X162034742Y-102199699D01*
X162118562Y-102161588D01*
X162272164Y-102052630D01*
X162281064Y-102046317D01*
X162281065Y-102046316D01*
X162285950Y-102042851D01*
X162290088Y-102038528D01*
X162290093Y-102038524D01*
X162423721Y-101898934D01*
X162423721Y-101898933D01*
X162427866Y-101894604D01*
X162539189Y-101722196D01*
X162570426Y-101644688D01*
X162614439Y-101588985D01*
X162681584Y-101565918D01*
X162750540Y-101582815D01*
X162799416Y-101634310D01*
X162809249Y-101660134D01*
X162814199Y-101679205D01*
X162817734Y-101689242D01*
X162909399Y-101892732D01*
X162914568Y-101902018D01*
X163039210Y-102087155D01*
X163045871Y-102095441D01*
X163199924Y-102256930D01*
X163207892Y-102263979D01*
X163386952Y-102397203D01*
X163395982Y-102402802D01*
X163594931Y-102503953D01*
X163604792Y-102507956D01*
X163817929Y-102574138D01*
X163828309Y-102576420D01*
X163848043Y-102579036D01*
X163862207Y-102576840D01*
X163866000Y-102563655D01*
X163866000Y-102561627D01*
X164374000Y-102561627D01*
X164377973Y-102575158D01*
X164388580Y-102576683D01*
X164512188Y-102550748D01*
X164522384Y-102547688D01*
X164729952Y-102465716D01*
X164739489Y-102460982D01*
X164930285Y-102345204D01*
X164938878Y-102338938D01*
X165107441Y-102192667D01*
X165114861Y-102185036D01*
X165256368Y-102012458D01*
X165262393Y-102003691D01*
X165372797Y-101809738D01*
X165377262Y-101800074D01*
X165453410Y-101590289D01*
X165456181Y-101580021D01*
X165496106Y-101359234D01*
X165497039Y-101351005D01*
X165497930Y-101332126D01*
X165498000Y-101329151D01*
X165498000Y-101272115D01*
X165493525Y-101256876D01*
X165492135Y-101255671D01*
X165484452Y-101254000D01*
X164392115Y-101254000D01*
X164376876Y-101258475D01*
X164375671Y-101259865D01*
X164374000Y-101267548D01*
X164374000Y-102561627D01*
X163866000Y-102561627D01*
X163866000Y-100727885D01*
X164374000Y-100727885D01*
X164378475Y-100743124D01*
X164379865Y-100744329D01*
X164387548Y-100746000D01*
X165479885Y-100746000D01*
X165495124Y-100741525D01*
X165496329Y-100740135D01*
X165498000Y-100732452D01*
X165498000Y-100718946D01*
X165497775Y-100713637D01*
X165483661Y-100547293D01*
X165481871Y-100536821D01*
X165425802Y-100320798D01*
X165422266Y-100310758D01*
X165330601Y-100107268D01*
X165325432Y-100097982D01*
X165200790Y-99912845D01*
X165194129Y-99904559D01*
X165040076Y-99743070D01*
X165032108Y-99736021D01*
X164853048Y-99602797D01*
X164844018Y-99597198D01*
X164645069Y-99496047D01*
X164635208Y-99492044D01*
X164422071Y-99425862D01*
X164411691Y-99423580D01*
X164391957Y-99420964D01*
X164377793Y-99423160D01*
X164374000Y-99436345D01*
X164374000Y-100727885D01*
X163866000Y-100727885D01*
X163866000Y-99438373D01*
X163862027Y-99424842D01*
X163851420Y-99423317D01*
X163727812Y-99449252D01*
X163717616Y-99452312D01*
X163510048Y-99534284D01*
X163500511Y-99539018D01*
X163309715Y-99654796D01*
X163301122Y-99661062D01*
X163132559Y-99807333D01*
X163125139Y-99814964D01*
X162983632Y-99987542D01*
X162977607Y-99996309D01*
X162867203Y-100190262D01*
X162862738Y-100199926D01*
X162808531Y-100349264D01*
X162766487Y-100406472D01*
X162700188Y-100431868D01*
X162630683Y-100417388D01*
X162578076Y-100363965D01*
X162491908Y-100196661D01*
X162489162Y-100191329D01*
X162485462Y-100186619D01*
X162485459Y-100186614D01*
X162366095Y-100034659D01*
X162362389Y-100029941D01*
X162316907Y-99990473D01*
X162211918Y-99899367D01*
X162211913Y-99899363D01*
X162207387Y-99895436D01*
X162029746Y-99792669D01*
X162024077Y-99790700D01*
X162024074Y-99790699D01*
X161924958Y-99756280D01*
X161835878Y-99725346D01*
X161829940Y-99724485D01*
X161638717Y-99696759D01*
X161638714Y-99696759D01*
X161632777Y-99695898D01*
X161427771Y-99705386D01*
X161421947Y-99706790D01*
X161421944Y-99706790D01*
X161344950Y-99725346D01*
X161228259Y-99753469D01*
X161222809Y-99755947D01*
X161222806Y-99755948D01*
X161146376Y-99790699D01*
X161041438Y-99838412D01*
X160948188Y-99904559D01*
X160886473Y-99948337D01*
X160874050Y-99957149D01*
X160869912Y-99961472D01*
X160869907Y-99961476D01*
X160750331Y-100086387D01*
X160732134Y-100105396D01*
X160620811Y-100277804D01*
X160618568Y-100283370D01*
X160568957Y-100406472D01*
X160544099Y-100468152D01*
X160504764Y-100669572D01*
X160504500Y-100674970D01*
X160504500Y-101276273D01*
X160115500Y-101276273D01*
X160115500Y-100723727D01*
X160100900Y-100570703D01*
X160095096Y-100550917D01*
X160060171Y-100431868D01*
X160043129Y-100373777D01*
X160038802Y-100365376D01*
X159951908Y-100196660D01*
X159951906Y-100196657D01*
X159949162Y-100191329D01*
X159945462Y-100186619D01*
X159945459Y-100186614D01*
X159826095Y-100034659D01*
X159822389Y-100029941D01*
X159776907Y-99990473D01*
X159671918Y-99899367D01*
X159671913Y-99899363D01*
X159667387Y-99895436D01*
X159489746Y-99792669D01*
X159484077Y-99790700D01*
X159484074Y-99790699D01*
X159384958Y-99756280D01*
X159295878Y-99725346D01*
X159289940Y-99724485D01*
X159098717Y-99696759D01*
X159098714Y-99696759D01*
X159092777Y-99695898D01*
X158887771Y-99705386D01*
X158881947Y-99706790D01*
X158881944Y-99706790D01*
X158804950Y-99725346D01*
X158688259Y-99753469D01*
X158682809Y-99755947D01*
X158682806Y-99755948D01*
X158606376Y-99790699D01*
X158501438Y-99838412D01*
X158408188Y-99904559D01*
X158346473Y-99948337D01*
X158334050Y-99957149D01*
X158329912Y-99961472D01*
X158329907Y-99961476D01*
X158210331Y-100086387D01*
X158192134Y-100105396D01*
X158080811Y-100277804D01*
X158078568Y-100283370D01*
X158028957Y-100406472D01*
X158004099Y-100468152D01*
X157964764Y-100669572D01*
X157964500Y-100674970D01*
X157964500Y-101276273D01*
X157575500Y-101276273D01*
X157575500Y-100100570D01*
X157572486Y-100068684D01*
X157533448Y-99957521D01*
X157530223Y-99948337D01*
X157530223Y-99948336D01*
X157527102Y-99939450D01*
X157445725Y-99829275D01*
X157335550Y-99747898D01*
X157301730Y-99736021D01*
X157213563Y-99705059D01*
X157206316Y-99702514D01*
X157198674Y-99701792D01*
X157198671Y-99701791D01*
X157183717Y-99700378D01*
X157174430Y-99699500D01*
X155825570Y-99699500D01*
X155816283Y-99700378D01*
X155801329Y-99701791D01*
X155801326Y-99701792D01*
X155793684Y-99702514D01*
X155786437Y-99705059D01*
X155698271Y-99736021D01*
X155664450Y-99747898D01*
X155554275Y-99829275D01*
X155472898Y-99939450D01*
X155469777Y-99948336D01*
X155469777Y-99948337D01*
X155466552Y-99957521D01*
X155427514Y-100068684D01*
X155424500Y-100100570D01*
X155424500Y-101899430D01*
X135080500Y-101899430D01*
X135080500Y-96000192D01*
X137144496Y-96000192D01*
X137146035Y-96018522D01*
X137159952Y-96184248D01*
X137161817Y-96206460D01*
X137163515Y-96212381D01*
X137163515Y-96212382D01*
X137215210Y-96392660D01*
X137218873Y-96405435D01*
X137221688Y-96410912D01*
X137286012Y-96536074D01*
X137313489Y-96589540D01*
X137442063Y-96751760D01*
X137446756Y-96755754D01*
X137446757Y-96755755D01*
X137473363Y-96778398D01*
X137599697Y-96885917D01*
X137605075Y-96888923D01*
X137605077Y-96888924D01*
X137670712Y-96925606D01*
X137780387Y-96986901D01*
X137977250Y-97050865D01*
X138182788Y-97075374D01*
X138188923Y-97074902D01*
X138188925Y-97074902D01*
X138383030Y-97059967D01*
X138383034Y-97059966D01*
X138389172Y-97059494D01*
X138395105Y-97057838D01*
X138395108Y-97057837D01*
X138582607Y-97005486D01*
X138582606Y-97005486D01*
X138588542Y-97003829D01*
X138773302Y-96910500D01*
X138809886Y-96881918D01*
X138931559Y-96786856D01*
X138936415Y-96783062D01*
X138967604Y-96746929D01*
X139067641Y-96631036D01*
X139067642Y-96631034D01*
X139071670Y-96626368D01*
X139090028Y-96594053D01*
X139170865Y-96451753D01*
X139173913Y-96446388D01*
X139239250Y-96249976D01*
X139265193Y-96044614D01*
X139265607Y-96015000D01*
X139264155Y-96000192D01*
X139684496Y-96000192D01*
X139686035Y-96018522D01*
X139699952Y-96184248D01*
X139701817Y-96206460D01*
X139703515Y-96212381D01*
X139703515Y-96212382D01*
X139755210Y-96392660D01*
X139758873Y-96405435D01*
X139761688Y-96410912D01*
X139826012Y-96536074D01*
X139853489Y-96589540D01*
X139982063Y-96751760D01*
X139986756Y-96755754D01*
X139986757Y-96755755D01*
X140013363Y-96778398D01*
X140139697Y-96885917D01*
X140145075Y-96888923D01*
X140145077Y-96888924D01*
X140210712Y-96925606D01*
X140320387Y-96986901D01*
X140517250Y-97050865D01*
X140722788Y-97075374D01*
X140728923Y-97074902D01*
X140728925Y-97074902D01*
X140923030Y-97059967D01*
X140923034Y-97059966D01*
X140929172Y-97059494D01*
X140935105Y-97057838D01*
X140935108Y-97057837D01*
X141122607Y-97005486D01*
X141122606Y-97005486D01*
X141128542Y-97003829D01*
X141313302Y-96910500D01*
X141349886Y-96881918D01*
X141471559Y-96786856D01*
X141476415Y-96783062D01*
X141507604Y-96746929D01*
X141607641Y-96631036D01*
X141607642Y-96631034D01*
X141611670Y-96626368D01*
X141630028Y-96594053D01*
X141710865Y-96451753D01*
X141713913Y-96446388D01*
X141779250Y-96249976D01*
X141805193Y-96044614D01*
X141805607Y-96015000D01*
X141804155Y-96000192D01*
X142224496Y-96000192D01*
X142226035Y-96018522D01*
X142239952Y-96184248D01*
X142241817Y-96206460D01*
X142243515Y-96212381D01*
X142243515Y-96212382D01*
X142295210Y-96392660D01*
X142298873Y-96405435D01*
X142301688Y-96410912D01*
X142366012Y-96536074D01*
X142393489Y-96589540D01*
X142522063Y-96751760D01*
X142526756Y-96755754D01*
X142526757Y-96755755D01*
X142553363Y-96778398D01*
X142679697Y-96885917D01*
X142685075Y-96888923D01*
X142685077Y-96888924D01*
X142750712Y-96925606D01*
X142860387Y-96986901D01*
X143057250Y-97050865D01*
X143262788Y-97075374D01*
X143268923Y-97074902D01*
X143268925Y-97074902D01*
X143463030Y-97059967D01*
X143463034Y-97059966D01*
X143469172Y-97059494D01*
X143475105Y-97057838D01*
X143475108Y-97057837D01*
X143662607Y-97005486D01*
X143662606Y-97005486D01*
X143668542Y-97003829D01*
X143853302Y-96910500D01*
X143889886Y-96881918D01*
X144011559Y-96786856D01*
X144016415Y-96783062D01*
X144047604Y-96746929D01*
X144147641Y-96631036D01*
X144147642Y-96631034D01*
X144151670Y-96626368D01*
X144170028Y-96594053D01*
X144250865Y-96451753D01*
X144253913Y-96446388D01*
X144319250Y-96249976D01*
X144345193Y-96044614D01*
X144345607Y-96015000D01*
X144344155Y-96000192D01*
X144764496Y-96000192D01*
X144766035Y-96018522D01*
X144779952Y-96184248D01*
X144781817Y-96206460D01*
X144783515Y-96212381D01*
X144783515Y-96212382D01*
X144835210Y-96392660D01*
X144838873Y-96405435D01*
X144841688Y-96410912D01*
X144906012Y-96536074D01*
X144933489Y-96589540D01*
X145062063Y-96751760D01*
X145066756Y-96755754D01*
X145066757Y-96755755D01*
X145093363Y-96778398D01*
X145219697Y-96885917D01*
X145225075Y-96888923D01*
X145225077Y-96888924D01*
X145290712Y-96925606D01*
X145400387Y-96986901D01*
X145597250Y-97050865D01*
X145802788Y-97075374D01*
X145808923Y-97074902D01*
X145808925Y-97074902D01*
X146003030Y-97059967D01*
X146003034Y-97059966D01*
X146009172Y-97059494D01*
X146015105Y-97057838D01*
X146015108Y-97057837D01*
X146202607Y-97005486D01*
X146202606Y-97005486D01*
X146208542Y-97003829D01*
X146393302Y-96910500D01*
X146429886Y-96881918D01*
X146551559Y-96786856D01*
X146556415Y-96783062D01*
X146587604Y-96746929D01*
X146687641Y-96631036D01*
X146687642Y-96631034D01*
X146691670Y-96626368D01*
X146710028Y-96594053D01*
X146790865Y-96451753D01*
X146793913Y-96446388D01*
X146859250Y-96249976D01*
X146885193Y-96044614D01*
X146885607Y-96015000D01*
X146865408Y-95808994D01*
X146805580Y-95610834D01*
X146708402Y-95428069D01*
X146704511Y-95423299D01*
X146704509Y-95423295D01*
X146581471Y-95272435D01*
X146581468Y-95272432D01*
X146577576Y-95267660D01*
X146570667Y-95261944D01*
X146422834Y-95139646D01*
X146422831Y-95139644D01*
X146418084Y-95135717D01*
X146236002Y-95037265D01*
X146137133Y-95006660D01*
X146044152Y-94977878D01*
X146044149Y-94977877D01*
X146038265Y-94976056D01*
X146032140Y-94975412D01*
X146032139Y-94975412D01*
X145838532Y-94955063D01*
X145838531Y-94955063D01*
X145832404Y-94954419D01*
X145745465Y-94962331D01*
X145632401Y-94972620D01*
X145632398Y-94972621D01*
X145626262Y-94973179D01*
X145427690Y-95031622D01*
X145398299Y-95046987D01*
X145249711Y-95124667D01*
X145249707Y-95124670D01*
X145244251Y-95127522D01*
X145239451Y-95131382D01*
X145239450Y-95131382D01*
X145229172Y-95139646D01*
X145082932Y-95257225D01*
X144949879Y-95415792D01*
X144946915Y-95421184D01*
X144946912Y-95421188D01*
X144881320Y-95540501D01*
X144850159Y-95597182D01*
X144848298Y-95603049D01*
X144848297Y-95603051D01*
X144832042Y-95654293D01*
X144787570Y-95794487D01*
X144764496Y-96000192D01*
X144344155Y-96000192D01*
X144325408Y-95808994D01*
X144265580Y-95610834D01*
X144168402Y-95428069D01*
X144164511Y-95423299D01*
X144164509Y-95423295D01*
X144041471Y-95272435D01*
X144041468Y-95272432D01*
X144037576Y-95267660D01*
X144030667Y-95261944D01*
X143882834Y-95139646D01*
X143882831Y-95139644D01*
X143878084Y-95135717D01*
X143696002Y-95037265D01*
X143597133Y-95006660D01*
X143504152Y-94977878D01*
X143504149Y-94977877D01*
X143498265Y-94976056D01*
X143492140Y-94975412D01*
X143492139Y-94975412D01*
X143298532Y-94955063D01*
X143298531Y-94955063D01*
X143292404Y-94954419D01*
X143205465Y-94962331D01*
X143092401Y-94972620D01*
X143092398Y-94972621D01*
X143086262Y-94973179D01*
X142887690Y-95031622D01*
X142858299Y-95046987D01*
X142709711Y-95124667D01*
X142709707Y-95124670D01*
X142704251Y-95127522D01*
X142699451Y-95131382D01*
X142699450Y-95131382D01*
X142689172Y-95139646D01*
X142542932Y-95257225D01*
X142409879Y-95415792D01*
X142406915Y-95421184D01*
X142406912Y-95421188D01*
X142341320Y-95540501D01*
X142310159Y-95597182D01*
X142308298Y-95603049D01*
X142308297Y-95603051D01*
X142292042Y-95654293D01*
X142247570Y-95794487D01*
X142224496Y-96000192D01*
X141804155Y-96000192D01*
X141785408Y-95808994D01*
X141725580Y-95610834D01*
X141628402Y-95428069D01*
X141624511Y-95423299D01*
X141624509Y-95423295D01*
X141501471Y-95272435D01*
X141501468Y-95272432D01*
X141497576Y-95267660D01*
X141490667Y-95261944D01*
X141342834Y-95139646D01*
X141342831Y-95139644D01*
X141338084Y-95135717D01*
X141156002Y-95037265D01*
X141057133Y-95006660D01*
X140964152Y-94977878D01*
X140964149Y-94977877D01*
X140958265Y-94976056D01*
X140952140Y-94975412D01*
X140952139Y-94975412D01*
X140758532Y-94955063D01*
X140758531Y-94955063D01*
X140752404Y-94954419D01*
X140665465Y-94962331D01*
X140552401Y-94972620D01*
X140552398Y-94972621D01*
X140546262Y-94973179D01*
X140347690Y-95031622D01*
X140318299Y-95046987D01*
X140169711Y-95124667D01*
X140169707Y-95124670D01*
X140164251Y-95127522D01*
X140159451Y-95131382D01*
X140159450Y-95131382D01*
X140149172Y-95139646D01*
X140002932Y-95257225D01*
X139869879Y-95415792D01*
X139866915Y-95421184D01*
X139866912Y-95421188D01*
X139801320Y-95540501D01*
X139770159Y-95597182D01*
X139768298Y-95603049D01*
X139768297Y-95603051D01*
X139752042Y-95654293D01*
X139707570Y-95794487D01*
X139684496Y-96000192D01*
X139264155Y-96000192D01*
X139245408Y-95808994D01*
X139185580Y-95610834D01*
X139088402Y-95428069D01*
X139084511Y-95423299D01*
X139084509Y-95423295D01*
X138961471Y-95272435D01*
X138961468Y-95272432D01*
X138957576Y-95267660D01*
X138950667Y-95261944D01*
X138802834Y-95139646D01*
X138802831Y-95139644D01*
X138798084Y-95135717D01*
X138616002Y-95037265D01*
X138517133Y-95006660D01*
X138424152Y-94977878D01*
X138424149Y-94977877D01*
X138418265Y-94976056D01*
X138412140Y-94975412D01*
X138412139Y-94975412D01*
X138218532Y-94955063D01*
X138218531Y-94955063D01*
X138212404Y-94954419D01*
X138125465Y-94962331D01*
X138012401Y-94972620D01*
X138012398Y-94972621D01*
X138006262Y-94973179D01*
X137807690Y-95031622D01*
X137778299Y-95046987D01*
X137629711Y-95124667D01*
X137629707Y-95124670D01*
X137624251Y-95127522D01*
X137619451Y-95131382D01*
X137619450Y-95131382D01*
X137609172Y-95139646D01*
X137462932Y-95257225D01*
X137329879Y-95415792D01*
X137326915Y-95421184D01*
X137326912Y-95421188D01*
X137261320Y-95540501D01*
X137230159Y-95597182D01*
X137228298Y-95603049D01*
X137228297Y-95603051D01*
X137212042Y-95654293D01*
X137167570Y-95794487D01*
X137144496Y-96000192D01*
X135080500Y-96000192D01*
X135080500Y-95189088D01*
X135100502Y-95120967D01*
X135117405Y-95099993D01*
X136374993Y-93842405D01*
X136437305Y-93808379D01*
X136464088Y-93805500D01*
X137111159Y-93805500D01*
X137179280Y-93825502D01*
X137223226Y-93873906D01*
X137242677Y-93911753D01*
X137313489Y-94049540D01*
X137442063Y-94211760D01*
X137446756Y-94215754D01*
X137446757Y-94215755D01*
X137473363Y-94238398D01*
X137599697Y-94345917D01*
X137780387Y-94446901D01*
X137977250Y-94510865D01*
X138182788Y-94535374D01*
X138188923Y-94534902D01*
X138188925Y-94534902D01*
X138383030Y-94519967D01*
X138383034Y-94519966D01*
X138389172Y-94519494D01*
X138395105Y-94517838D01*
X138395108Y-94517837D01*
X138582607Y-94465486D01*
X138582606Y-94465486D01*
X138588542Y-94463829D01*
X138773302Y-94370500D01*
X138805634Y-94345240D01*
X138931559Y-94246856D01*
X138936415Y-94243062D01*
X139071670Y-94086368D01*
X139173913Y-93906388D01*
X139239250Y-93709976D01*
X139265193Y-93504614D01*
X139265607Y-93475000D01*
X139264155Y-93460192D01*
X139684496Y-93460192D01*
X139686035Y-93478522D01*
X139692374Y-93554002D01*
X139701817Y-93666460D01*
X139703515Y-93672381D01*
X139703515Y-93672382D01*
X139746867Y-93823564D01*
X139758873Y-93865435D01*
X139853489Y-94049540D01*
X139982063Y-94211760D01*
X139986756Y-94215754D01*
X139986757Y-94215755D01*
X140013363Y-94238398D01*
X140139697Y-94345917D01*
X140320387Y-94446901D01*
X140517250Y-94510865D01*
X140722788Y-94535374D01*
X140728923Y-94534902D01*
X140728925Y-94534902D01*
X140923030Y-94519967D01*
X140923034Y-94519966D01*
X140929172Y-94519494D01*
X140935105Y-94517838D01*
X140935108Y-94517837D01*
X141122607Y-94465486D01*
X141122606Y-94465486D01*
X141128542Y-94463829D01*
X141313302Y-94370500D01*
X141345634Y-94345240D01*
X141471559Y-94246856D01*
X141476415Y-94243062D01*
X141611670Y-94086368D01*
X141713913Y-93906388D01*
X141779250Y-93709976D01*
X141805193Y-93504614D01*
X141805607Y-93475000D01*
X141804155Y-93460192D01*
X142224496Y-93460192D01*
X142226035Y-93478522D01*
X142232374Y-93554002D01*
X142241817Y-93666460D01*
X142243515Y-93672381D01*
X142243515Y-93672382D01*
X142286867Y-93823564D01*
X142298873Y-93865435D01*
X142393489Y-94049540D01*
X142522063Y-94211760D01*
X142526756Y-94215754D01*
X142526757Y-94215755D01*
X142553363Y-94238398D01*
X142679697Y-94345917D01*
X142860387Y-94446901D01*
X143057250Y-94510865D01*
X143262788Y-94535374D01*
X143268923Y-94534902D01*
X143268925Y-94534902D01*
X143463030Y-94519967D01*
X143463034Y-94519966D01*
X143469172Y-94519494D01*
X143475105Y-94517838D01*
X143475108Y-94517837D01*
X143662607Y-94465486D01*
X143662606Y-94465486D01*
X143668542Y-94463829D01*
X143853302Y-94370500D01*
X143885634Y-94345240D01*
X144769500Y-94345240D01*
X144781423Y-94405182D01*
X144826843Y-94473157D01*
X144894818Y-94518577D01*
X144954760Y-94530500D01*
X146695240Y-94530500D01*
X146755182Y-94518577D01*
X146823157Y-94473157D01*
X146868577Y-94405182D01*
X146880500Y-94345240D01*
X146880500Y-92604760D01*
X146868577Y-92544818D01*
X146823157Y-92476843D01*
X146755182Y-92431423D01*
X146695240Y-92419500D01*
X144954760Y-92419500D01*
X144894818Y-92431423D01*
X144826843Y-92476843D01*
X144781423Y-92544818D01*
X144769500Y-92604760D01*
X144769500Y-94345240D01*
X143885634Y-94345240D01*
X144011559Y-94246856D01*
X144016415Y-94243062D01*
X144151670Y-94086368D01*
X144253913Y-93906388D01*
X144319250Y-93709976D01*
X144345193Y-93504614D01*
X144345607Y-93475000D01*
X144325408Y-93268994D01*
X144265580Y-93070834D01*
X144205816Y-92958434D01*
X144171296Y-92893511D01*
X144171294Y-92893508D01*
X144168402Y-92888069D01*
X144164511Y-92883299D01*
X144164509Y-92883295D01*
X144041471Y-92732435D01*
X144041468Y-92732432D01*
X144037576Y-92727660D01*
X144030667Y-92721944D01*
X143882834Y-92599646D01*
X143882831Y-92599644D01*
X143878084Y-92595717D01*
X143696002Y-92497265D01*
X143587954Y-92463819D01*
X143504152Y-92437878D01*
X143504149Y-92437877D01*
X143498265Y-92436056D01*
X143492140Y-92435412D01*
X143492139Y-92435412D01*
X143298532Y-92415063D01*
X143298531Y-92415063D01*
X143292404Y-92414419D01*
X143205465Y-92422331D01*
X143092401Y-92432620D01*
X143092398Y-92432621D01*
X143086262Y-92433179D01*
X142887690Y-92491622D01*
X142867581Y-92502135D01*
X142709711Y-92584667D01*
X142709707Y-92584670D01*
X142704251Y-92587522D01*
X142542932Y-92717225D01*
X142409879Y-92875792D01*
X142406915Y-92881184D01*
X142406912Y-92881188D01*
X142327582Y-93025489D01*
X142310159Y-93057182D01*
X142308298Y-93063049D01*
X142308297Y-93063051D01*
X142278554Y-93156813D01*
X142247570Y-93254487D01*
X142224496Y-93460192D01*
X141804155Y-93460192D01*
X141785408Y-93268994D01*
X141725580Y-93070834D01*
X141665816Y-92958434D01*
X141631296Y-92893511D01*
X141631294Y-92893508D01*
X141628402Y-92888069D01*
X141624511Y-92883299D01*
X141624509Y-92883295D01*
X141501471Y-92732435D01*
X141501468Y-92732432D01*
X141497576Y-92727660D01*
X141490667Y-92721944D01*
X141342834Y-92599646D01*
X141342831Y-92599644D01*
X141338084Y-92595717D01*
X141156002Y-92497265D01*
X141047954Y-92463819D01*
X140964152Y-92437878D01*
X140964149Y-92437877D01*
X140958265Y-92436056D01*
X140952140Y-92435412D01*
X140952139Y-92435412D01*
X140758532Y-92415063D01*
X140758531Y-92415063D01*
X140752404Y-92414419D01*
X140665465Y-92422331D01*
X140552401Y-92432620D01*
X140552398Y-92432621D01*
X140546262Y-92433179D01*
X140347690Y-92491622D01*
X140327581Y-92502135D01*
X140169711Y-92584667D01*
X140169707Y-92584670D01*
X140164251Y-92587522D01*
X140002932Y-92717225D01*
X139869879Y-92875792D01*
X139866915Y-92881184D01*
X139866912Y-92881188D01*
X139787582Y-93025489D01*
X139770159Y-93057182D01*
X139768298Y-93063049D01*
X139768297Y-93063051D01*
X139738554Y-93156813D01*
X139707570Y-93254487D01*
X139684496Y-93460192D01*
X139264155Y-93460192D01*
X139245408Y-93268994D01*
X139185580Y-93070834D01*
X139125816Y-92958434D01*
X139091296Y-92893511D01*
X139091294Y-92893508D01*
X139088402Y-92888069D01*
X139084511Y-92883299D01*
X139084509Y-92883295D01*
X138961471Y-92732435D01*
X138961468Y-92732432D01*
X138957576Y-92727660D01*
X138950667Y-92721944D01*
X138802834Y-92599646D01*
X138802831Y-92599644D01*
X138798084Y-92595717D01*
X138616002Y-92497265D01*
X138507954Y-92463819D01*
X138424152Y-92437878D01*
X138424149Y-92437877D01*
X138418265Y-92436056D01*
X138412140Y-92435412D01*
X138412139Y-92435412D01*
X138218532Y-92415063D01*
X138218531Y-92415063D01*
X138212404Y-92414419D01*
X138125465Y-92422331D01*
X138012401Y-92432620D01*
X138012398Y-92432621D01*
X138006262Y-92433179D01*
X137807690Y-92491622D01*
X137787581Y-92502135D01*
X137629711Y-92584667D01*
X137629707Y-92584670D01*
X137624251Y-92587522D01*
X137462932Y-92717225D01*
X137329879Y-92875792D01*
X137326915Y-92881184D01*
X137326912Y-92881188D01*
X137269022Y-92986490D01*
X137230159Y-93057182D01*
X137228295Y-93063058D01*
X137226119Y-93068135D01*
X137180899Y-93122868D01*
X137110307Y-93144500D01*
X136294932Y-93144500D01*
X136283951Y-93144021D01*
X136256727Y-93141639D01*
X136256726Y-93141639D01*
X136245751Y-93140679D01*
X136235108Y-93143531D01*
X136235104Y-93143531D01*
X136208710Y-93150603D01*
X136197982Y-93152981D01*
X136171076Y-93157726D01*
X136171073Y-93157727D01*
X136160219Y-93159641D01*
X136150673Y-93165152D01*
X136147186Y-93166421D01*
X136143818Y-93167991D01*
X136133170Y-93170845D01*
X136124141Y-93177167D01*
X136124137Y-93177169D01*
X136101758Y-93192839D01*
X136092488Y-93198745D01*
X136068831Y-93212403D01*
X136068827Y-93212406D01*
X136059282Y-93217917D01*
X136052195Y-93226362D01*
X136052196Y-93226362D01*
X136034636Y-93247289D01*
X136027209Y-93255393D01*
X134530393Y-94752209D01*
X134522289Y-94759636D01*
X134492917Y-94784282D01*
X134487406Y-94793827D01*
X134487403Y-94793831D01*
X134473745Y-94817488D01*
X134467839Y-94826758D01*
X134452169Y-94849137D01*
X134452167Y-94849141D01*
X134445845Y-94858170D01*
X134442991Y-94868818D01*
X134441421Y-94872186D01*
X134440152Y-94875673D01*
X134434641Y-94885219D01*
X134432727Y-94896073D01*
X134432726Y-94896076D01*
X134427981Y-94922982D01*
X134425603Y-94933710D01*
X134418533Y-94960098D01*
X134415679Y-94970751D01*
X134416640Y-94981733D01*
X134419020Y-95008936D01*
X134419500Y-95019918D01*
X134419500Y-108178249D01*
X134399498Y-108246370D01*
X134370206Y-108278210D01*
X134318152Y-108318152D01*
X134221097Y-108444638D01*
X134160085Y-108591933D01*
X134139275Y-108750000D01*
X115205500Y-108750000D01*
X115205500Y-106708365D01*
X115214342Y-106678251D01*
X115975797Y-106678251D01*
X115985550Y-106888975D01*
X116034974Y-107094053D01*
X116122286Y-107286085D01*
X116244335Y-107458143D01*
X116396717Y-107604017D01*
X116573935Y-107718445D01*
X116579501Y-107720688D01*
X116764024Y-107795053D01*
X116764027Y-107795054D01*
X116769593Y-107797297D01*
X116872962Y-107817484D01*
X116972185Y-107836861D01*
X116972188Y-107836861D01*
X116976631Y-107837729D01*
X116982172Y-107838000D01*
X118937711Y-107838000D01*
X119094996Y-107822994D01*
X119297415Y-107763610D01*
X119407690Y-107706815D01*
X119479622Y-107669768D01*
X119479625Y-107669766D01*
X119484953Y-107667022D01*
X119544555Y-107620204D01*
X119646126Y-107540420D01*
X119646131Y-107540416D01*
X119650843Y-107536714D01*
X119789099Y-107377387D01*
X119894733Y-107194792D01*
X119963933Y-106995516D01*
X119994203Y-106786749D01*
X119984450Y-106576025D01*
X119974233Y-106533628D01*
X119936432Y-106376780D01*
X119936431Y-106376778D01*
X119935026Y-106370947D01*
X119884053Y-106258837D01*
X119859217Y-106204215D01*
X119847714Y-106178915D01*
X119725665Y-106006857D01*
X119573283Y-105860983D01*
X119396065Y-105746555D01*
X119336132Y-105722401D01*
X119205976Y-105669947D01*
X119205973Y-105669946D01*
X119200407Y-105667703D01*
X119065903Y-105641436D01*
X118997815Y-105628139D01*
X118997812Y-105628139D01*
X118993369Y-105627271D01*
X118987828Y-105627000D01*
X117032289Y-105627000D01*
X116875004Y-105642006D01*
X116672585Y-105701390D01*
X116667246Y-105704140D01*
X116490378Y-105795232D01*
X116490375Y-105795234D01*
X116485047Y-105797978D01*
X116480332Y-105801682D01*
X116323874Y-105924580D01*
X116323869Y-105924584D01*
X116319157Y-105928286D01*
X116180901Y-106087613D01*
X116075267Y-106270208D01*
X116056179Y-106325177D01*
X116028601Y-106404594D01*
X116006067Y-106469484D01*
X116005206Y-106475419D01*
X116005206Y-106475421D01*
X115999026Y-106518048D01*
X115975797Y-106678251D01*
X115214342Y-106678251D01*
X115225502Y-106640244D01*
X115242405Y-106619270D01*
X117486769Y-104374905D01*
X117549081Y-104340880D01*
X117575864Y-104338000D01*
X118937711Y-104338000D01*
X119094996Y-104322994D01*
X119297415Y-104263610D01*
X119454058Y-104182934D01*
X119479622Y-104169768D01*
X119479625Y-104169766D01*
X119484953Y-104167022D01*
X119565162Y-104104017D01*
X119646126Y-104040420D01*
X119646131Y-104040416D01*
X119650843Y-104036714D01*
X119789099Y-103877387D01*
X119894733Y-103694792D01*
X119950070Y-103535437D01*
X119961966Y-103501181D01*
X119961966Y-103501179D01*
X119963933Y-103495516D01*
X119979929Y-103385197D01*
X119993342Y-103292689D01*
X119993342Y-103292686D01*
X119994203Y-103286749D01*
X119984450Y-103076025D01*
X119973045Y-103028699D01*
X119936432Y-102876780D01*
X119936431Y-102876778D01*
X119935026Y-102870947D01*
X119911022Y-102818152D01*
X119850194Y-102684370D01*
X119847714Y-102678915D01*
X119725665Y-102506857D01*
X119573283Y-102360983D01*
X119396065Y-102246555D01*
X119336132Y-102222401D01*
X119205976Y-102169947D01*
X119205973Y-102169946D01*
X119200407Y-102167703D01*
X119077476Y-102143696D01*
X118997815Y-102128139D01*
X118997812Y-102128139D01*
X118993369Y-102127271D01*
X118987828Y-102127000D01*
X117032289Y-102127000D01*
X116875004Y-102142006D01*
X116869244Y-102143696D01*
X116869243Y-102143696D01*
X116678349Y-102199699D01*
X116672585Y-102201390D01*
X116661050Y-102207331D01*
X116490378Y-102295232D01*
X116490375Y-102295234D01*
X116485047Y-102297978D01*
X116470033Y-102309772D01*
X116323874Y-102424580D01*
X116323869Y-102424584D01*
X116319157Y-102428286D01*
X116315226Y-102432816D01*
X116315225Y-102432817D01*
X116190249Y-102576840D01*
X116180901Y-102587613D01*
X116180022Y-102586850D01*
X116129010Y-102626908D01*
X116058330Y-102633606D01*
X115993169Y-102598995D01*
X115242405Y-101848231D01*
X115208379Y-101785919D01*
X115205500Y-101759136D01*
X115205500Y-100001080D01*
X115702662Y-100001080D01*
X115730413Y-100133340D01*
X115733473Y-100143537D01*
X115817315Y-100355840D01*
X115822049Y-100365376D01*
X115940468Y-100560525D01*
X115946734Y-100569118D01*
X116096342Y-100741527D01*
X116103972Y-100748947D01*
X116280488Y-100893680D01*
X116289255Y-100899706D01*
X116487633Y-101012629D01*
X116497297Y-101017095D01*
X116711868Y-101094981D01*
X116722135Y-101097751D01*
X116947932Y-101138581D01*
X116956162Y-101139516D01*
X116975550Y-101140430D01*
X116978526Y-101140500D01*
X117712885Y-101140500D01*
X117728124Y-101136025D01*
X117729329Y-101134635D01*
X117731000Y-101126952D01*
X117731000Y-101122385D01*
X118239000Y-101122385D01*
X118243475Y-101137624D01*
X118244865Y-101138829D01*
X118252548Y-101140500D01*
X118942340Y-101140500D01*
X118947649Y-101140275D01*
X119117771Y-101125840D01*
X119128259Y-101124048D01*
X119349211Y-101066699D01*
X119359239Y-101063167D01*
X119567363Y-100969415D01*
X119576669Y-100964235D01*
X119766024Y-100836753D01*
X119774307Y-100830094D01*
X119939478Y-100672529D01*
X119946530Y-100664558D01*
X120082790Y-100481418D01*
X120088394Y-100472381D01*
X120191851Y-100268894D01*
X120195852Y-100259041D01*
X120263544Y-100041039D01*
X120265828Y-100030652D01*
X120269300Y-100004457D01*
X120267104Y-99990293D01*
X120253919Y-99986500D01*
X118257115Y-99986500D01*
X118241876Y-99990975D01*
X118240671Y-99992365D01*
X118239000Y-100000048D01*
X118239000Y-101122385D01*
X117731000Y-101122385D01*
X117731000Y-100004615D01*
X117726525Y-99989376D01*
X117725135Y-99988171D01*
X117717452Y-99986500D01*
X115717718Y-99986500D01*
X115704187Y-99990473D01*
X115702662Y-100001080D01*
X115205500Y-100001080D01*
X115205500Y-99460543D01*
X115700700Y-99460543D01*
X115702896Y-99474707D01*
X115716081Y-99478500D01*
X117712885Y-99478500D01*
X117728124Y-99474025D01*
X117729329Y-99472635D01*
X117731000Y-99464952D01*
X117731000Y-99460385D01*
X118239000Y-99460385D01*
X118243475Y-99475624D01*
X118244865Y-99476829D01*
X118252548Y-99478500D01*
X120252282Y-99478500D01*
X120265813Y-99474527D01*
X120267338Y-99463920D01*
X120239587Y-99331660D01*
X120236527Y-99321463D01*
X120152685Y-99109160D01*
X120147951Y-99099624D01*
X120029532Y-98904475D01*
X120023266Y-98895882D01*
X119873658Y-98723473D01*
X119866028Y-98716053D01*
X119689512Y-98571320D01*
X119680745Y-98565294D01*
X119482367Y-98452371D01*
X119472703Y-98447905D01*
X119258132Y-98370019D01*
X119247865Y-98367249D01*
X119022068Y-98326419D01*
X119013838Y-98325484D01*
X118994450Y-98324570D01*
X118991474Y-98324500D01*
X118257115Y-98324500D01*
X118241876Y-98328975D01*
X118240671Y-98330365D01*
X118239000Y-98338048D01*
X118239000Y-99460385D01*
X117731000Y-99460385D01*
X117731000Y-98342615D01*
X117726525Y-98327376D01*
X117725135Y-98326171D01*
X117717452Y-98324500D01*
X117027660Y-98324500D01*
X117022351Y-98324725D01*
X116852229Y-98339160D01*
X116841741Y-98340952D01*
X116620789Y-98398301D01*
X116610761Y-98401833D01*
X116402637Y-98495585D01*
X116393331Y-98500765D01*
X116203976Y-98628247D01*
X116195693Y-98634906D01*
X116030522Y-98792471D01*
X116023470Y-98800442D01*
X115887210Y-98983582D01*
X115881606Y-98992619D01*
X115778149Y-99196106D01*
X115774148Y-99205959D01*
X115706456Y-99423961D01*
X115704172Y-99434348D01*
X115700700Y-99460543D01*
X115205500Y-99460543D01*
X115205500Y-96178251D01*
X115975797Y-96178251D01*
X115985550Y-96388975D01*
X116034974Y-96594053D01*
X116037456Y-96599511D01*
X116037457Y-96599515D01*
X116051789Y-96631036D01*
X116122286Y-96786085D01*
X116244335Y-96958143D01*
X116396717Y-97104017D01*
X116573935Y-97218445D01*
X116579501Y-97220688D01*
X116764024Y-97295053D01*
X116764027Y-97295054D01*
X116769593Y-97297297D01*
X116872962Y-97317484D01*
X116972185Y-97336861D01*
X116972188Y-97336861D01*
X116976631Y-97337729D01*
X116982172Y-97338000D01*
X118937711Y-97338000D01*
X119094996Y-97322994D01*
X119297415Y-97263610D01*
X119391425Y-97215192D01*
X119479622Y-97169768D01*
X119479625Y-97169766D01*
X119484953Y-97167022D01*
X119546003Y-97119067D01*
X119646126Y-97040420D01*
X119646131Y-97040416D01*
X119650843Y-97036714D01*
X119789099Y-96877387D01*
X119894733Y-96694792D01*
X119963933Y-96495516D01*
X119964794Y-96489579D01*
X119993342Y-96292689D01*
X119993342Y-96292686D01*
X119994203Y-96286749D01*
X119984450Y-96076025D01*
X119977725Y-96048118D01*
X119936432Y-95876780D01*
X119936431Y-95876778D01*
X119935026Y-95870947D01*
X119847714Y-95678915D01*
X119725665Y-95506857D01*
X119573283Y-95360983D01*
X119396065Y-95246555D01*
X119336132Y-95222401D01*
X119205976Y-95169947D01*
X119205973Y-95169946D01*
X119200407Y-95167703D01*
X119065903Y-95141436D01*
X118997815Y-95128139D01*
X118997812Y-95128139D01*
X118993369Y-95127271D01*
X118987828Y-95127000D01*
X117032289Y-95127000D01*
X116875004Y-95142006D01*
X116672585Y-95201390D01*
X116667246Y-95204140D01*
X116490378Y-95295232D01*
X116490375Y-95295234D01*
X116485047Y-95297978D01*
X116480332Y-95301682D01*
X116323874Y-95424580D01*
X116323869Y-95424584D01*
X116319157Y-95428286D01*
X116180901Y-95587613D01*
X116075267Y-95770208D01*
X116006067Y-95969484D01*
X116005206Y-95975419D01*
X116005206Y-95975421D01*
X115986726Y-96102878D01*
X115975797Y-96178251D01*
X115205500Y-96178251D01*
X115205500Y-95102885D01*
X115225502Y-95034764D01*
X115242405Y-95013790D01*
X116489229Y-93766966D01*
X116551541Y-93732940D01*
X116625422Y-93739195D01*
X116764024Y-93795053D01*
X116764027Y-93795054D01*
X116769593Y-93797297D01*
X116872962Y-93817484D01*
X116972185Y-93836861D01*
X116972188Y-93836861D01*
X116976631Y-93837729D01*
X116982172Y-93838000D01*
X118937711Y-93838000D01*
X119094996Y-93822994D01*
X119144814Y-93808379D01*
X119291651Y-93765301D01*
X119297415Y-93763610D01*
X119455891Y-93681990D01*
X119479622Y-93669768D01*
X119479625Y-93669766D01*
X119484953Y-93667022D01*
X119576705Y-93594950D01*
X119646126Y-93540420D01*
X119646131Y-93540416D01*
X119650843Y-93536714D01*
X119789099Y-93377387D01*
X119894733Y-93194792D01*
X119942519Y-93057182D01*
X119961966Y-93001181D01*
X119961966Y-93001179D01*
X119963933Y-92995516D01*
X119968478Y-92964173D01*
X119993342Y-92792689D01*
X119993342Y-92792686D01*
X119994203Y-92786749D01*
X119984450Y-92576025D01*
X119967975Y-92507662D01*
X119936432Y-92376780D01*
X119936431Y-92376778D01*
X119935026Y-92370947D01*
X119922656Y-92343739D01*
X119850194Y-92184370D01*
X119847714Y-92178915D01*
X119725665Y-92006857D01*
X119573283Y-91860983D01*
X119396065Y-91746555D01*
X119336132Y-91722401D01*
X119205976Y-91669947D01*
X119205973Y-91669946D01*
X119200407Y-91667703D01*
X119065903Y-91641436D01*
X118997815Y-91628139D01*
X118997812Y-91628139D01*
X118993369Y-91627271D01*
X118987828Y-91627000D01*
X117032289Y-91627000D01*
X116875004Y-91642006D01*
X116869244Y-91643696D01*
X116869243Y-91643696D01*
X116819658Y-91658243D01*
X116672585Y-91701390D01*
X116667246Y-91704140D01*
X116490378Y-91795232D01*
X116490375Y-91795234D01*
X116485047Y-91797978D01*
X116477872Y-91803614D01*
X116323874Y-91924580D01*
X116323869Y-91924584D01*
X116319157Y-91928286D01*
X116180901Y-92087613D01*
X116075267Y-92270208D01*
X116073299Y-92275876D01*
X116016890Y-92438318D01*
X116006067Y-92469484D01*
X116005206Y-92475419D01*
X116005206Y-92475421D01*
X115985556Y-92610947D01*
X115975797Y-92678251D01*
X115985550Y-92888975D01*
X115987122Y-92895497D01*
X115987104Y-92895856D01*
X115987800Y-92900745D01*
X115986858Y-92900879D01*
X115983642Y-92966406D01*
X115953726Y-93014120D01*
X114452323Y-94515523D01*
X114441234Y-94525377D01*
X114421605Y-94540852D01*
X114421603Y-94540854D01*
X114414204Y-94546687D01*
X114408850Y-94554434D01*
X114408848Y-94554436D01*
X114380459Y-94595513D01*
X114378164Y-94598725D01*
X114342898Y-94646471D01*
X114340480Y-94653357D01*
X114336328Y-94659364D01*
X114333489Y-94668342D01*
X114333488Y-94668343D01*
X114318434Y-94715943D01*
X114317181Y-94719697D01*
X114300634Y-94766815D01*
X114300633Y-94766823D01*
X114297514Y-94775703D01*
X114297231Y-94782905D01*
X114297189Y-94783117D01*
X114295026Y-94789959D01*
X114294500Y-94796643D01*
X114294500Y-94849944D01*
X114294403Y-94854890D01*
X114292137Y-94912568D01*
X114294037Y-94919733D01*
X114294500Y-94928148D01*
X114294500Y-101965484D01*
X114293627Y-101980293D01*
X114289582Y-102014470D01*
X114291274Y-102023734D01*
X114291274Y-102023737D01*
X114300247Y-102072869D01*
X114300897Y-102076771D01*
X114307256Y-102119063D01*
X114309719Y-102135448D01*
X114312878Y-102142026D01*
X114314190Y-102149211D01*
X114318532Y-102157569D01*
X114318532Y-102157570D01*
X114341550Y-102201881D01*
X114343320Y-102205423D01*
X114363734Y-102247935D01*
X114369009Y-102258921D01*
X114373904Y-102264217D01*
X114374021Y-102264390D01*
X114377330Y-102270760D01*
X114381684Y-102275859D01*
X114419379Y-102313554D01*
X114422808Y-102317120D01*
X114461985Y-102359501D01*
X114468396Y-102363225D01*
X114474669Y-102368844D01*
X115636004Y-103530178D01*
X115645859Y-103541267D01*
X115667167Y-103568296D01*
X115716043Y-103602077D01*
X115719216Y-103604345D01*
X115759374Y-103634007D01*
X115759377Y-103634009D01*
X115766950Y-103639602D01*
X115773838Y-103642021D01*
X115779844Y-103646172D01*
X115836437Y-103664070D01*
X115840186Y-103665321D01*
X115896183Y-103684986D01*
X115903387Y-103685269D01*
X115903595Y-103685310D01*
X115910439Y-103687474D01*
X115917123Y-103688000D01*
X115970424Y-103688000D01*
X115975368Y-103688097D01*
X115982425Y-103688374D01*
X116001989Y-103689143D01*
X116069272Y-103711805D01*
X116111740Y-103762892D01*
X116118929Y-103778702D01*
X116122286Y-103786085D01*
X116244335Y-103958143D01*
X116248662Y-103962285D01*
X116340780Y-104050469D01*
X116376156Y-104112024D01*
X116372637Y-104182934D01*
X116342746Y-104230579D01*
X115423447Y-105149879D01*
X114452323Y-106121003D01*
X114441234Y-106130857D01*
X114421605Y-106146332D01*
X114421603Y-106146334D01*
X114414204Y-106152167D01*
X114408850Y-106159914D01*
X114408848Y-106159916D01*
X114380459Y-106200993D01*
X114378164Y-106204205D01*
X114342898Y-106251951D01*
X114340480Y-106258837D01*
X114336328Y-106264844D01*
X114333489Y-106273822D01*
X114333488Y-106273823D01*
X114318434Y-106321423D01*
X114317181Y-106325177D01*
X114300634Y-106372295D01*
X114300633Y-106372303D01*
X114297514Y-106381183D01*
X114297231Y-106388385D01*
X114297189Y-106388597D01*
X114295026Y-106395439D01*
X114294500Y-106402123D01*
X114294500Y-106455424D01*
X114294403Y-106460370D01*
X114292137Y-106518048D01*
X114294037Y-106525213D01*
X114294500Y-106533628D01*
X114294500Y-112715484D01*
X114293627Y-112730293D01*
X114289582Y-112764470D01*
X114291274Y-112773734D01*
X114291274Y-112773737D01*
X114300247Y-112822869D01*
X114300897Y-112826771D01*
X114306041Y-112860983D01*
X114309719Y-112885448D01*
X114312878Y-112892026D01*
X114314190Y-112899211D01*
X114318532Y-112907569D01*
X114318532Y-112907570D01*
X114341550Y-112951881D01*
X114343320Y-112955423D01*
X114369009Y-113008921D01*
X114373904Y-113014217D01*
X114374021Y-113014390D01*
X114377330Y-113020760D01*
X114381684Y-113025859D01*
X114419379Y-113063554D01*
X114422808Y-113067120D01*
X114461985Y-113109501D01*
X114468395Y-113113224D01*
X114474664Y-113118840D01*
X114999230Y-113643406D01*
X115033256Y-113705718D01*
X115028191Y-113776533D01*
X114999230Y-113821596D01*
X114452323Y-114368503D01*
X114441234Y-114378357D01*
X114421605Y-114393832D01*
X114421603Y-114393834D01*
X114414204Y-114399667D01*
X114408850Y-114407414D01*
X114408848Y-114407416D01*
X114380459Y-114448493D01*
X114378164Y-114451705D01*
X114342898Y-114499451D01*
X114340480Y-114506337D01*
X114336328Y-114512344D01*
X114333489Y-114521322D01*
X114333488Y-114521323D01*
X114318434Y-114568923D01*
X114317181Y-114572677D01*
X114300634Y-114619795D01*
X114300633Y-114619803D01*
X114297514Y-114628683D01*
X114297231Y-114635885D01*
X114297189Y-114636097D01*
X114295026Y-114642939D01*
X114294500Y-114649623D01*
X114294500Y-114702924D01*
X114294403Y-114707870D01*
X114292137Y-114765548D01*
X114294037Y-114772713D01*
X114294500Y-114781128D01*
X114294500Y-123215484D01*
X114293627Y-123230293D01*
X114289582Y-123264470D01*
X112526100Y-123264470D01*
X112526100Y-89501080D01*
X115702662Y-89501080D01*
X115730413Y-89633340D01*
X115733473Y-89643537D01*
X115817315Y-89855840D01*
X115822049Y-89865376D01*
X115940468Y-90060525D01*
X115946734Y-90069118D01*
X116096342Y-90241527D01*
X116103972Y-90248947D01*
X116280488Y-90393680D01*
X116289255Y-90399706D01*
X116487633Y-90512629D01*
X116497297Y-90517095D01*
X116711868Y-90594981D01*
X116722135Y-90597751D01*
X116947932Y-90638581D01*
X116956162Y-90639516D01*
X116975550Y-90640430D01*
X116978526Y-90640500D01*
X117712885Y-90640500D01*
X117728124Y-90636025D01*
X117729329Y-90634635D01*
X117731000Y-90626952D01*
X117731000Y-90622385D01*
X118239000Y-90622385D01*
X118243475Y-90637624D01*
X118244865Y-90638829D01*
X118252548Y-90640500D01*
X118942340Y-90640500D01*
X118947649Y-90640275D01*
X119117771Y-90625840D01*
X119128259Y-90624048D01*
X119349211Y-90566699D01*
X119359239Y-90563167D01*
X119499466Y-90500000D01*
X141389275Y-90500000D01*
X141390353Y-90508188D01*
X141403506Y-90608091D01*
X141410085Y-90658067D01*
X141471097Y-90805362D01*
X141568152Y-90931848D01*
X141694637Y-91028903D01*
X141841933Y-91089915D01*
X142000000Y-91110725D01*
X142008188Y-91109647D01*
X142149879Y-91090993D01*
X142158067Y-91089915D01*
X142305363Y-91028903D01*
X142431848Y-90931848D01*
X142528903Y-90805362D01*
X142589826Y-90658282D01*
X142634375Y-90603001D01*
X142706235Y-90580500D01*
X144810912Y-90580500D01*
X144879033Y-90600502D01*
X144900007Y-90617405D01*
X145252209Y-90969607D01*
X145259636Y-90977711D01*
X145284282Y-91007083D01*
X145293827Y-91012594D01*
X145293831Y-91012597D01*
X145317488Y-91026255D01*
X145326758Y-91032161D01*
X145349137Y-91047831D01*
X145349141Y-91047833D01*
X145358170Y-91054155D01*
X145368818Y-91057009D01*
X145372186Y-91058579D01*
X145375673Y-91059848D01*
X145385219Y-91065359D01*
X145396073Y-91067273D01*
X145396076Y-91067274D01*
X145422982Y-91072019D01*
X145433710Y-91074397D01*
X145460104Y-91081469D01*
X145460108Y-91081469D01*
X145470751Y-91084321D01*
X145481726Y-91083361D01*
X145481727Y-91083361D01*
X145508951Y-91080979D01*
X145519932Y-91080500D01*
X148310912Y-91080500D01*
X148379033Y-91100502D01*
X148400007Y-91117405D01*
X148612012Y-91329410D01*
X148646038Y-91391722D01*
X148647839Y-91434950D01*
X148639275Y-91500000D01*
X148640353Y-91508188D01*
X148657971Y-91642006D01*
X148660085Y-91658067D01*
X148721097Y-91805362D01*
X148818152Y-91931848D01*
X148944637Y-92028903D01*
X149091933Y-92089915D01*
X149250000Y-92110725D01*
X149258188Y-92109647D01*
X149399879Y-92090993D01*
X149408067Y-92089915D01*
X149555363Y-92028903D01*
X149681848Y-91931848D01*
X149778903Y-91805362D01*
X149839915Y-91658067D01*
X149842030Y-91642006D01*
X149859647Y-91508188D01*
X149860725Y-91500000D01*
X149839915Y-91341933D01*
X149778903Y-91194638D01*
X149681848Y-91068152D01*
X149655234Y-91047730D01*
X149572788Y-90984468D01*
X149555363Y-90971097D01*
X149408067Y-90910085D01*
X149250000Y-90889275D01*
X149184951Y-90897839D01*
X149114803Y-90886900D01*
X149079410Y-90862012D01*
X148747791Y-90530393D01*
X148740364Y-90522289D01*
X148722804Y-90501362D01*
X148722805Y-90501362D01*
X148715718Y-90492917D01*
X148706173Y-90487406D01*
X148706169Y-90487403D01*
X148682512Y-90473745D01*
X148673242Y-90467839D01*
X148650863Y-90452169D01*
X148650859Y-90452167D01*
X148641830Y-90445845D01*
X148631182Y-90442991D01*
X148627814Y-90441421D01*
X148624327Y-90440152D01*
X148614781Y-90434641D01*
X148603927Y-90432727D01*
X148603924Y-90432726D01*
X148577018Y-90427981D01*
X148566290Y-90425603D01*
X148539902Y-90418533D01*
X148539900Y-90418533D01*
X148529249Y-90415679D01*
X148518265Y-90416640D01*
X148518264Y-90416640D01*
X148491064Y-90419020D01*
X148480082Y-90419500D01*
X147493319Y-90419500D01*
X147425198Y-90399498D01*
X147378705Y-90345842D01*
X147368601Y-90275568D01*
X147398095Y-90210988D01*
X147416614Y-90193538D01*
X147425295Y-90186876D01*
X147431848Y-90181848D01*
X147528903Y-90055362D01*
X147589915Y-89908067D01*
X147603813Y-89802500D01*
X151964704Y-89802500D01*
X151983851Y-90021348D01*
X151985275Y-90026662D01*
X151985275Y-90026663D01*
X152038721Y-90226126D01*
X152040709Y-90233547D01*
X152043031Y-90238527D01*
X152043032Y-90238529D01*
X152118191Y-90399706D01*
X152133552Y-90432648D01*
X152259557Y-90612603D01*
X152414897Y-90767943D01*
X152594852Y-90893948D01*
X152599830Y-90896269D01*
X152599833Y-90896271D01*
X152774481Y-90977711D01*
X152793953Y-90986791D01*
X152799261Y-90988213D01*
X152799263Y-90988214D01*
X153000837Y-91042225D01*
X153000838Y-91042225D01*
X153006152Y-91043649D01*
X153225000Y-91062796D01*
X153443848Y-91043649D01*
X153449162Y-91042225D01*
X153449163Y-91042225D01*
X153650737Y-90988214D01*
X153650739Y-90988213D01*
X153656047Y-90986791D01*
X153675519Y-90977711D01*
X153850167Y-90896271D01*
X153850170Y-90896269D01*
X153855148Y-90893948D01*
X154035103Y-90767943D01*
X154190443Y-90612603D01*
X154316448Y-90432648D01*
X154331810Y-90399706D01*
X154406968Y-90238529D01*
X154406969Y-90238527D01*
X154409291Y-90233547D01*
X154411280Y-90226126D01*
X154464725Y-90026663D01*
X154464725Y-90026662D01*
X154466149Y-90021348D01*
X154485296Y-89802500D01*
X154466149Y-89583652D01*
X154440565Y-89488171D01*
X154410714Y-89376763D01*
X154410713Y-89376761D01*
X154409291Y-89371453D01*
X154406968Y-89366471D01*
X154318771Y-89177333D01*
X154318769Y-89177330D01*
X154316448Y-89172352D01*
X154190443Y-88992397D01*
X154035103Y-88837057D01*
X153855148Y-88711052D01*
X153850170Y-88708731D01*
X153850167Y-88708729D01*
X153661029Y-88620532D01*
X153661027Y-88620531D01*
X153656047Y-88618209D01*
X153650739Y-88616787D01*
X153650737Y-88616786D01*
X153449163Y-88562775D01*
X153449162Y-88562775D01*
X153443848Y-88561351D01*
X153225000Y-88542204D01*
X153006152Y-88561351D01*
X153000838Y-88562775D01*
X153000837Y-88562775D01*
X152799263Y-88616786D01*
X152799261Y-88616787D01*
X152793953Y-88618209D01*
X152788973Y-88620531D01*
X152788971Y-88620532D01*
X152599833Y-88708729D01*
X152599830Y-88708731D01*
X152594852Y-88711052D01*
X152414897Y-88837057D01*
X152259557Y-88992397D01*
X152133552Y-89172352D01*
X152131231Y-89177330D01*
X152131229Y-89177333D01*
X152043032Y-89366471D01*
X152040709Y-89371453D01*
X152039287Y-89376761D01*
X152039286Y-89376763D01*
X152009435Y-89488171D01*
X151983851Y-89583652D01*
X151964704Y-89802500D01*
X147603813Y-89802500D01*
X147610725Y-89750000D01*
X147589915Y-89591933D01*
X147528903Y-89444638D01*
X147431848Y-89318152D01*
X147402419Y-89295570D01*
X147311914Y-89226124D01*
X147305363Y-89221097D01*
X147158067Y-89160085D01*
X147000000Y-89139275D01*
X146934951Y-89147839D01*
X146864803Y-89136900D01*
X146829410Y-89112012D01*
X146292405Y-88575007D01*
X146258379Y-88512695D01*
X146255500Y-88485912D01*
X146255500Y-88455630D01*
X158196700Y-88455630D01*
X158201981Y-88462684D01*
X158370919Y-88561404D01*
X158380202Y-88565851D01*
X158583002Y-88643293D01*
X158592900Y-88646169D01*
X158805625Y-88689448D01*
X158815853Y-88690667D01*
X159032788Y-88698622D01*
X159043074Y-88698155D01*
X159258403Y-88670571D01*
X159265194Y-88669128D01*
X159335985Y-88674531D01*
X159392617Y-88717349D01*
X159417109Y-88783987D01*
X159401687Y-88853288D01*
X159380484Y-88881470D01*
X159269557Y-88992397D01*
X159143552Y-89172352D01*
X159141231Y-89177330D01*
X159141229Y-89177333D01*
X159053032Y-89366471D01*
X159050709Y-89371453D01*
X159049287Y-89376761D01*
X159049286Y-89376763D01*
X159019435Y-89488171D01*
X158993851Y-89583652D01*
X158974704Y-89802500D01*
X158993851Y-90021348D01*
X158995275Y-90026662D01*
X158995275Y-90026663D01*
X159048721Y-90226126D01*
X159050709Y-90233547D01*
X159053031Y-90238527D01*
X159053032Y-90238529D01*
X159128191Y-90399706D01*
X159143552Y-90432648D01*
X159269557Y-90612603D01*
X159424897Y-90767943D01*
X159604852Y-90893948D01*
X159609830Y-90896269D01*
X159609833Y-90896271D01*
X159784481Y-90977711D01*
X159803953Y-90986791D01*
X159809261Y-90988213D01*
X159809263Y-90988214D01*
X160010837Y-91042225D01*
X160010838Y-91042225D01*
X160016152Y-91043649D01*
X160235000Y-91062796D01*
X160453848Y-91043649D01*
X160459162Y-91042225D01*
X160459163Y-91042225D01*
X160660737Y-90988214D01*
X160660739Y-90988213D01*
X160666047Y-90986791D01*
X160685519Y-90977711D01*
X160860167Y-90896271D01*
X160860170Y-90896269D01*
X160865148Y-90893948D01*
X161045103Y-90767943D01*
X161063046Y-90750000D01*
X171389275Y-90750000D01*
X171410085Y-90908067D01*
X171471097Y-91055362D01*
X171568152Y-91181848D01*
X171574702Y-91186874D01*
X171574703Y-91186875D01*
X171595594Y-91202905D01*
X171694637Y-91278903D01*
X171841933Y-91339915D01*
X172000000Y-91360725D01*
X172008188Y-91359647D01*
X172149879Y-91340993D01*
X172158067Y-91339915D01*
X172305363Y-91278903D01*
X172404406Y-91202905D01*
X172425297Y-91186875D01*
X172425298Y-91186874D01*
X172431848Y-91181848D01*
X172471789Y-91129795D01*
X172529126Y-91087929D01*
X172571751Y-91080500D01*
X179730082Y-91080500D01*
X179741064Y-91080980D01*
X179768263Y-91083360D01*
X179768264Y-91083360D01*
X179779249Y-91084321D01*
X179788162Y-91081933D01*
X179829960Y-91085591D01*
X179834304Y-91086755D01*
X179841933Y-91089915D01*
X179850117Y-91090992D01*
X179850119Y-91090993D01*
X179991812Y-91109647D01*
X180000000Y-91110725D01*
X180008188Y-91109647D01*
X180149879Y-91090993D01*
X180158067Y-91089915D01*
X180305363Y-91028903D01*
X180431848Y-90931848D01*
X180528903Y-90805362D01*
X180589915Y-90658067D01*
X180596495Y-90608091D01*
X180609647Y-90508188D01*
X180610725Y-90500000D01*
X180589915Y-90341933D01*
X180528903Y-90194638D01*
X180431848Y-90068152D01*
X180421909Y-90060525D01*
X180326613Y-89987403D01*
X180305363Y-89971097D01*
X180158067Y-89910085D01*
X180000000Y-89889275D01*
X179841933Y-89910085D01*
X179694638Y-89971097D01*
X179688087Y-89976124D01*
X179688084Y-89976126D01*
X179627923Y-90022289D01*
X179568152Y-90068152D01*
X179471097Y-90194638D01*
X179436193Y-90278903D01*
X179410174Y-90341718D01*
X179365625Y-90396999D01*
X179293765Y-90419500D01*
X172571751Y-90419500D01*
X172503630Y-90399498D01*
X172471788Y-90370204D01*
X172431848Y-90318152D01*
X172305363Y-90221097D01*
X172158067Y-90160085D01*
X172000000Y-90139275D01*
X171841933Y-90160085D01*
X171694638Y-90221097D01*
X171688087Y-90226124D01*
X171688084Y-90226126D01*
X171588569Y-90302486D01*
X171568152Y-90318152D01*
X171471097Y-90444638D01*
X171410085Y-90591933D01*
X171389275Y-90750000D01*
X161063046Y-90750000D01*
X161200443Y-90612603D01*
X161326448Y-90432648D01*
X161341810Y-90399706D01*
X161416968Y-90238529D01*
X161416969Y-90238527D01*
X161419291Y-90233547D01*
X161421280Y-90226126D01*
X161474725Y-90026663D01*
X161474725Y-90026662D01*
X161476149Y-90021348D01*
X161495296Y-89802500D01*
X161476149Y-89583652D01*
X161450565Y-89488171D01*
X161420714Y-89376763D01*
X161420713Y-89376761D01*
X161419291Y-89371453D01*
X161416968Y-89366471D01*
X161328771Y-89177333D01*
X161328769Y-89177330D01*
X161326448Y-89172352D01*
X161200443Y-88992397D01*
X161045103Y-88837057D01*
X160865148Y-88711052D01*
X160860170Y-88708731D01*
X160860167Y-88708729D01*
X160671029Y-88620532D01*
X160671027Y-88620531D01*
X160666047Y-88618209D01*
X160660739Y-88616787D01*
X160660737Y-88616786D01*
X160459163Y-88562775D01*
X160459162Y-88562775D01*
X160453848Y-88561351D01*
X160235000Y-88542204D01*
X160016152Y-88561351D01*
X160010838Y-88562775D01*
X160010837Y-88562775D01*
X159976965Y-88571851D01*
X159909586Y-88589905D01*
X159838611Y-88588215D01*
X159779815Y-88548421D01*
X159751867Y-88483157D01*
X159751537Y-88456320D01*
X159751622Y-88455424D01*
X159743585Y-88440295D01*
X158987812Y-87684522D01*
X158973868Y-87676908D01*
X158972035Y-87677039D01*
X158965420Y-87681290D01*
X158203460Y-88443250D01*
X158196700Y-88455630D01*
X146255500Y-88455630D01*
X146255500Y-87321752D01*
X146266557Y-87284095D01*
X153390243Y-87284095D01*
X153403231Y-87482252D01*
X153452112Y-87674724D01*
X153535251Y-87855064D01*
X153538581Y-87859776D01*
X153538584Y-87859781D01*
X153646529Y-88012521D01*
X153646532Y-88012524D01*
X153649861Y-88017235D01*
X153664443Y-88031440D01*
X153785587Y-88149453D01*
X153792106Y-88155804D01*
X153796900Y-88159007D01*
X153796905Y-88159011D01*
X153927789Y-88246464D01*
X153957221Y-88266130D01*
X153962524Y-88268408D01*
X153962527Y-88268410D01*
X154134370Y-88342239D01*
X154139677Y-88344519D01*
X154233685Y-88365791D01*
X154327726Y-88387071D01*
X154327729Y-88387071D01*
X154333362Y-88388346D01*
X154339133Y-88388573D01*
X154339135Y-88388573D01*
X154400382Y-88390979D01*
X154531791Y-88396142D01*
X154630054Y-88381895D01*
X154722604Y-88368476D01*
X154722609Y-88368475D01*
X154728318Y-88367647D01*
X154733782Y-88365792D01*
X154733787Y-88365791D01*
X154910890Y-88305673D01*
X154910895Y-88305671D01*
X154916362Y-88303815D01*
X154922385Y-88300442D01*
X155084586Y-88209605D01*
X155084590Y-88209602D01*
X155089624Y-88206783D01*
X155094061Y-88203093D01*
X155094065Y-88203090D01*
X155237864Y-88083493D01*
X155242302Y-88079802D01*
X155290989Y-88021262D01*
X155365590Y-87931565D01*
X155365593Y-87931561D01*
X155369283Y-87927124D01*
X155372102Y-87922090D01*
X155372105Y-87922086D01*
X155463492Y-87758903D01*
X155463492Y-87758902D01*
X155466315Y-87753862D01*
X155468171Y-87748395D01*
X155468173Y-87748390D01*
X155528291Y-87571287D01*
X155528292Y-87571282D01*
X155530147Y-87565818D01*
X155530975Y-87560109D01*
X155530976Y-87560104D01*
X155549627Y-87431467D01*
X155558642Y-87369291D01*
X155560129Y-87312500D01*
X155557487Y-87283750D01*
X157587971Y-87283750D01*
X157600467Y-87500467D01*
X157601903Y-87510688D01*
X157649627Y-87722448D01*
X157652706Y-87732277D01*
X157734379Y-87933414D01*
X157739022Y-87942605D01*
X157823279Y-88080101D01*
X157833735Y-88089561D01*
X157842513Y-88085777D01*
X158602978Y-87325312D01*
X158609356Y-87313632D01*
X159339408Y-87313632D01*
X159339539Y-87315465D01*
X159343790Y-87322080D01*
X160103388Y-88081678D01*
X160115398Y-88088236D01*
X160127138Y-88079268D01*
X160161507Y-88031440D01*
X160166816Y-88022603D01*
X160262994Y-87828003D01*
X160266792Y-87818410D01*
X160329897Y-87610708D01*
X160332074Y-87600638D01*
X160360646Y-87383613D01*
X160361165Y-87376938D01*
X160362658Y-87315864D01*
X160362464Y-87309146D01*
X160344530Y-87091007D01*
X160342845Y-87080827D01*
X160289962Y-86870291D01*
X160286642Y-86860540D01*
X160200080Y-86661459D01*
X160195213Y-86652384D01*
X160126144Y-86545618D01*
X160115458Y-86536415D01*
X160105891Y-86540819D01*
X159347022Y-87299688D01*
X159339408Y-87313632D01*
X158609356Y-87313632D01*
X158610592Y-87311368D01*
X158610461Y-87309535D01*
X158606210Y-87302920D01*
X157846858Y-86543568D01*
X157835322Y-86537268D01*
X157823039Y-86546891D01*
X157771279Y-86622768D01*
X157766191Y-86631724D01*
X157674795Y-86828621D01*
X157671232Y-86838308D01*
X157613223Y-87047479D01*
X157611292Y-87057600D01*
X157588222Y-87273462D01*
X157587971Y-87283750D01*
X155557487Y-87283750D01*
X155541958Y-87114751D01*
X155532391Y-87080827D01*
X155494918Y-86947961D01*
X155488055Y-86923625D01*
X155400225Y-86745522D01*
X155377577Y-86715192D01*
X155308560Y-86622768D01*
X155281408Y-86586407D01*
X155135585Y-86451609D01*
X155054585Y-86400502D01*
X154972522Y-86348724D01*
X154972517Y-86348722D01*
X154967638Y-86345643D01*
X154783193Y-86272057D01*
X154588427Y-86233315D01*
X154582652Y-86233239D01*
X154582648Y-86233239D01*
X154483739Y-86231945D01*
X154389862Y-86230716D01*
X154384165Y-86231695D01*
X154384164Y-86231695D01*
X154199845Y-86263367D01*
X154194148Y-86264346D01*
X154007840Y-86333079D01*
X154002878Y-86336031D01*
X153929060Y-86379948D01*
X153837177Y-86434612D01*
X153687875Y-86565546D01*
X153684308Y-86570071D01*
X153684303Y-86570076D01*
X153568508Y-86716962D01*
X153564934Y-86721496D01*
X153562246Y-86726605D01*
X153475161Y-86892127D01*
X153475159Y-86892132D01*
X153472472Y-86897239D01*
X153459046Y-86940478D01*
X153432004Y-87027568D01*
X153413584Y-87086889D01*
X153390243Y-87284095D01*
X146266557Y-87284095D01*
X146275502Y-87253631D01*
X146304796Y-87221790D01*
X146350293Y-87186879D01*
X146350298Y-87186874D01*
X146356848Y-87181848D01*
X146453903Y-87055362D01*
X146514915Y-86908067D01*
X146535725Y-86750000D01*
X146514915Y-86591933D01*
X146453903Y-86444638D01*
X146356848Y-86318152D01*
X146345723Y-86309615D01*
X146286726Y-86264346D01*
X146230363Y-86221097D01*
X146109585Y-86171069D01*
X158198365Y-86171069D01*
X158205111Y-86183401D01*
X158962188Y-86940478D01*
X158976132Y-86948092D01*
X158977965Y-86947961D01*
X158984580Y-86943710D01*
X159746190Y-86182100D01*
X159753211Y-86169244D01*
X159745718Y-86158961D01*
X159738435Y-86154122D01*
X159548398Y-86049215D01*
X159538989Y-86044987D01*
X159334364Y-85972526D01*
X159324401Y-85969894D01*
X159110687Y-85931826D01*
X159100434Y-85930856D01*
X158883366Y-85928203D01*
X158873082Y-85928923D01*
X158658507Y-85961758D01*
X158648479Y-85964147D01*
X158442147Y-86031587D01*
X158432637Y-86035584D01*
X158240095Y-86135815D01*
X158231370Y-86141309D01*
X158206819Y-86159743D01*
X158198365Y-86171069D01*
X146109585Y-86171069D01*
X146083067Y-86160085D01*
X146074530Y-86158961D01*
X145933188Y-86140353D01*
X145925000Y-86139275D01*
X145916812Y-86140353D01*
X145775471Y-86158961D01*
X145766933Y-86160085D01*
X145619638Y-86221097D01*
X145493152Y-86318152D01*
X145488126Y-86324702D01*
X145455405Y-86367345D01*
X145396097Y-86444638D01*
X145335085Y-86591933D01*
X145314275Y-86750000D01*
X145335085Y-86908067D01*
X145396097Y-87055362D01*
X145493152Y-87181848D01*
X145499702Y-87186874D01*
X145499707Y-87186879D01*
X145545204Y-87221790D01*
X145587071Y-87279128D01*
X145594500Y-87321752D01*
X145594500Y-88655082D01*
X145594020Y-88666064D01*
X145590679Y-88704249D01*
X145593533Y-88714900D01*
X145593533Y-88714902D01*
X145600603Y-88741290D01*
X145602981Y-88752018D01*
X145607726Y-88778924D01*
X145607727Y-88778927D01*
X145609641Y-88789781D01*
X145615152Y-88799327D01*
X145616421Y-88802814D01*
X145617991Y-88806182D01*
X145620845Y-88816830D01*
X145627167Y-88825859D01*
X145627169Y-88825863D01*
X145642839Y-88848242D01*
X145648745Y-88857512D01*
X145662403Y-88881169D01*
X145662406Y-88881173D01*
X145667917Y-88890718D01*
X145676362Y-88897804D01*
X145697289Y-88915364D01*
X145705393Y-88922791D01*
X146362012Y-89579410D01*
X146396038Y-89641722D01*
X146397839Y-89684950D01*
X146389275Y-89750000D01*
X146410085Y-89908067D01*
X146471097Y-90055362D01*
X146568152Y-90181848D01*
X146574705Y-90186876D01*
X146583386Y-90193538D01*
X146625253Y-90250877D01*
X146629474Y-90321748D01*
X146594709Y-90383650D01*
X146531996Y-90416931D01*
X146506681Y-90419500D01*
X145689088Y-90419500D01*
X145620967Y-90399498D01*
X145599993Y-90382595D01*
X145247791Y-90030393D01*
X145240364Y-90022289D01*
X145222804Y-90001362D01*
X145222805Y-90001362D01*
X145215718Y-89992917D01*
X145206173Y-89987406D01*
X145206169Y-89987403D01*
X145182512Y-89973745D01*
X145173242Y-89967839D01*
X145150863Y-89952169D01*
X145150859Y-89952167D01*
X145141830Y-89945845D01*
X145131182Y-89942991D01*
X145127814Y-89941421D01*
X145124327Y-89940152D01*
X145114781Y-89934641D01*
X145103927Y-89932727D01*
X145103924Y-89932726D01*
X145077018Y-89927981D01*
X145066290Y-89925603D01*
X145039902Y-89918533D01*
X145039900Y-89918533D01*
X145029249Y-89915679D01*
X145018265Y-89916640D01*
X145018264Y-89916640D01*
X144991064Y-89919020D01*
X144980082Y-89919500D01*
X142269917Y-89919500D01*
X142258935Y-89919020D01*
X142231736Y-89916640D01*
X142231735Y-89916640D01*
X142220750Y-89915679D01*
X142211838Y-89918067D01*
X142170040Y-89914409D01*
X142165696Y-89913245D01*
X142158067Y-89910085D01*
X142149883Y-89909008D01*
X142149881Y-89909007D01*
X142008188Y-89890353D01*
X142000000Y-89889275D01*
X141841933Y-89910085D01*
X141694638Y-89971097D01*
X141688087Y-89976124D01*
X141688084Y-89976126D01*
X141627923Y-90022289D01*
X141568152Y-90068152D01*
X141471097Y-90194638D01*
X141410085Y-90341933D01*
X141389275Y-90500000D01*
X119499466Y-90500000D01*
X119567363Y-90469415D01*
X119576669Y-90464235D01*
X119766024Y-90336753D01*
X119774307Y-90330094D01*
X119939478Y-90172529D01*
X119946530Y-90164558D01*
X120082790Y-89981418D01*
X120088394Y-89972381D01*
X120191851Y-89768894D01*
X120195852Y-89759041D01*
X120263544Y-89541039D01*
X120265828Y-89530652D01*
X120269300Y-89504457D01*
X120267104Y-89490293D01*
X120253919Y-89486500D01*
X118257115Y-89486500D01*
X118241876Y-89490975D01*
X118240671Y-89492365D01*
X118239000Y-89500048D01*
X118239000Y-90622385D01*
X117731000Y-90622385D01*
X117731000Y-89504615D01*
X117726525Y-89489376D01*
X117725135Y-89488171D01*
X117717452Y-89486500D01*
X115717718Y-89486500D01*
X115704187Y-89490473D01*
X115702662Y-89501080D01*
X112526100Y-89501080D01*
X112526100Y-88960543D01*
X115700700Y-88960543D01*
X115702896Y-88974707D01*
X115716081Y-88978500D01*
X117712885Y-88978500D01*
X117728124Y-88974025D01*
X117729329Y-88972635D01*
X117731000Y-88964952D01*
X117731000Y-88960385D01*
X118239000Y-88960385D01*
X118243475Y-88975624D01*
X118244865Y-88976829D01*
X118252548Y-88978500D01*
X120252282Y-88978500D01*
X120265813Y-88974527D01*
X120267338Y-88963920D01*
X120239587Y-88831660D01*
X120236527Y-88821463D01*
X120152685Y-88609160D01*
X120147951Y-88599624D01*
X120029532Y-88404475D01*
X120023266Y-88395882D01*
X119873658Y-88223473D01*
X119866028Y-88216053D01*
X119689512Y-88071320D01*
X119680745Y-88065294D01*
X119482367Y-87952371D01*
X119472703Y-87947905D01*
X119258132Y-87870019D01*
X119247865Y-87867249D01*
X119022068Y-87826419D01*
X119013838Y-87825484D01*
X118994450Y-87824570D01*
X118991474Y-87824500D01*
X118257115Y-87824500D01*
X118241876Y-87828975D01*
X118240671Y-87830365D01*
X118239000Y-87838048D01*
X118239000Y-88960385D01*
X117731000Y-88960385D01*
X117731000Y-87842615D01*
X117726525Y-87827376D01*
X117725135Y-87826171D01*
X117717452Y-87824500D01*
X117027660Y-87824500D01*
X117022351Y-87824725D01*
X116852229Y-87839160D01*
X116841741Y-87840952D01*
X116620789Y-87898301D01*
X116610761Y-87901833D01*
X116402637Y-87995585D01*
X116393331Y-88000765D01*
X116203976Y-88128247D01*
X116195693Y-88134906D01*
X116030522Y-88292471D01*
X116023470Y-88300442D01*
X115887210Y-88483582D01*
X115881606Y-88492619D01*
X115778149Y-88696106D01*
X115774148Y-88705959D01*
X115706456Y-88923961D01*
X115704172Y-88934348D01*
X115700700Y-88960543D01*
X112526100Y-88960543D01*
X112526100Y-85678251D01*
X115975797Y-85678251D01*
X115985550Y-85888975D01*
X116034974Y-86094053D01*
X116037456Y-86099511D01*
X116037457Y-86099515D01*
X116064997Y-86160085D01*
X116122286Y-86286085D01*
X116244335Y-86458143D01*
X116333571Y-86543568D01*
X116376125Y-86584304D01*
X116396717Y-86604017D01*
X116573935Y-86718445D01*
X116579501Y-86720688D01*
X116764024Y-86795053D01*
X116764027Y-86795054D01*
X116769593Y-86797297D01*
X116872962Y-86817484D01*
X116972185Y-86836861D01*
X116972188Y-86836861D01*
X116976631Y-86837729D01*
X116982172Y-86838000D01*
X118937711Y-86838000D01*
X119094996Y-86822994D01*
X119244844Y-86779033D01*
X119291651Y-86765301D01*
X119297415Y-86763610D01*
X119399735Y-86710912D01*
X119479622Y-86669768D01*
X119479625Y-86669766D01*
X119484953Y-86667022D01*
X119541291Y-86622768D01*
X119646126Y-86540420D01*
X119646131Y-86540416D01*
X119650843Y-86536714D01*
X119789099Y-86377387D01*
X119894733Y-86194792D01*
X119963933Y-85995516D01*
X119966384Y-85978614D01*
X119993342Y-85792689D01*
X119993342Y-85792686D01*
X119994203Y-85786749D01*
X119984450Y-85576025D01*
X119960205Y-85475421D01*
X119936432Y-85376780D01*
X119936431Y-85376778D01*
X119935026Y-85370947D01*
X119891913Y-85276124D01*
X119880280Y-85250539D01*
X119847714Y-85178915D01*
X119725665Y-85006857D01*
X119573283Y-84860983D01*
X119396065Y-84746555D01*
X119336132Y-84722401D01*
X119205976Y-84669947D01*
X119205973Y-84669946D01*
X119200407Y-84667703D01*
X119065903Y-84641436D01*
X118997815Y-84628139D01*
X118997812Y-84628139D01*
X118993369Y-84627271D01*
X118987828Y-84627000D01*
X117032289Y-84627000D01*
X116875004Y-84642006D01*
X116869244Y-84643696D01*
X116869243Y-84643696D01*
X116819743Y-84658218D01*
X116672585Y-84701390D01*
X116596171Y-84740746D01*
X116490378Y-84795232D01*
X116490375Y-84795234D01*
X116485047Y-84797978D01*
X116480332Y-84801682D01*
X116323874Y-84924580D01*
X116323869Y-84924584D01*
X116319157Y-84928286D01*
X116180901Y-85087613D01*
X116075267Y-85270208D01*
X116006067Y-85469484D01*
X116005206Y-85475419D01*
X116005206Y-85475421D01*
X115979876Y-85650121D01*
X115975797Y-85678251D01*
X112526100Y-85678251D01*
X112526100Y-84154600D01*
X112546102Y-84086479D01*
X112599758Y-84039986D01*
X112652100Y-84028600D01*
X172849812Y-84028600D01*
X172917933Y-84048602D01*
G37*
%TD.AperFunction*%
%TA.AperFunction,Conductor*%
G36*
X180833834Y-84048602D02*
G01*
X180880327Y-84102258D01*
X180890431Y-84172532D01*
X180860937Y-84237112D01*
X180805588Y-84274124D01*
X180783218Y-84281587D01*
X180770038Y-84287761D01*
X180632193Y-84373063D01*
X180620792Y-84382099D01*
X180506261Y-84496829D01*
X180497249Y-84508240D01*
X180412184Y-84646243D01*
X180406037Y-84659424D01*
X180354862Y-84813710D01*
X180351995Y-84827086D01*
X180342328Y-84921438D01*
X180342000Y-84927855D01*
X180342000Y-85177885D01*
X180346475Y-85193124D01*
X180347865Y-85194329D01*
X180355548Y-85196000D01*
X181478000Y-85196000D01*
X181546121Y-85216002D01*
X181592614Y-85269658D01*
X181604000Y-85322000D01*
X181604000Y-85578000D01*
X181583998Y-85646121D01*
X181530342Y-85692614D01*
X181478000Y-85704000D01*
X180360116Y-85704000D01*
X180344877Y-85708475D01*
X180343672Y-85709865D01*
X180342001Y-85717548D01*
X180342001Y-85972095D01*
X180342338Y-85978614D01*
X180352257Y-86074206D01*
X180355149Y-86087600D01*
X180406590Y-86241791D01*
X180408052Y-86244911D01*
X180408412Y-86247250D01*
X180408906Y-86248732D01*
X180408652Y-86248817D01*
X180418839Y-86315084D01*
X180389975Y-86379948D01*
X180330625Y-86418910D01*
X180259631Y-86419600D01*
X180204858Y-86387460D01*
X178061093Y-84243695D01*
X178027067Y-84181383D01*
X178032132Y-84110568D01*
X178074679Y-84053732D01*
X178141199Y-84028921D01*
X178150188Y-84028600D01*
X180765713Y-84028600D01*
X180833834Y-84048602D01*
G37*
%TD.AperFunction*%
%TD*%
M02*
