%TF.GenerationSoftware,KiCad,Pcbnew,6.0.2+dfsg-1*%
%TF.CreationDate,2022-06-15T14:14:27+02:00*%
%TF.ProjectId,accra_A,61636372-615f-4412-9e6b-696361645f70,rev?*%
%TF.SameCoordinates,Original*%
%TF.FileFunction,Legend,Top*%
%TF.FilePolarity,Positive*%
%FSLAX46Y46*%
G04 Gerber Fmt 4.6, Leading zero omitted, Abs format (unit mm)*
G04 Created by KiCad (PCBNEW 6.0.2+dfsg-1) date 2022-06-15 14:14:27*
%MOMM*%
%LPD*%
G01*
G04 APERTURE LIST*
%ADD10C,0.142240*%
%ADD11C,0.081280*%
%ADD12C,0.254000*%
%ADD13C,0.150000*%
%ADD14C,0.200000*%
%ADD15C,0.100000*%
%ADD16C,0.120000*%
G04 APERTURE END LIST*
D10*
X125704746Y-104095970D02*
X125704746Y-103317037D01*
X126172106Y-104251757D02*
X124536346Y-103706504D01*
X126172106Y-103161250D01*
X126094213Y-101914957D02*
X126172106Y-102070744D01*
X126172106Y-102382317D01*
X126094213Y-102538104D01*
X126016320Y-102615997D01*
X125860533Y-102693890D01*
X125393173Y-102693890D01*
X125237386Y-102615997D01*
X125159493Y-102538104D01*
X125081600Y-102382317D01*
X125081600Y-102070744D01*
X125159493Y-101914957D01*
X126094213Y-100512877D02*
X126172106Y-100668664D01*
X126172106Y-100980237D01*
X126094213Y-101136024D01*
X126016320Y-101213917D01*
X125860533Y-101291810D01*
X125393173Y-101291810D01*
X125237386Y-101213917D01*
X125159493Y-101136024D01*
X125081600Y-100980237D01*
X125081600Y-100668664D01*
X125159493Y-100512877D01*
X126172106Y-99811837D02*
X125081600Y-99811837D01*
X125393173Y-99811837D02*
X125237386Y-99733944D01*
X125159493Y-99656050D01*
X125081600Y-99500264D01*
X125081600Y-99344477D01*
X126172106Y-98098184D02*
X125315280Y-98098184D01*
X125159493Y-98176077D01*
X125081600Y-98331864D01*
X125081600Y-98643437D01*
X125159493Y-98799224D01*
X126094213Y-98098184D02*
X126172106Y-98253970D01*
X126172106Y-98643437D01*
X126094213Y-98799224D01*
X125938426Y-98877117D01*
X125782640Y-98877117D01*
X125626853Y-98799224D01*
X125548960Y-98643437D01*
X125548960Y-98253970D01*
X125471066Y-98098184D01*
D11*
X129082342Y-104563636D02*
X129705489Y-104385594D01*
X129260384Y-104207552D01*
X129705489Y-104029510D01*
X129082342Y-103851468D01*
X129082342Y-103584406D02*
X129705489Y-103406364D01*
X129260384Y-103228322D01*
X129705489Y-103050280D01*
X129082342Y-102872238D01*
X129082342Y-102605175D02*
X129705489Y-102427133D01*
X129260384Y-102249091D01*
X129705489Y-102071049D01*
X129082342Y-101893008D01*
X129616468Y-101536924D02*
X129660979Y-101492413D01*
X129705489Y-101536924D01*
X129660979Y-101581434D01*
X129616468Y-101536924D01*
X129705489Y-101536924D01*
X129082342Y-100691225D02*
X129839020Y-100691225D01*
X129928041Y-100735735D01*
X129972552Y-100780246D01*
X130017062Y-100869267D01*
X130017062Y-101002798D01*
X129972552Y-101091819D01*
X129660979Y-100691225D02*
X129705489Y-100780246D01*
X129705489Y-100958288D01*
X129660979Y-101047308D01*
X129616468Y-101091819D01*
X129527447Y-101136329D01*
X129260384Y-101136329D01*
X129171363Y-101091819D01*
X129126853Y-101047308D01*
X129082342Y-100958288D01*
X129082342Y-100780246D01*
X129126853Y-100691225D01*
X129705489Y-100246120D02*
X129082342Y-100246120D01*
X129260384Y-100246120D02*
X129171363Y-100201609D01*
X129126853Y-100157099D01*
X129082342Y-100068078D01*
X129082342Y-99979057D01*
X129705489Y-99533952D02*
X129660979Y-99622973D01*
X129616468Y-99667484D01*
X129527447Y-99711994D01*
X129260384Y-99711994D01*
X129171363Y-99667484D01*
X129126853Y-99622973D01*
X129082342Y-99533952D01*
X129082342Y-99400421D01*
X129126853Y-99311400D01*
X129171363Y-99266889D01*
X129260384Y-99222379D01*
X129527447Y-99222379D01*
X129616468Y-99266889D01*
X129660979Y-99311400D01*
X129705489Y-99400421D01*
X129705489Y-99533952D01*
X129705489Y-98421190D02*
X128770769Y-98421190D01*
X129660979Y-98421190D02*
X129705489Y-98510211D01*
X129705489Y-98688253D01*
X129660979Y-98777274D01*
X129616468Y-98821785D01*
X129527447Y-98866295D01*
X129260384Y-98866295D01*
X129171363Y-98821785D01*
X129126853Y-98777274D01*
X129082342Y-98688253D01*
X129082342Y-98510211D01*
X129126853Y-98421190D01*
X129705489Y-97575491D02*
X129215874Y-97575491D01*
X129126853Y-97620002D01*
X129082342Y-97709023D01*
X129082342Y-97887065D01*
X129126853Y-97976086D01*
X129660979Y-97575491D02*
X129705489Y-97664512D01*
X129705489Y-97887065D01*
X129660979Y-97976086D01*
X129571958Y-98020596D01*
X129482937Y-98020596D01*
X129393916Y-97976086D01*
X129349405Y-97887065D01*
X129349405Y-97664512D01*
X129304895Y-97575491D01*
X129082342Y-97130387D02*
X129705489Y-97130387D01*
X129171363Y-97130387D02*
X129126853Y-97085876D01*
X129082342Y-96996855D01*
X129082342Y-96863324D01*
X129126853Y-96774303D01*
X129215874Y-96729792D01*
X129705489Y-96729792D01*
X129660979Y-96329198D02*
X129705489Y-96240177D01*
X129705489Y-96062135D01*
X129660979Y-95973114D01*
X129571958Y-95928604D01*
X129527447Y-95928604D01*
X129438426Y-95973114D01*
X129393916Y-96062135D01*
X129393916Y-96195667D01*
X129349405Y-96284688D01*
X129260384Y-96329198D01*
X129215874Y-96329198D01*
X129126853Y-96284688D01*
X129082342Y-96195667D01*
X129082342Y-96062135D01*
X129126853Y-95973114D01*
X129082342Y-95528009D02*
X130017062Y-95528009D01*
X129126853Y-95528009D02*
X129082342Y-95438988D01*
X129082342Y-95260947D01*
X129126853Y-95171926D01*
X129171363Y-95127415D01*
X129260384Y-95082905D01*
X129527447Y-95082905D01*
X129616468Y-95127415D01*
X129660979Y-95171926D01*
X129705489Y-95260947D01*
X129705489Y-95438988D01*
X129660979Y-95528009D01*
X129705489Y-94281716D02*
X129215874Y-94281716D01*
X129126853Y-94326227D01*
X129082342Y-94415248D01*
X129082342Y-94593289D01*
X129126853Y-94682310D01*
X129660979Y-94281716D02*
X129705489Y-94370737D01*
X129705489Y-94593289D01*
X129660979Y-94682310D01*
X129571958Y-94726821D01*
X129482937Y-94726821D01*
X129393916Y-94682310D01*
X129349405Y-94593289D01*
X129349405Y-94370737D01*
X129304895Y-94281716D01*
X129705489Y-93836611D02*
X129082342Y-93836611D01*
X129260384Y-93836611D02*
X129171363Y-93792101D01*
X129126853Y-93747590D01*
X129082342Y-93658569D01*
X129082342Y-93569548D01*
X129705489Y-92857381D02*
X129215874Y-92857381D01*
X129126853Y-92901891D01*
X129082342Y-92990912D01*
X129082342Y-93168954D01*
X129126853Y-93257975D01*
X129660979Y-92857381D02*
X129705489Y-92946402D01*
X129705489Y-93168954D01*
X129660979Y-93257975D01*
X129571958Y-93302486D01*
X129482937Y-93302486D01*
X129393916Y-93257975D01*
X129349405Y-93168954D01*
X129349405Y-92946402D01*
X129304895Y-92857381D01*
X129705489Y-92011682D02*
X128770769Y-92011682D01*
X129660979Y-92011682D02*
X129705489Y-92100703D01*
X129705489Y-92278745D01*
X129660979Y-92367766D01*
X129616468Y-92412276D01*
X129527447Y-92456787D01*
X129260384Y-92456787D01*
X129171363Y-92412276D01*
X129126853Y-92367766D01*
X129082342Y-92278745D01*
X129082342Y-92100703D01*
X129126853Y-92011682D01*
X129705489Y-91566577D02*
X129082342Y-91566577D01*
X128770769Y-91566577D02*
X128815280Y-91611088D01*
X128859790Y-91566577D01*
X128815280Y-91522067D01*
X128770769Y-91566577D01*
X128859790Y-91566577D01*
X129660979Y-91165983D02*
X129705489Y-91076962D01*
X129705489Y-90898920D01*
X129660979Y-90809899D01*
X129571958Y-90765388D01*
X129527447Y-90765388D01*
X129438426Y-90809899D01*
X129393916Y-90898920D01*
X129393916Y-91032451D01*
X129349405Y-91121472D01*
X129260384Y-91165983D01*
X129215874Y-91165983D01*
X129126853Y-91121472D01*
X129082342Y-91032451D01*
X129082342Y-90898920D01*
X129126853Y-90809899D01*
X129616468Y-90364794D02*
X129660979Y-90320284D01*
X129705489Y-90364794D01*
X129660979Y-90409305D01*
X129616468Y-90364794D01*
X129705489Y-90364794D01*
X129660979Y-89519095D02*
X129705489Y-89608116D01*
X129705489Y-89786158D01*
X129660979Y-89875179D01*
X129616468Y-89919689D01*
X129527447Y-89964200D01*
X129260384Y-89964200D01*
X129171363Y-89919689D01*
X129126853Y-89875179D01*
X129082342Y-89786158D01*
X129082342Y-89608116D01*
X129126853Y-89519095D01*
X129705489Y-88984969D02*
X129660979Y-89073990D01*
X129616468Y-89118501D01*
X129527447Y-89163011D01*
X129260384Y-89163011D01*
X129171363Y-89118501D01*
X129126853Y-89073990D01*
X129082342Y-88984969D01*
X129082342Y-88851438D01*
X129126853Y-88762417D01*
X129171363Y-88717907D01*
X129260384Y-88673396D01*
X129527447Y-88673396D01*
X129616468Y-88717907D01*
X129660979Y-88762417D01*
X129705489Y-88851438D01*
X129705489Y-88984969D01*
X129705489Y-88272802D02*
X129082342Y-88272802D01*
X129171363Y-88272802D02*
X129126853Y-88228291D01*
X129082342Y-88139270D01*
X129082342Y-88005739D01*
X129126853Y-87916718D01*
X129215874Y-87872208D01*
X129705489Y-87872208D01*
X129215874Y-87872208D02*
X129126853Y-87827697D01*
X129082342Y-87738676D01*
X129082342Y-87605145D01*
X129126853Y-87516124D01*
X129215874Y-87471613D01*
X129705489Y-87471613D01*
X127020769Y-104608147D02*
X127955489Y-104296573D01*
X127020769Y-103985000D01*
X127910979Y-103317343D02*
X127955489Y-103406364D01*
X127955489Y-103584406D01*
X127910979Y-103673427D01*
X127821958Y-103717937D01*
X127465874Y-103717937D01*
X127376853Y-103673427D01*
X127332342Y-103584406D01*
X127332342Y-103406364D01*
X127376853Y-103317343D01*
X127465874Y-103272832D01*
X127554895Y-103272832D01*
X127643916Y-103717937D01*
X127955489Y-102872238D02*
X127332342Y-102872238D01*
X127510384Y-102872238D02*
X127421363Y-102827728D01*
X127376853Y-102783217D01*
X127332342Y-102694196D01*
X127332342Y-102605175D01*
X127910979Y-102338112D02*
X127955489Y-102249091D01*
X127955489Y-102071049D01*
X127910979Y-101982028D01*
X127821958Y-101937518D01*
X127777447Y-101937518D01*
X127688426Y-101982028D01*
X127643916Y-102071049D01*
X127643916Y-102204581D01*
X127599405Y-102293602D01*
X127510384Y-102338112D01*
X127465874Y-102338112D01*
X127376853Y-102293602D01*
X127332342Y-102204581D01*
X127332342Y-102071049D01*
X127376853Y-101982028D01*
X127955489Y-101536924D02*
X127332342Y-101536924D01*
X127020769Y-101536924D02*
X127065280Y-101581434D01*
X127109790Y-101536924D01*
X127065280Y-101492413D01*
X127020769Y-101536924D01*
X127109790Y-101536924D01*
X127955489Y-100958288D02*
X127910979Y-101047308D01*
X127866468Y-101091819D01*
X127777447Y-101136329D01*
X127510384Y-101136329D01*
X127421363Y-101091819D01*
X127376853Y-101047308D01*
X127332342Y-100958288D01*
X127332342Y-100824756D01*
X127376853Y-100735735D01*
X127421363Y-100691225D01*
X127510384Y-100646714D01*
X127777447Y-100646714D01*
X127866468Y-100691225D01*
X127910979Y-100735735D01*
X127955489Y-100824756D01*
X127955489Y-100958288D01*
X127332342Y-100246120D02*
X127955489Y-100246120D01*
X127421363Y-100246120D02*
X127376853Y-100201609D01*
X127332342Y-100112588D01*
X127332342Y-99979057D01*
X127376853Y-99890036D01*
X127465874Y-99845526D01*
X127955489Y-99845526D01*
X127109790Y-98732764D02*
X127065280Y-98688253D01*
X127020769Y-98599232D01*
X127020769Y-98376680D01*
X127065280Y-98287659D01*
X127109790Y-98243148D01*
X127198811Y-98198638D01*
X127287832Y-98198638D01*
X127421363Y-98243148D01*
X127955489Y-98777274D01*
X127955489Y-98198638D01*
X127910979Y-97753533D02*
X127955489Y-97753533D01*
X128044510Y-97798044D01*
X128089020Y-97842554D01*
X127955489Y-96640771D02*
X127332342Y-96640771D01*
X127510384Y-96640771D02*
X127421363Y-96596261D01*
X127376853Y-96551750D01*
X127332342Y-96462729D01*
X127332342Y-96373708D01*
X127910979Y-95706051D02*
X127955489Y-95795072D01*
X127955489Y-95973114D01*
X127910979Y-96062135D01*
X127821958Y-96106646D01*
X127465874Y-96106646D01*
X127376853Y-96062135D01*
X127332342Y-95973114D01*
X127332342Y-95795072D01*
X127376853Y-95706051D01*
X127465874Y-95661541D01*
X127554895Y-95661541D01*
X127643916Y-96106646D01*
X127332342Y-95349968D02*
X127955489Y-95127415D01*
X127332342Y-94904863D01*
X127688426Y-93881122D02*
X127688426Y-93436017D01*
X127955489Y-93970143D02*
X127020769Y-93658569D01*
X127955489Y-93346996D01*
D12*
%TO.C,IC1*%
X166510238Y-105074523D02*
X166510238Y-103804523D01*
X167840714Y-104953571D02*
X167780238Y-105014047D01*
X167598809Y-105074523D01*
X167477857Y-105074523D01*
X167296428Y-105014047D01*
X167175476Y-104893095D01*
X167115000Y-104772142D01*
X167054523Y-104530238D01*
X167054523Y-104348809D01*
X167115000Y-104106904D01*
X167175476Y-103985952D01*
X167296428Y-103865000D01*
X167477857Y-103804523D01*
X167598809Y-103804523D01*
X167780238Y-103865000D01*
X167840714Y-103925476D01*
X169050238Y-105074523D02*
X168324523Y-105074523D01*
X168687380Y-105074523D02*
X168687380Y-103804523D01*
X168566428Y-103985952D01*
X168445476Y-104106904D01*
X168324523Y-104167380D01*
D13*
%TO.C,J4*%
X121952380Y-124833333D02*
X122666666Y-124833333D01*
X122809523Y-124880952D01*
X122904761Y-124976190D01*
X122952380Y-125119047D01*
X122952380Y-125214285D01*
X122285714Y-123928571D02*
X122952380Y-123928571D01*
X121904761Y-124166666D02*
X122619047Y-124404761D01*
X122619047Y-123785714D01*
%TO.C,J5*%
X152916666Y-102702380D02*
X152916666Y-103416666D01*
X152869047Y-103559523D01*
X152773809Y-103654761D01*
X152630952Y-103702380D01*
X152535714Y-103702380D01*
X153869047Y-102702380D02*
X153392857Y-102702380D01*
X153345238Y-103178571D01*
X153392857Y-103130952D01*
X153488095Y-103083333D01*
X153726190Y-103083333D01*
X153821428Y-103130952D01*
X153869047Y-103178571D01*
X153916666Y-103273809D01*
X153916666Y-103511904D01*
X153869047Y-103607142D01*
X153821428Y-103654761D01*
X153726190Y-103702380D01*
X153488095Y-103702380D01*
X153392857Y-103654761D01*
X153345238Y-103607142D01*
%TO.C,J3*%
X148666666Y-96702380D02*
X148666666Y-97416666D01*
X148619047Y-97559523D01*
X148523809Y-97654761D01*
X148380952Y-97702380D01*
X148285714Y-97702380D01*
X149047619Y-96702380D02*
X149666666Y-96702380D01*
X149333333Y-97083333D01*
X149476190Y-97083333D01*
X149571428Y-97130952D01*
X149619047Y-97178571D01*
X149666666Y-97273809D01*
X149666666Y-97511904D01*
X149619047Y-97607142D01*
X149571428Y-97654761D01*
X149476190Y-97702380D01*
X149190476Y-97702380D01*
X149095238Y-97654761D01*
X149047619Y-97607142D01*
%TO.C,R14*%
X138702380Y-104892857D02*
X138226190Y-105226190D01*
X138702380Y-105464285D02*
X137702380Y-105464285D01*
X137702380Y-105083333D01*
X137750000Y-104988095D01*
X137797619Y-104940476D01*
X137892857Y-104892857D01*
X138035714Y-104892857D01*
X138130952Y-104940476D01*
X138178571Y-104988095D01*
X138226190Y-105083333D01*
X138226190Y-105464285D01*
X138702380Y-103940476D02*
X138702380Y-104511904D01*
X138702380Y-104226190D02*
X137702380Y-104226190D01*
X137845238Y-104321428D01*
X137940476Y-104416666D01*
X137988095Y-104511904D01*
X138035714Y-103083333D02*
X138702380Y-103083333D01*
X137654761Y-103321428D02*
X138369047Y-103559523D01*
X138369047Y-102940476D01*
%TO.C,R13*%
X141202380Y-104892857D02*
X140726190Y-105226190D01*
X141202380Y-105464285D02*
X140202380Y-105464285D01*
X140202380Y-105083333D01*
X140250000Y-104988095D01*
X140297619Y-104940476D01*
X140392857Y-104892857D01*
X140535714Y-104892857D01*
X140630952Y-104940476D01*
X140678571Y-104988095D01*
X140726190Y-105083333D01*
X140726190Y-105464285D01*
X141202380Y-103940476D02*
X141202380Y-104511904D01*
X141202380Y-104226190D02*
X140202380Y-104226190D01*
X140345238Y-104321428D01*
X140440476Y-104416666D01*
X140488095Y-104511904D01*
X140202380Y-103607142D02*
X140202380Y-102988095D01*
X140583333Y-103321428D01*
X140583333Y-103178571D01*
X140630952Y-103083333D01*
X140678571Y-103035714D01*
X140773809Y-102988095D01*
X141011904Y-102988095D01*
X141107142Y-103035714D01*
X141154761Y-103083333D01*
X141202380Y-103178571D01*
X141202380Y-103464285D01*
X141154761Y-103559523D01*
X141107142Y-103607142D01*
%TO.C,R12*%
X143702380Y-104892857D02*
X143226190Y-105226190D01*
X143702380Y-105464285D02*
X142702380Y-105464285D01*
X142702380Y-105083333D01*
X142750000Y-104988095D01*
X142797619Y-104940476D01*
X142892857Y-104892857D01*
X143035714Y-104892857D01*
X143130952Y-104940476D01*
X143178571Y-104988095D01*
X143226190Y-105083333D01*
X143226190Y-105464285D01*
X143702380Y-103940476D02*
X143702380Y-104511904D01*
X143702380Y-104226190D02*
X142702380Y-104226190D01*
X142845238Y-104321428D01*
X142940476Y-104416666D01*
X142988095Y-104511904D01*
X142797619Y-103559523D02*
X142750000Y-103511904D01*
X142702380Y-103416666D01*
X142702380Y-103178571D01*
X142750000Y-103083333D01*
X142797619Y-103035714D01*
X142892857Y-102988095D01*
X142988095Y-102988095D01*
X143130952Y-103035714D01*
X143702380Y-103607142D01*
X143702380Y-102988095D01*
%TO.C,R11*%
X146107142Y-103952380D02*
X145773809Y-103476190D01*
X145535714Y-103952380D02*
X145535714Y-102952380D01*
X145916666Y-102952380D01*
X146011904Y-103000000D01*
X146059523Y-103047619D01*
X146107142Y-103142857D01*
X146107142Y-103285714D01*
X146059523Y-103380952D01*
X146011904Y-103428571D01*
X145916666Y-103476190D01*
X145535714Y-103476190D01*
X147059523Y-103952380D02*
X146488095Y-103952380D01*
X146773809Y-103952380D02*
X146773809Y-102952380D01*
X146678571Y-103095238D01*
X146583333Y-103190476D01*
X146488095Y-103238095D01*
X148011904Y-103952380D02*
X147440476Y-103952380D01*
X147726190Y-103952380D02*
X147726190Y-102952380D01*
X147630952Y-103095238D01*
X147535714Y-103190476D01*
X147440476Y-103238095D01*
%TO.C,R10*%
X126357142Y-115702380D02*
X126023809Y-115226190D01*
X125785714Y-115702380D02*
X125785714Y-114702380D01*
X126166666Y-114702380D01*
X126261904Y-114750000D01*
X126309523Y-114797619D01*
X126357142Y-114892857D01*
X126357142Y-115035714D01*
X126309523Y-115130952D01*
X126261904Y-115178571D01*
X126166666Y-115226190D01*
X125785714Y-115226190D01*
X127309523Y-115702380D02*
X126738095Y-115702380D01*
X127023809Y-115702380D02*
X127023809Y-114702380D01*
X126928571Y-114845238D01*
X126833333Y-114940476D01*
X126738095Y-114988095D01*
X127928571Y-114702380D02*
X128023809Y-114702380D01*
X128119047Y-114750000D01*
X128166666Y-114797619D01*
X128214285Y-114892857D01*
X128261904Y-115083333D01*
X128261904Y-115321428D01*
X128214285Y-115511904D01*
X128166666Y-115607142D01*
X128119047Y-115654761D01*
X128023809Y-115702380D01*
X127928571Y-115702380D01*
X127833333Y-115654761D01*
X127785714Y-115607142D01*
X127738095Y-115511904D01*
X127690476Y-115321428D01*
X127690476Y-115083333D01*
X127738095Y-114892857D01*
X127785714Y-114797619D01*
X127833333Y-114750000D01*
X127928571Y-114702380D01*
%TO.C,R9*%
X143920833Y-108852380D02*
X143587500Y-108376190D01*
X143349404Y-108852380D02*
X143349404Y-107852380D01*
X143730357Y-107852380D01*
X143825595Y-107900000D01*
X143873214Y-107947619D01*
X143920833Y-108042857D01*
X143920833Y-108185714D01*
X143873214Y-108280952D01*
X143825595Y-108328571D01*
X143730357Y-108376190D01*
X143349404Y-108376190D01*
X144397023Y-108852380D02*
X144587500Y-108852380D01*
X144682738Y-108804761D01*
X144730357Y-108757142D01*
X144825595Y-108614285D01*
X144873214Y-108423809D01*
X144873214Y-108042857D01*
X144825595Y-107947619D01*
X144777976Y-107900000D01*
X144682738Y-107852380D01*
X144492261Y-107852380D01*
X144397023Y-107900000D01*
X144349404Y-107947619D01*
X144301785Y-108042857D01*
X144301785Y-108280952D01*
X144349404Y-108376190D01*
X144397023Y-108423809D01*
X144492261Y-108471428D01*
X144682738Y-108471428D01*
X144777976Y-108423809D01*
X144825595Y-108376190D01*
X144873214Y-108280952D01*
%TO.C,R8*%
X142833333Y-87202380D02*
X142500000Y-86726190D01*
X142261904Y-87202380D02*
X142261904Y-86202380D01*
X142642857Y-86202380D01*
X142738095Y-86250000D01*
X142785714Y-86297619D01*
X142833333Y-86392857D01*
X142833333Y-86535714D01*
X142785714Y-86630952D01*
X142738095Y-86678571D01*
X142642857Y-86726190D01*
X142261904Y-86726190D01*
X143404761Y-86630952D02*
X143309523Y-86583333D01*
X143261904Y-86535714D01*
X143214285Y-86440476D01*
X143214285Y-86392857D01*
X143261904Y-86297619D01*
X143309523Y-86250000D01*
X143404761Y-86202380D01*
X143595238Y-86202380D01*
X143690476Y-86250000D01*
X143738095Y-86297619D01*
X143785714Y-86392857D01*
X143785714Y-86440476D01*
X143738095Y-86535714D01*
X143690476Y-86583333D01*
X143595238Y-86630952D01*
X143404761Y-86630952D01*
X143309523Y-86678571D01*
X143261904Y-86726190D01*
X143214285Y-86821428D01*
X143214285Y-87011904D01*
X143261904Y-87107142D01*
X143309523Y-87154761D01*
X143404761Y-87202380D01*
X143595238Y-87202380D01*
X143690476Y-87154761D01*
X143738095Y-87107142D01*
X143785714Y-87011904D01*
X143785714Y-86821428D01*
X143738095Y-86726190D01*
X143690476Y-86678571D01*
X143595238Y-86630952D01*
%TO.C,R7*%
X146670833Y-85552380D02*
X146337500Y-85076190D01*
X146099404Y-85552380D02*
X146099404Y-84552380D01*
X146480357Y-84552380D01*
X146575595Y-84600000D01*
X146623214Y-84647619D01*
X146670833Y-84742857D01*
X146670833Y-84885714D01*
X146623214Y-84980952D01*
X146575595Y-85028571D01*
X146480357Y-85076190D01*
X146099404Y-85076190D01*
X147004166Y-84552380D02*
X147670833Y-84552380D01*
X147242261Y-85552380D01*
%TO.C,R6*%
X358038333Y-85277380D02*
X357705000Y-84801190D01*
X357466904Y-85277380D02*
X357466904Y-84277380D01*
X357847857Y-84277380D01*
X357943095Y-84325000D01*
X357990714Y-84372619D01*
X358038333Y-84467857D01*
X358038333Y-84610714D01*
X357990714Y-84705952D01*
X357943095Y-84753571D01*
X357847857Y-84801190D01*
X357466904Y-84801190D01*
X358895476Y-84277380D02*
X358705000Y-84277380D01*
X358609761Y-84325000D01*
X358562142Y-84372619D01*
X358466904Y-84515476D01*
X358419285Y-84705952D01*
X358419285Y-85086904D01*
X358466904Y-85182142D01*
X358514523Y-85229761D01*
X358609761Y-85277380D01*
X358800238Y-85277380D01*
X358895476Y-85229761D01*
X358943095Y-85182142D01*
X358990714Y-85086904D01*
X358990714Y-84848809D01*
X358943095Y-84753571D01*
X358895476Y-84705952D01*
X358800238Y-84658333D01*
X358609761Y-84658333D01*
X358514523Y-84705952D01*
X358466904Y-84753571D01*
X358419285Y-84848809D01*
%TO.C,R5*%
X164364880Y-106416666D02*
X163888690Y-106750000D01*
X164364880Y-106988095D02*
X163364880Y-106988095D01*
X163364880Y-106607142D01*
X163412500Y-106511904D01*
X163460119Y-106464285D01*
X163555357Y-106416666D01*
X163698214Y-106416666D01*
X163793452Y-106464285D01*
X163841071Y-106511904D01*
X163888690Y-106607142D01*
X163888690Y-106988095D01*
X163364880Y-105511904D02*
X163364880Y-105988095D01*
X163841071Y-106035714D01*
X163793452Y-105988095D01*
X163745833Y-105892857D01*
X163745833Y-105654761D01*
X163793452Y-105559523D01*
X163841071Y-105511904D01*
X163936309Y-105464285D01*
X164174404Y-105464285D01*
X164269642Y-105511904D01*
X164317261Y-105559523D01*
X164364880Y-105654761D01*
X164364880Y-105892857D01*
X164317261Y-105988095D01*
X164269642Y-106035714D01*
%TO.C,D3*%
X166202380Y-86738095D02*
X165202380Y-86738095D01*
X165202380Y-86500000D01*
X165250000Y-86357142D01*
X165345238Y-86261904D01*
X165440476Y-86214285D01*
X165630952Y-86166666D01*
X165773809Y-86166666D01*
X165964285Y-86214285D01*
X166059523Y-86261904D01*
X166154761Y-86357142D01*
X166202380Y-86500000D01*
X166202380Y-86738095D01*
X165202380Y-85833333D02*
X165202380Y-85214285D01*
X165583333Y-85547619D01*
X165583333Y-85404761D01*
X165630952Y-85309523D01*
X165678571Y-85261904D01*
X165773809Y-85214285D01*
X166011904Y-85214285D01*
X166107142Y-85261904D01*
X166154761Y-85309523D01*
X166202380Y-85404761D01*
X166202380Y-85690476D01*
X166154761Y-85785714D01*
X166107142Y-85833333D01*
%TO.C,D2*%
X172211904Y-121552380D02*
X172211904Y-120552380D01*
X172450000Y-120552380D01*
X172592857Y-120600000D01*
X172688095Y-120695238D01*
X172735714Y-120790476D01*
X172783333Y-120980952D01*
X172783333Y-121123809D01*
X172735714Y-121314285D01*
X172688095Y-121409523D01*
X172592857Y-121504761D01*
X172450000Y-121552380D01*
X172211904Y-121552380D01*
X173164285Y-120647619D02*
X173211904Y-120600000D01*
X173307142Y-120552380D01*
X173545238Y-120552380D01*
X173640476Y-120600000D01*
X173688095Y-120647619D01*
X173735714Y-120742857D01*
X173735714Y-120838095D01*
X173688095Y-120980952D01*
X173116666Y-121552380D01*
X173735714Y-121552380D01*
%TO.C,R4*%
X167783333Y-93602380D02*
X167450000Y-93126190D01*
X167211904Y-93602380D02*
X167211904Y-92602380D01*
X167592857Y-92602380D01*
X167688095Y-92650000D01*
X167735714Y-92697619D01*
X167783333Y-92792857D01*
X167783333Y-92935714D01*
X167735714Y-93030952D01*
X167688095Y-93078571D01*
X167592857Y-93126190D01*
X167211904Y-93126190D01*
X168640476Y-92935714D02*
X168640476Y-93602380D01*
X168402380Y-92554761D02*
X168164285Y-93269047D01*
X168783333Y-93269047D01*
%TO.C,J1*%
X173702380Y-108333333D02*
X174416666Y-108333333D01*
X174559523Y-108380952D01*
X174654761Y-108476190D01*
X174702380Y-108619047D01*
X174702380Y-108714285D01*
X174702380Y-107333333D02*
X174702380Y-107904761D01*
X174702380Y-107619047D02*
X173702380Y-107619047D01*
X173845238Y-107714285D01*
X173940476Y-107809523D01*
X173988095Y-107904761D01*
%TO.C,C5*%
X169733333Y-85307142D02*
X169685714Y-85354761D01*
X169542857Y-85402380D01*
X169447619Y-85402380D01*
X169304761Y-85354761D01*
X169209523Y-85259523D01*
X169161904Y-85164285D01*
X169114285Y-84973809D01*
X169114285Y-84830952D01*
X169161904Y-84640476D01*
X169209523Y-84545238D01*
X169304761Y-84450000D01*
X169447619Y-84402380D01*
X169542857Y-84402380D01*
X169685714Y-84450000D01*
X169733333Y-84497619D01*
X170638095Y-84402380D02*
X170161904Y-84402380D01*
X170114285Y-84878571D01*
X170161904Y-84830952D01*
X170257142Y-84783333D01*
X170495238Y-84783333D01*
X170590476Y-84830952D01*
X170638095Y-84878571D01*
X170685714Y-84973809D01*
X170685714Y-85211904D01*
X170638095Y-85307142D01*
X170590476Y-85354761D01*
X170495238Y-85402380D01*
X170257142Y-85402380D01*
X170161904Y-85354761D01*
X170114285Y-85307142D01*
%TO.C,JP1*%
X147166666Y-116447380D02*
X147166666Y-117161666D01*
X147119047Y-117304523D01*
X147023809Y-117399761D01*
X146880952Y-117447380D01*
X146785714Y-117447380D01*
X147642857Y-117447380D02*
X147642857Y-116447380D01*
X148023809Y-116447380D01*
X148119047Y-116495000D01*
X148166666Y-116542619D01*
X148214285Y-116637857D01*
X148214285Y-116780714D01*
X148166666Y-116875952D01*
X148119047Y-116923571D01*
X148023809Y-116971190D01*
X147642857Y-116971190D01*
X149166666Y-117447380D02*
X148595238Y-117447380D01*
X148880952Y-117447380D02*
X148880952Y-116447380D01*
X148785714Y-116590238D01*
X148690476Y-116685476D01*
X148595238Y-116733095D01*
%TO.C,R3*%
X163983333Y-93452380D02*
X163650000Y-92976190D01*
X163411904Y-93452380D02*
X163411904Y-92452380D01*
X163792857Y-92452380D01*
X163888095Y-92500000D01*
X163935714Y-92547619D01*
X163983333Y-92642857D01*
X163983333Y-92785714D01*
X163935714Y-92880952D01*
X163888095Y-92928571D01*
X163792857Y-92976190D01*
X163411904Y-92976190D01*
X164316666Y-92452380D02*
X164935714Y-92452380D01*
X164602380Y-92833333D01*
X164745238Y-92833333D01*
X164840476Y-92880952D01*
X164888095Y-92928571D01*
X164935714Y-93023809D01*
X164935714Y-93261904D01*
X164888095Y-93357142D01*
X164840476Y-93404761D01*
X164745238Y-93452380D01*
X164459523Y-93452380D01*
X164364285Y-93404761D01*
X164316666Y-93357142D01*
%TO.C,R2*%
X163933333Y-97002380D02*
X163600000Y-96526190D01*
X163361904Y-97002380D02*
X163361904Y-96002380D01*
X163742857Y-96002380D01*
X163838095Y-96050000D01*
X163885714Y-96097619D01*
X163933333Y-96192857D01*
X163933333Y-96335714D01*
X163885714Y-96430952D01*
X163838095Y-96478571D01*
X163742857Y-96526190D01*
X163361904Y-96526190D01*
X164314285Y-96097619D02*
X164361904Y-96050000D01*
X164457142Y-96002380D01*
X164695238Y-96002380D01*
X164790476Y-96050000D01*
X164838095Y-96097619D01*
X164885714Y-96192857D01*
X164885714Y-96288095D01*
X164838095Y-96430952D01*
X164266666Y-97002380D01*
X164885714Y-97002380D01*
%TO.C,R1*%
X172733333Y-117902380D02*
X172400000Y-117426190D01*
X172161904Y-117902380D02*
X172161904Y-116902380D01*
X172542857Y-116902380D01*
X172638095Y-116950000D01*
X172685714Y-116997619D01*
X172733333Y-117092857D01*
X172733333Y-117235714D01*
X172685714Y-117330952D01*
X172638095Y-117378571D01*
X172542857Y-117426190D01*
X172161904Y-117426190D01*
X173685714Y-117902380D02*
X173114285Y-117902380D01*
X173400000Y-117902380D02*
X173400000Y-116902380D01*
X173304761Y-117045238D01*
X173209523Y-117140476D01*
X173114285Y-117188095D01*
%TO.C,C4*%
X151083333Y-121207142D02*
X151035714Y-121254761D01*
X150892857Y-121302380D01*
X150797619Y-121302380D01*
X150654761Y-121254761D01*
X150559523Y-121159523D01*
X150511904Y-121064285D01*
X150464285Y-120873809D01*
X150464285Y-120730952D01*
X150511904Y-120540476D01*
X150559523Y-120445238D01*
X150654761Y-120350000D01*
X150797619Y-120302380D01*
X150892857Y-120302380D01*
X151035714Y-120350000D01*
X151083333Y-120397619D01*
X151940476Y-120635714D02*
X151940476Y-121302380D01*
X151702380Y-120254761D02*
X151464285Y-120969047D01*
X152083333Y-120969047D01*
%TO.C,C3*%
X159983333Y-93607142D02*
X159935714Y-93654761D01*
X159792857Y-93702380D01*
X159697619Y-93702380D01*
X159554761Y-93654761D01*
X159459523Y-93559523D01*
X159411904Y-93464285D01*
X159364285Y-93273809D01*
X159364285Y-93130952D01*
X159411904Y-92940476D01*
X159459523Y-92845238D01*
X159554761Y-92750000D01*
X159697619Y-92702380D01*
X159792857Y-92702380D01*
X159935714Y-92750000D01*
X159983333Y-92797619D01*
X160316666Y-92702380D02*
X160935714Y-92702380D01*
X160602380Y-93083333D01*
X160745238Y-93083333D01*
X160840476Y-93130952D01*
X160888095Y-93178571D01*
X160935714Y-93273809D01*
X160935714Y-93511904D01*
X160888095Y-93607142D01*
X160840476Y-93654761D01*
X160745238Y-93702380D01*
X160459523Y-93702380D01*
X160364285Y-93654761D01*
X160316666Y-93607142D01*
%TO.C,U1*%
X158238095Y-114702380D02*
X158238095Y-115511904D01*
X158285714Y-115607142D01*
X158333333Y-115654761D01*
X158428571Y-115702380D01*
X158619047Y-115702380D01*
X158714285Y-115654761D01*
X158761904Y-115607142D01*
X158809523Y-115511904D01*
X158809523Y-114702380D01*
X159809523Y-115702380D02*
X159238095Y-115702380D01*
X159523809Y-115702380D02*
X159523809Y-114702380D01*
X159428571Y-114845238D01*
X159333333Y-114940476D01*
X159238095Y-114988095D01*
%TO.C,D1*%
X143911904Y-111902380D02*
X143911904Y-110902380D01*
X144150000Y-110902380D01*
X144292857Y-110950000D01*
X144388095Y-111045238D01*
X144435714Y-111140476D01*
X144483333Y-111330952D01*
X144483333Y-111473809D01*
X144435714Y-111664285D01*
X144388095Y-111759523D01*
X144292857Y-111854761D01*
X144150000Y-111902380D01*
X143911904Y-111902380D01*
X145435714Y-111902380D02*
X144864285Y-111902380D01*
X145150000Y-111902380D02*
X145150000Y-110902380D01*
X145054761Y-111045238D01*
X144959523Y-111140476D01*
X144864285Y-111188095D01*
%TO.C,SW1*%
X155391666Y-89397261D02*
X155534523Y-89444880D01*
X155772619Y-89444880D01*
X155867857Y-89397261D01*
X155915476Y-89349642D01*
X155963095Y-89254404D01*
X155963095Y-89159166D01*
X155915476Y-89063928D01*
X155867857Y-89016309D01*
X155772619Y-88968690D01*
X155582142Y-88921071D01*
X155486904Y-88873452D01*
X155439285Y-88825833D01*
X155391666Y-88730595D01*
X155391666Y-88635357D01*
X155439285Y-88540119D01*
X155486904Y-88492500D01*
X155582142Y-88444880D01*
X155820238Y-88444880D01*
X155963095Y-88492500D01*
X156296428Y-88444880D02*
X156534523Y-89444880D01*
X156725000Y-88730595D01*
X156915476Y-89444880D01*
X157153571Y-88444880D01*
X158058333Y-89444880D02*
X157486904Y-89444880D01*
X157772619Y-89444880D02*
X157772619Y-88444880D01*
X157677380Y-88587738D01*
X157582142Y-88682976D01*
X157486904Y-88730595D01*
%TO.C,U2*%
X155888095Y-116902380D02*
X155888095Y-117711904D01*
X155935714Y-117807142D01*
X155983333Y-117854761D01*
X156078571Y-117902380D01*
X156269047Y-117902380D01*
X156364285Y-117854761D01*
X156411904Y-117807142D01*
X156459523Y-117711904D01*
X156459523Y-116902380D01*
X156888095Y-116997619D02*
X156935714Y-116950000D01*
X157030952Y-116902380D01*
X157269047Y-116902380D01*
X157364285Y-116950000D01*
X157411904Y-116997619D01*
X157459523Y-117092857D01*
X157459523Y-117188095D01*
X157411904Y-117330952D01*
X156840476Y-117902380D01*
X157459523Y-117902380D01*
%TO.C,C2*%
X165383333Y-115157142D02*
X165335714Y-115204761D01*
X165192857Y-115252380D01*
X165097619Y-115252380D01*
X164954761Y-115204761D01*
X164859523Y-115109523D01*
X164811904Y-115014285D01*
X164764285Y-114823809D01*
X164764285Y-114680952D01*
X164811904Y-114490476D01*
X164859523Y-114395238D01*
X164954761Y-114300000D01*
X165097619Y-114252380D01*
X165192857Y-114252380D01*
X165335714Y-114300000D01*
X165383333Y-114347619D01*
X165764285Y-114347619D02*
X165811904Y-114300000D01*
X165907142Y-114252380D01*
X166145238Y-114252380D01*
X166240476Y-114300000D01*
X166288095Y-114347619D01*
X166335714Y-114442857D01*
X166335714Y-114538095D01*
X166288095Y-114680952D01*
X165716666Y-115252380D01*
X166335714Y-115252380D01*
%TO.C,R17*%
X154919642Y-124252380D02*
X154586309Y-123776190D01*
X154348214Y-124252380D02*
X154348214Y-123252380D01*
X154729166Y-123252380D01*
X154824404Y-123300000D01*
X154872023Y-123347619D01*
X154919642Y-123442857D01*
X154919642Y-123585714D01*
X154872023Y-123680952D01*
X154824404Y-123728571D01*
X154729166Y-123776190D01*
X154348214Y-123776190D01*
X155872023Y-124252380D02*
X155300595Y-124252380D01*
X155586309Y-124252380D02*
X155586309Y-123252380D01*
X155491071Y-123395238D01*
X155395833Y-123490476D01*
X155300595Y-123538095D01*
X156205357Y-123252380D02*
X156872023Y-123252380D01*
X156443452Y-124252380D01*
%TO.C,C1*%
X173783333Y-115057143D02*
X173735714Y-115104762D01*
X173592857Y-115152381D01*
X173497619Y-115152381D01*
X173354761Y-115104762D01*
X173259523Y-115009524D01*
X173211904Y-114914286D01*
X173164285Y-114723810D01*
X173164285Y-114580953D01*
X173211904Y-114390477D01*
X173259523Y-114295239D01*
X173354761Y-114200001D01*
X173497619Y-114152381D01*
X173592857Y-114152381D01*
X173735714Y-114200001D01*
X173783333Y-114247620D01*
X174735714Y-115152381D02*
X174164285Y-115152381D01*
X174450000Y-115152381D02*
X174450000Y-114152381D01*
X174354761Y-114295239D01*
X174259523Y-114390477D01*
X174164285Y-114438096D01*
D14*
%TO.C,IC1*%
X170500000Y-89250000D02*
X170500000Y-103250000D01*
D15*
X183300000Y-86250000D02*
X183300000Y-86250000D01*
D14*
X190500000Y-105250000D02*
X184500000Y-105250000D01*
X184500000Y-87250000D02*
X190500000Y-87250000D01*
X190500000Y-87250000D02*
X190500000Y-105250000D01*
D15*
X183400000Y-86250000D02*
X183400000Y-86250000D01*
X183400000Y-86250000D02*
G75*
G03*
X183300000Y-86250000I-50000J0D01*
G01*
X183300000Y-86250000D02*
G75*
G03*
X183400000Y-86250000I50000J0D01*
G01*
D16*
%TO.C,J4*%
X115935000Y-84232500D02*
X120235000Y-84232500D01*
X115935000Y-110982500D02*
X115585000Y-110982500D01*
X115585000Y-115982500D02*
X115585000Y-116482500D01*
X114585000Y-91232500D02*
X115585000Y-91482500D01*
X115585000Y-108982500D02*
X115585000Y-109482500D01*
X120235000Y-105232500D02*
X120235000Y-105982500D01*
X120235000Y-101732500D02*
X120235000Y-102482500D01*
X115935000Y-100482500D02*
X115585000Y-100482500D01*
X115585000Y-90482500D02*
X114585000Y-90732500D01*
X115935000Y-122232500D02*
X115935000Y-121482500D01*
X120235000Y-89982500D02*
X120235000Y-90732500D01*
X115935000Y-103982500D02*
X115585000Y-103982500D01*
X115585000Y-118482500D02*
X114585000Y-118732500D01*
X120235000Y-122732500D02*
X120235000Y-123482500D01*
X114585000Y-98232500D02*
X115585000Y-98482500D01*
X115585000Y-107982500D02*
X114585000Y-108232500D01*
X115585000Y-114482500D02*
X115585000Y-114982500D01*
X115935000Y-91982500D02*
X115935000Y-91232500D01*
X115585000Y-93982500D02*
X114585000Y-94232500D01*
X120235000Y-104732500D02*
X115935000Y-104732500D01*
X120235000Y-87232500D02*
X115935000Y-87232500D01*
X115585000Y-119482500D02*
X115585000Y-119982500D01*
X115935000Y-90732500D02*
X115935000Y-89982500D01*
X120235000Y-101232500D02*
X115935000Y-101232500D01*
X115935000Y-104732500D02*
X115935000Y-103982500D01*
X120235000Y-119232500D02*
X120235000Y-119982500D01*
X115935000Y-95482500D02*
X115935000Y-94732500D01*
X115585000Y-98482500D02*
X115585000Y-98982500D01*
X115935000Y-115232500D02*
X115935000Y-114482500D01*
X115585000Y-112982500D02*
X115935000Y-112982500D01*
X115935000Y-112232500D02*
X120235000Y-112232500D01*
X115585000Y-122982500D02*
X115585000Y-123482500D01*
X114585000Y-101732500D02*
X115585000Y-101982500D01*
X120235000Y-118732500D02*
X115935000Y-118732500D01*
X115585000Y-105482500D02*
X115585000Y-105982500D01*
X115585000Y-123482500D02*
X115935000Y-123482500D01*
X115935000Y-93482500D02*
X115585000Y-93482500D01*
X120235000Y-115732500D02*
X120235000Y-116482500D01*
X115585000Y-107482500D02*
X115585000Y-107982500D01*
X120235000Y-108732500D02*
X120235000Y-109482500D01*
X115585000Y-87982500D02*
X115585000Y-88482500D01*
X115585000Y-103982500D02*
X115585000Y-104482500D01*
X115935000Y-123482500D02*
X115935000Y-122732500D01*
X114585000Y-118732500D02*
X114585000Y-115732500D01*
X114585000Y-112232500D02*
X115585000Y-112482500D01*
X115935000Y-117982500D02*
X115585000Y-117982500D01*
X115935000Y-98232500D02*
X120235000Y-98232500D01*
X115585000Y-96982500D02*
X115585000Y-97482500D01*
X120235000Y-103982500D02*
X120235000Y-104732500D01*
X114585000Y-87732500D02*
X115585000Y-87982500D01*
X115935000Y-87732500D02*
X120235000Y-87732500D01*
X115935000Y-108732500D02*
X120235000Y-108732500D01*
X115935000Y-98982500D02*
X115935000Y-98232500D01*
X115935000Y-87232500D02*
X115935000Y-86482500D01*
X120235000Y-98232500D02*
X120235000Y-98982500D01*
X115585000Y-119982500D02*
X115935000Y-119982500D01*
X115935000Y-84982500D02*
X115935000Y-84232500D01*
X115585000Y-111482500D02*
X114585000Y-111732500D01*
X115935000Y-108232500D02*
X115935000Y-107482500D01*
X120235000Y-94232500D02*
X115935000Y-94232500D01*
X115935000Y-97732500D02*
X115935000Y-96982500D01*
X114585000Y-125732500D02*
X114585000Y-122732500D01*
X115585000Y-117982500D02*
X115585000Y-118482500D01*
X115935000Y-105232500D02*
X120235000Y-105232500D01*
X115585000Y-84482500D02*
X115585000Y-84982500D01*
X115935000Y-118732500D02*
X115935000Y-117982500D01*
X115935000Y-101732500D02*
X120235000Y-101732500D01*
X115585000Y-114982500D02*
X114585000Y-115232500D01*
X115935000Y-111732500D02*
X115935000Y-110982500D01*
X115585000Y-116482500D02*
X115935000Y-116482500D01*
X115935000Y-112982500D02*
X115935000Y-112232500D01*
X120235000Y-110982500D02*
X120235000Y-111732500D01*
X114585000Y-84232500D02*
X115585000Y-84482500D01*
X115935000Y-96982500D02*
X115585000Y-96982500D01*
X120235000Y-114482500D02*
X120235000Y-115232500D01*
X115585000Y-98982500D02*
X115935000Y-98982500D01*
X115935000Y-119982500D02*
X115935000Y-119232500D01*
X115935000Y-91232500D02*
X120235000Y-91232500D01*
X120235000Y-97732500D02*
X115935000Y-97732500D01*
X114585000Y-87232500D02*
X114585000Y-84232500D01*
X120235000Y-117982500D02*
X120235000Y-118732500D01*
X115935000Y-102482500D02*
X115935000Y-101732500D01*
X115935000Y-94732500D02*
X120235000Y-94732500D01*
X115935000Y-125732500D02*
X115935000Y-124982500D01*
X120235000Y-124982500D02*
X120235000Y-125732500D01*
X120235000Y-84232500D02*
X120235000Y-84982500D01*
X115585000Y-121982500D02*
X114585000Y-122232500D01*
X115585000Y-109482500D02*
X115935000Y-109482500D01*
X115935000Y-119232500D02*
X120235000Y-119232500D01*
X115935000Y-124982500D02*
X115585000Y-124982500D01*
X114585000Y-90732500D02*
X114585000Y-87732500D01*
X120235000Y-121482500D02*
X120235000Y-122232500D01*
X115935000Y-88482500D02*
X115935000Y-87732500D01*
X120235000Y-86482500D02*
X120235000Y-87232500D01*
X115935000Y-114482500D02*
X115585000Y-114482500D01*
X114585000Y-94732500D02*
X115585000Y-94982500D01*
X115585000Y-121482500D02*
X115585000Y-121982500D01*
X114585000Y-119232500D02*
X115585000Y-119482500D01*
X115935000Y-89982500D02*
X115585000Y-89982500D01*
X115585000Y-86482500D02*
X115585000Y-86982500D01*
X115585000Y-95482500D02*
X115935000Y-95482500D01*
X120235000Y-122232500D02*
X115935000Y-122232500D01*
X114585000Y-94232500D02*
X114585000Y-91232500D01*
X115585000Y-93482500D02*
X115585000Y-93982500D01*
X115585000Y-84982500D02*
X115935000Y-84982500D01*
X120235000Y-93482500D02*
X120235000Y-94232500D01*
X114585000Y-108732500D02*
X115585000Y-108982500D01*
X115935000Y-107482500D02*
X115585000Y-107482500D01*
X115585000Y-102482500D02*
X115935000Y-102482500D01*
X115585000Y-104482500D02*
X114585000Y-104732500D01*
X114585000Y-104732500D02*
X114585000Y-101732500D01*
X120235000Y-94732500D02*
X120235000Y-95482500D01*
X115585000Y-110982500D02*
X115585000Y-111482500D01*
X115585000Y-86982500D02*
X114585000Y-87232500D01*
X115585000Y-100482500D02*
X115585000Y-100982500D01*
X120235000Y-87732500D02*
X120235000Y-88482500D01*
X115585000Y-88482500D02*
X115935000Y-88482500D01*
X120235000Y-108232500D02*
X115935000Y-108232500D01*
X115585000Y-105982500D02*
X115935000Y-105982500D01*
X120235000Y-111732500D02*
X115935000Y-111732500D01*
X114585000Y-108232500D02*
X114585000Y-105232500D01*
X115935000Y-109482500D02*
X115935000Y-108732500D01*
X120235000Y-112232500D02*
X120235000Y-112982500D01*
X120235000Y-91232500D02*
X120235000Y-91982500D01*
X115585000Y-94982500D02*
X115585000Y-95482500D01*
X114585000Y-115732500D02*
X115585000Y-115982500D01*
X115935000Y-115732500D02*
X120235000Y-115732500D01*
X120235000Y-96982500D02*
X120235000Y-97732500D01*
X115585000Y-125482500D02*
X114585000Y-125732500D01*
X115585000Y-97482500D02*
X114585000Y-97732500D01*
X120235000Y-90732500D02*
X115935000Y-90732500D01*
X115585000Y-91482500D02*
X115585000Y-91982500D01*
X115935000Y-105982500D02*
X115935000Y-105232500D01*
X115585000Y-89982500D02*
X115585000Y-90482500D01*
X115585000Y-112482500D02*
X115585000Y-112982500D01*
X114585000Y-115232500D02*
X114585000Y-112232500D01*
X114585000Y-97732500D02*
X114585000Y-94732500D01*
X114585000Y-105232500D02*
X115585000Y-105482500D01*
X115935000Y-101232500D02*
X115935000Y-100482500D01*
X115935000Y-122732500D02*
X120235000Y-122732500D01*
X115585000Y-91982500D02*
X115935000Y-91982500D01*
X120235000Y-107482500D02*
X120235000Y-108232500D01*
X114585000Y-101232500D02*
X114585000Y-98232500D01*
X120235000Y-100482500D02*
X120235000Y-101232500D01*
X114585000Y-111732500D02*
X114585000Y-108732500D01*
X115585000Y-100982500D02*
X114585000Y-101232500D01*
X114585000Y-122232500D02*
X114585000Y-119232500D01*
X115935000Y-116482500D02*
X115935000Y-115732500D01*
X115585000Y-124982500D02*
X115585000Y-125482500D01*
X115935000Y-94232500D02*
X115935000Y-93482500D01*
X115585000Y-101982500D02*
X115585000Y-102482500D01*
X114585000Y-122732500D02*
X115585000Y-122982500D01*
X120235000Y-125732500D02*
X115935000Y-125732500D01*
X115935000Y-86482500D02*
X115585000Y-86482500D01*
X120235000Y-115232500D02*
X115935000Y-115232500D01*
X115935000Y-121482500D02*
X115585000Y-121482500D01*
X120234844Y-105982853D02*
G75*
G03*
X120235000Y-107482500I1700162J-749647D01*
G01*
X120234844Y-109482853D02*
G75*
G03*
X120235000Y-110982500I1700162J-749647D01*
G01*
X120234844Y-112982853D02*
G75*
G03*
X120235000Y-114482500I1700162J-749647D01*
G01*
X120234844Y-123482853D02*
G75*
G03*
X120235000Y-124982500I1700162J-749647D01*
G01*
X120234844Y-102482853D02*
G75*
G03*
X120235000Y-103982500I1700162J-749647D01*
G01*
X120234844Y-116482853D02*
G75*
G03*
X120235000Y-117982500I1700162J-749647D01*
G01*
X120234844Y-95482853D02*
G75*
G03*
X120235000Y-96982500I1700162J-749647D01*
G01*
X120234844Y-119982853D02*
G75*
G03*
X120235000Y-121482500I1700162J-749647D01*
G01*
X120234844Y-91982853D02*
G75*
G03*
X120235000Y-93482500I1700162J-749647D01*
G01*
X120234844Y-84982853D02*
G75*
G03*
X120235000Y-86482500I1700162J-749647D01*
G01*
X120234844Y-98982853D02*
G75*
G03*
X120235000Y-100482500I1700162J-749647D01*
G01*
X120234844Y-88482853D02*
G75*
G03*
X120235000Y-89982500I1700162J-749647D01*
G01*
%TO.C,J5*%
X158240000Y-98570000D02*
X159840000Y-98570000D01*
X156500000Y-103990000D02*
X156500000Y-102990000D01*
X163320000Y-97970000D02*
X163320000Y-98570000D01*
X162380000Y-98570000D02*
X162380000Y-97970000D01*
X156750000Y-103990000D02*
X156750000Y-102990000D01*
X159840000Y-98570000D02*
X159840000Y-97970000D01*
X156750000Y-102460000D02*
X163870000Y-102460000D01*
X155120000Y-103990000D02*
X165500000Y-103990000D01*
X156500000Y-102990000D02*
X156750000Y-102460000D01*
X154830000Y-99000000D02*
X154830000Y-103000000D01*
X163320000Y-98570000D02*
X164920000Y-98570000D01*
X160780000Y-98570000D02*
X162380000Y-98570000D01*
X165500000Y-103990000D02*
X165500000Y-97970000D01*
X156500000Y-102990000D02*
X164120000Y-102990000D01*
X160780000Y-97970000D02*
X160780000Y-98570000D01*
X158240000Y-97970000D02*
X158240000Y-98570000D01*
X155700000Y-97970000D02*
X155700000Y-98570000D01*
X164120000Y-102990000D02*
X164120000Y-103990000D01*
X164920000Y-98570000D02*
X164920000Y-97970000D01*
X157300000Y-98570000D02*
X157300000Y-97970000D01*
X163870000Y-102460000D02*
X164120000Y-102990000D01*
X155700000Y-98570000D02*
X157300000Y-98570000D01*
X163870000Y-103990000D02*
X163870000Y-102990000D01*
X155120000Y-97970000D02*
X155120000Y-103990000D01*
X165500000Y-97970000D02*
X155120000Y-97970000D01*
%TO.C,J3*%
X144555000Y-94745000D02*
X147155000Y-94745000D01*
X145825000Y-92145000D02*
X147155000Y-92145000D01*
X147155000Y-97345000D02*
X136875000Y-97345000D01*
X136875000Y-92145000D02*
X136875000Y-97345000D01*
X144555000Y-92145000D02*
X136875000Y-92145000D01*
X144555000Y-92145000D02*
X144555000Y-94745000D01*
X147155000Y-92145000D02*
X147155000Y-93475000D01*
X147155000Y-94745000D02*
X147155000Y-97345000D01*
%TO.C,R14*%
X138985000Y-100435436D02*
X138985000Y-100889564D01*
X137515000Y-100435436D02*
X137515000Y-100889564D01*
%TO.C,R13*%
X141485000Y-100522936D02*
X141485000Y-100977064D01*
X140015000Y-100522936D02*
X140015000Y-100977064D01*
%TO.C,R12*%
X143985000Y-100522936D02*
X143985000Y-100977064D01*
X142515000Y-100522936D02*
X142515000Y-100977064D01*
%TO.C,R11*%
X146485000Y-100522936D02*
X146485000Y-100977064D01*
X145015000Y-100522936D02*
X145015000Y-100977064D01*
%TO.C,R10*%
X126977064Y-117985000D02*
X126522936Y-117985000D01*
X126977064Y-116515000D02*
X126522936Y-116515000D01*
%TO.C,R9*%
X144314564Y-107485000D02*
X143860436Y-107485000D01*
X144314564Y-106015000D02*
X143860436Y-106015000D01*
%TO.C,R8*%
X143064564Y-89485000D02*
X142610436Y-89485000D01*
X143064564Y-88015000D02*
X142610436Y-88015000D01*
%TO.C,R7*%
X146610436Y-86015000D02*
X147064564Y-86015000D01*
X146610436Y-87485000D02*
X147064564Y-87485000D01*
%TO.C,R6*%
X357977936Y-85740000D02*
X358432064Y-85740000D01*
X357977936Y-87210000D02*
X358432064Y-87210000D01*
%TO.C,R5*%
X166727064Y-107235000D02*
X166272936Y-107235000D01*
X166727064Y-105765000D02*
X166272936Y-105765000D01*
%TO.C,D3*%
X164960000Y-88185000D02*
X164960000Y-85500000D01*
X163040000Y-88185000D02*
X164960000Y-88185000D01*
X163040000Y-85500000D02*
X163040000Y-88185000D01*
%TO.C,D2*%
X171265000Y-123710000D02*
X173950000Y-123710000D01*
X171265000Y-121790000D02*
X171265000Y-123710000D01*
X173950000Y-121790000D02*
X171265000Y-121790000D01*
%TO.C,R4*%
X167065000Y-90677064D02*
X167065000Y-90222936D01*
X168535000Y-90677064D02*
X168535000Y-90222936D01*
%TO.C,J1*%
X180707500Y-118672500D02*
X180707500Y-119422500D01*
X176407500Y-112612500D02*
X180707500Y-112612500D01*
X176407500Y-120232500D02*
X180707500Y-120232500D01*
X181057500Y-111552500D02*
X181057500Y-111052500D01*
X181057500Y-109552500D02*
X181057500Y-109052500D01*
X176407500Y-119422500D02*
X176407500Y-118672500D01*
X183407500Y-107202500D02*
X183407500Y-109202500D01*
X180707500Y-123232500D02*
X176407500Y-123232500D01*
X176407500Y-123232500D02*
X176407500Y-122482500D01*
X180707500Y-120232500D02*
X180707500Y-120982500D01*
X182057500Y-111802500D02*
X181057500Y-111552500D01*
X181057500Y-119172500D02*
X181057500Y-118672500D01*
X182057500Y-115612500D02*
X181057500Y-115362500D01*
X180707500Y-111052500D02*
X180707500Y-111802500D01*
X181057500Y-112862500D02*
X182057500Y-112612500D01*
X182057500Y-112612500D02*
X182057500Y-115612500D01*
X180707500Y-111802500D02*
X176407500Y-111802500D01*
X180707500Y-117172500D02*
X181057500Y-117172500D01*
X181057500Y-117172500D02*
X181057500Y-116672500D01*
X182157500Y-107202500D02*
X183407500Y-107202500D01*
X181057500Y-120482500D02*
X182057500Y-120232500D01*
X181057500Y-122482500D02*
X180707500Y-122482500D01*
X176407500Y-111802500D02*
X176407500Y-111052500D01*
X183017500Y-107592500D02*
X175547500Y-107592500D01*
X180707500Y-119422500D02*
X176407500Y-119422500D01*
X182057500Y-108802500D02*
X182057500Y-111802500D01*
X182057500Y-120232500D02*
X182057500Y-123232500D01*
X182057500Y-119422500D02*
X181057500Y-119172500D01*
X176407500Y-116422500D02*
X180707500Y-116422500D01*
X180707500Y-115612500D02*
X176407500Y-115612500D01*
X180707500Y-120982500D02*
X181057500Y-120982500D01*
X180707500Y-122482500D02*
X180707500Y-123232500D01*
X181057500Y-109052500D02*
X182057500Y-108802500D01*
X176407500Y-113362500D02*
X176407500Y-112612500D01*
X180707500Y-114862500D02*
X180707500Y-115612500D01*
X175547500Y-107592500D02*
X175547500Y-124442500D01*
X181057500Y-122982500D02*
X181057500Y-122482500D01*
X182057500Y-123232500D02*
X181057500Y-122982500D01*
X180707500Y-109552500D02*
X181057500Y-109552500D01*
X180707500Y-108802500D02*
X180707500Y-109552500D01*
X181057500Y-113362500D02*
X181057500Y-112862500D01*
X182057500Y-116422500D02*
X182057500Y-119422500D01*
X180707500Y-112612500D02*
X180707500Y-113362500D01*
X176407500Y-109552500D02*
X176407500Y-108802500D01*
X183017500Y-124442500D02*
X183017500Y-107592500D01*
X176407500Y-115612500D02*
X176407500Y-114862500D01*
X181057500Y-118672500D02*
X180707500Y-118672500D01*
X181057500Y-114862500D02*
X180707500Y-114862500D01*
X176407500Y-108802500D02*
X180707500Y-108802500D01*
X180707500Y-116422500D02*
X180707500Y-117172500D01*
X175547500Y-124442500D02*
X183017500Y-124442500D01*
X181057500Y-120982500D02*
X181057500Y-120482500D01*
X176407500Y-120982500D02*
X176407500Y-120232500D01*
X181057500Y-111052500D02*
X180707500Y-111052500D01*
X181057500Y-116672500D02*
X182057500Y-116422500D01*
X176407500Y-117172500D02*
X176407500Y-116422500D01*
X180707500Y-113362500D02*
X181057500Y-113362500D01*
X181057500Y-115362500D02*
X181057500Y-114862500D01*
X176407656Y-111052147D02*
G75*
G03*
X176407500Y-109552500I-1700162J749647D01*
G01*
X176407656Y-114862147D02*
G75*
G03*
X176407500Y-113362500I-1700162J749647D01*
G01*
X176407656Y-122482147D02*
G75*
G03*
X176407500Y-120982500I-1700162J749647D01*
G01*
X176407656Y-118672147D02*
G75*
G03*
X176407500Y-117172500I-1700162J749647D01*
G01*
%TO.C,C5*%
X168485000Y-86911252D02*
X168485000Y-86388748D01*
X167015000Y-86911252D02*
X167015000Y-86388748D01*
%TO.C,JP1*%
X146670000Y-119325000D02*
X146670000Y-117995000D01*
X146670000Y-123195000D02*
X149330000Y-123195000D01*
X146670000Y-120595000D02*
X146670000Y-123195000D01*
X146670000Y-120595000D02*
X149330000Y-120595000D01*
X146670000Y-117995000D02*
X148000000Y-117995000D01*
X149330000Y-120595000D02*
X149330000Y-123195000D01*
%TO.C,R3*%
X164835000Y-90727064D02*
X164835000Y-90272936D01*
X163365000Y-90727064D02*
X163365000Y-90272936D01*
%TO.C,R2*%
X164327064Y-95635000D02*
X163872936Y-95635000D01*
X164327064Y-94165000D02*
X163872936Y-94165000D01*
%TO.C,R1*%
X172672936Y-118365000D02*
X173127064Y-118365000D01*
X172672936Y-119835000D02*
X173127064Y-119835000D01*
%TO.C,C4*%
X151788748Y-119285000D02*
X152311252Y-119285000D01*
X151788748Y-117815000D02*
X152311252Y-117815000D01*
%TO.C,C3*%
X160461252Y-94265000D02*
X159938748Y-94265000D01*
X160461252Y-95735000D02*
X159938748Y-95735000D01*
%TO.C,U1*%
X170318000Y-124852500D02*
X158597000Y-124852500D01*
X170558000Y-117232500D02*
X170558000Y-115992500D01*
X170318000Y-116232500D02*
X158597000Y-116232500D01*
X158597000Y-124852500D02*
X158597000Y-116232500D01*
X170558000Y-115992500D02*
X169318000Y-115992500D01*
X170318000Y-124852500D02*
X170318000Y-116232500D01*
%TO.C,D1*%
X147650000Y-110940000D02*
X148300000Y-110940000D01*
X147650000Y-114060000D02*
X149325000Y-114060000D01*
X147650000Y-110940000D02*
X147000000Y-110940000D01*
X147650000Y-114060000D02*
X147000000Y-114060000D01*
%TO.C,SW1*%
X155025000Y-88282500D02*
X158425000Y-88282500D01*
X153385000Y-91112500D02*
X153385000Y-91622500D01*
X160065000Y-91622500D02*
X160585000Y-91622500D01*
X153385000Y-88282500D02*
X153385000Y-88512500D01*
X159525000Y-88282500D02*
X160065000Y-88282500D01*
X153385000Y-88282500D02*
X153925000Y-88282500D01*
X152865000Y-84612500D02*
X160585000Y-84612500D01*
X152865000Y-91112500D02*
X152865000Y-91622500D01*
X160065000Y-88282500D02*
X160065000Y-88512500D01*
X160585000Y-84612500D02*
X160585000Y-88512500D01*
X152865000Y-84612500D02*
X152865000Y-88512500D01*
X152865000Y-91622500D02*
X153385000Y-91622500D01*
X160585000Y-91112500D02*
X160585000Y-91622500D01*
X160065000Y-91112500D02*
X160065000Y-91622500D01*
%TO.C,U2*%
X153650000Y-110940000D02*
X155600000Y-110940000D01*
X153650000Y-110940000D02*
X150200000Y-110940000D01*
X153650000Y-116060000D02*
X151700000Y-116060000D01*
X153650000Y-116060000D02*
X155600000Y-116060000D01*
%TO.C,C2*%
X159558000Y-109761380D02*
X161260000Y-109761380D01*
X163340000Y-111002380D02*
X165495000Y-111002380D01*
X163340000Y-111242380D02*
X165522000Y-111242380D01*
X159253000Y-110401380D02*
X161260000Y-110401380D01*
X159330000Y-110201380D02*
X161260000Y-110201380D01*
X163340000Y-111162380D02*
X165515000Y-111162380D01*
X159816000Y-109401380D02*
X161260000Y-109401380D01*
X161898000Y-108241380D02*
X162702000Y-108241380D01*
X163340000Y-110041380D02*
X165196000Y-110041380D01*
X159610000Y-109681380D02*
X161260000Y-109681380D01*
X159348000Y-110161380D02*
X161260000Y-110161380D01*
X159850000Y-109361380D02*
X161260000Y-109361380D01*
X159105000Y-111002380D02*
X161260000Y-111002380D01*
X159722000Y-109521380D02*
X161260000Y-109521380D01*
X163340000Y-110321380D02*
X165318000Y-110321380D01*
X163340000Y-109521380D02*
X164878000Y-109521380D01*
X163340000Y-109481380D02*
X164848000Y-109481380D01*
X159884000Y-109321380D02*
X161260000Y-109321380D01*
X159466000Y-109921380D02*
X161260000Y-109921380D01*
X163340000Y-109321380D02*
X164716000Y-109321380D01*
X163340000Y-109561380D02*
X164907000Y-109561380D01*
X160650000Y-108681380D02*
X163950000Y-108681380D01*
X159111000Y-110962380D02*
X161260000Y-110962380D01*
X159070000Y-111442380D02*
X165530000Y-111442380D01*
X159118000Y-110922380D02*
X161260000Y-110922380D01*
X159404000Y-110041380D02*
X161260000Y-110041380D01*
X159073000Y-111322380D02*
X165527000Y-111322380D01*
X163340000Y-109281380D02*
X164680000Y-109281380D01*
X160950000Y-108521380D02*
X163650000Y-108521380D01*
X159510000Y-109841380D02*
X161260000Y-109841380D01*
X159085000Y-111162380D02*
X161260000Y-111162380D01*
X161241000Y-108401380D02*
X163359000Y-108401380D01*
X159957000Y-109241380D02*
X161260000Y-109241380D01*
X159298000Y-110281380D02*
X161260000Y-110281380D01*
X163340000Y-110601380D02*
X165410000Y-110601380D01*
X160035000Y-109161380D02*
X164565000Y-109161380D01*
X163340000Y-110962380D02*
X165489000Y-110962380D01*
X163340000Y-110081380D02*
X165216000Y-110081380D01*
X160305000Y-108921380D02*
X164295000Y-108921380D01*
X163340000Y-111042380D02*
X165501000Y-111042380D01*
X160791000Y-108601380D02*
X163809000Y-108601380D01*
X163340000Y-109641380D02*
X164964000Y-109641380D01*
X159752000Y-109481380D02*
X161260000Y-109481380D01*
X159314000Y-110241380D02*
X161260000Y-110241380D01*
X160410000Y-108841380D02*
X164190000Y-108841380D01*
X159920000Y-109281380D02*
X161260000Y-109281380D01*
X159082000Y-111202380D02*
X161260000Y-111202380D01*
X160163000Y-109041380D02*
X164437000Y-109041380D01*
X159078000Y-111242380D02*
X161260000Y-111242380D01*
X159159000Y-110721380D02*
X161260000Y-110721380D01*
X163340000Y-111082380D02*
X165506000Y-111082380D01*
X160868000Y-108561380D02*
X163732000Y-108561380D01*
X163340000Y-111202380D02*
X165518000Y-111202380D01*
X160256000Y-108961380D02*
X164344000Y-108961380D01*
X159133000Y-110842380D02*
X161260000Y-110842380D01*
X163340000Y-109721380D02*
X165016000Y-109721380D01*
X159239000Y-110441380D02*
X161260000Y-110441380D01*
X159179000Y-110641380D02*
X161260000Y-110641380D01*
X163340000Y-110481380D02*
X165374000Y-110481380D01*
X161498000Y-108321380D02*
X163102000Y-108321380D01*
X159169000Y-110681380D02*
X161260000Y-110681380D01*
X163340000Y-110521380D02*
X165386000Y-110521380D01*
X163340000Y-110681380D02*
X165431000Y-110681380D01*
X159366000Y-110121380D02*
X161260000Y-110121380D01*
X160208000Y-109001380D02*
X164392000Y-109001380D01*
X159076000Y-111282380D02*
X165524000Y-111282380D01*
X159150000Y-110761380D02*
X161260000Y-110761380D01*
X163340000Y-109201380D02*
X164605000Y-109201380D01*
X163340000Y-109961380D02*
X165156000Y-109961380D01*
X163340000Y-109801380D02*
X165066000Y-109801380D01*
X159584000Y-109721380D02*
X161260000Y-109721380D01*
X159424000Y-110001380D02*
X161260000Y-110001380D01*
X159664000Y-109601380D02*
X161260000Y-109601380D01*
X163340000Y-110001380D02*
X165176000Y-110001380D01*
X163340000Y-109881380D02*
X165112000Y-109881380D01*
X159226000Y-110481380D02*
X161260000Y-110481380D01*
X163340000Y-110201380D02*
X165270000Y-110201380D01*
X163340000Y-110441380D02*
X165361000Y-110441380D01*
X163340000Y-110922380D02*
X165482000Y-110922380D01*
X163340000Y-109241380D02*
X164643000Y-109241380D01*
X159693000Y-109561380D02*
X161260000Y-109561380D01*
X159636000Y-109641380D02*
X161260000Y-109641380D01*
X163340000Y-109921380D02*
X165134000Y-109921380D01*
X159282000Y-110321380D02*
X161260000Y-110321380D01*
X163340000Y-110641380D02*
X165421000Y-110641380D01*
X163340000Y-109361380D02*
X164750000Y-109361380D01*
X161667000Y-108281380D02*
X162933000Y-108281380D01*
X159534000Y-109801380D02*
X161260000Y-109801380D01*
X159384000Y-110081380D02*
X161260000Y-110081380D01*
X159099000Y-111042380D02*
X161260000Y-111042380D01*
X163340000Y-109401380D02*
X164784000Y-109401380D01*
X163340000Y-109841380D02*
X165090000Y-109841380D01*
X163340000Y-109601380D02*
X164936000Y-109601380D01*
X161360000Y-108361380D02*
X163240000Y-108361380D01*
X163340000Y-110281380D02*
X165302000Y-110281380D01*
X159141000Y-110802380D02*
X161260000Y-110802380D01*
X163340000Y-110761380D02*
X165450000Y-110761380D01*
X159070000Y-111482380D02*
X165530000Y-111482380D01*
X160466000Y-108801380D02*
X164134000Y-108801380D01*
X161135000Y-108441380D02*
X163465000Y-108441380D01*
X159995000Y-109201380D02*
X161260000Y-109201380D01*
X163340000Y-111122380D02*
X165511000Y-111122380D01*
X159784000Y-109441380D02*
X161260000Y-109441380D01*
X159125000Y-110882380D02*
X161260000Y-110882380D01*
X163340000Y-110721380D02*
X165441000Y-110721380D01*
X163340000Y-110882380D02*
X165475000Y-110882380D01*
X160524000Y-108761380D02*
X164076000Y-108761380D01*
X160076000Y-109121380D02*
X164524000Y-109121380D01*
X163340000Y-110842380D02*
X165467000Y-110842380D01*
X163340000Y-109761380D02*
X165042000Y-109761380D01*
X159214000Y-110521380D02*
X161260000Y-110521380D01*
X160719000Y-108641380D02*
X163881000Y-108641380D01*
X163340000Y-110561380D02*
X165398000Y-110561380D01*
X159190000Y-110601380D02*
X161260000Y-110601380D01*
X160356000Y-108881380D02*
X164244000Y-108881380D01*
X159072000Y-111362380D02*
X165528000Y-111362380D01*
X159089000Y-111122380D02*
X161260000Y-111122380D01*
X159267000Y-110361380D02*
X161260000Y-110361380D01*
X159444000Y-109961380D02*
X161260000Y-109961380D01*
X159094000Y-111082380D02*
X161260000Y-111082380D01*
X159070000Y-111402380D02*
X165530000Y-111402380D01*
X163340000Y-110802380D02*
X165459000Y-110802380D01*
X163340000Y-109681380D02*
X164990000Y-109681380D01*
X160146000Y-114667621D02*
X160776000Y-114667621D01*
X160461000Y-114982621D02*
X160461000Y-114352621D01*
X160586000Y-108721380D02*
X164014000Y-108721380D01*
X163340000Y-110361380D02*
X165333000Y-110361380D01*
X160118000Y-109081380D02*
X164482000Y-109081380D01*
X159488000Y-109881380D02*
X161260000Y-109881380D01*
X161038000Y-108481380D02*
X163562000Y-108481380D01*
X163340000Y-110161380D02*
X165252000Y-110161380D01*
X163340000Y-110401380D02*
X165347000Y-110401380D01*
X163340000Y-110241380D02*
X165286000Y-110241380D01*
X163340000Y-109441380D02*
X164816000Y-109441380D01*
X159202000Y-110561380D02*
X161260000Y-110561380D01*
X163340000Y-110121380D02*
X165234000Y-110121380D01*
X165570000Y-111482380D02*
G75*
G03*
X165570000Y-111482380I-3270000J0D01*
G01*
%TO.C,R17*%
X155422936Y-121165000D02*
X155877064Y-121165000D01*
X155422936Y-122635000D02*
X155877064Y-122635000D01*
%TO.C,C1*%
X167467000Y-110461380D02*
X169460000Y-110461380D01*
X169867000Y-108381380D02*
X171133000Y-108381380D01*
X171540000Y-111302380D02*
X173718000Y-111302380D01*
X171540000Y-109981380D02*
X173312000Y-109981380D01*
X171540000Y-109381380D02*
X172880000Y-109381380D01*
X167584000Y-110181380D02*
X169460000Y-110181380D01*
X171540000Y-109901380D02*
X173266000Y-109901380D01*
X168505000Y-109021380D02*
X172495000Y-109021380D01*
X171540000Y-109501380D02*
X172984000Y-109501380D01*
X168363000Y-109141380D02*
X172637000Y-109141380D01*
X167305000Y-111102380D02*
X169460000Y-111102380D01*
X167270000Y-111542380D02*
X173730000Y-111542380D01*
X167758000Y-109861380D02*
X169460000Y-109861380D01*
X171540000Y-110341380D02*
X173486000Y-110341380D01*
X168456000Y-109061380D02*
X172544000Y-109061380D01*
X171540000Y-110381380D02*
X173502000Y-110381380D01*
X167414000Y-110621380D02*
X169460000Y-110621380D01*
X167530000Y-110301380D02*
X169460000Y-110301380D01*
X168120000Y-109381380D02*
X169460000Y-109381380D01*
X171540000Y-109701380D02*
X173136000Y-109701380D01*
X168318000Y-109181380D02*
X172682000Y-109181380D01*
X167482000Y-110421380D02*
X169460000Y-110421380D01*
X171540000Y-110661380D02*
X173598000Y-110661380D01*
X167688000Y-109981380D02*
X169460000Y-109981380D01*
X168346000Y-114767621D02*
X168976000Y-114767621D01*
X167325000Y-110982380D02*
X169460000Y-110982380D01*
X171540000Y-111022380D02*
X173682000Y-111022380D01*
X171540000Y-109581380D02*
X173048000Y-109581380D01*
X167294000Y-111182380D02*
X169460000Y-111182380D01*
X167644000Y-110061380D02*
X169460000Y-110061380D01*
X171540000Y-110982380D02*
X173675000Y-110982380D01*
X167439000Y-110541380D02*
X169460000Y-110541380D01*
X171540000Y-110061380D02*
X173356000Y-110061380D01*
X167285000Y-111262380D02*
X169460000Y-111262380D01*
X171540000Y-109821380D02*
X173216000Y-109821380D01*
X167282000Y-111302380D02*
X169460000Y-111302380D01*
X168050000Y-109461380D02*
X169460000Y-109461380D01*
X167318000Y-111022380D02*
X169460000Y-111022380D01*
X171540000Y-110741380D02*
X173621000Y-110741380D01*
X168724000Y-108861380D02*
X172276000Y-108861380D01*
X171540000Y-110621380D02*
X173586000Y-110621380D01*
X169150000Y-108621380D02*
X171850000Y-108621380D01*
X171540000Y-111262380D02*
X173715000Y-111262380D01*
X167390000Y-110701380D02*
X169460000Y-110701380D01*
X167341000Y-110902380D02*
X169460000Y-110902380D01*
X171540000Y-109341380D02*
X172843000Y-109341380D01*
X171540000Y-109781380D02*
X173190000Y-109781380D01*
X171540000Y-109461380D02*
X172950000Y-109461380D01*
X167666000Y-110021380D02*
X169460000Y-110021380D01*
X168666000Y-108901380D02*
X172334000Y-108901380D01*
X171540000Y-110902380D02*
X173659000Y-110902380D01*
X167426000Y-110581380D02*
X169460000Y-110581380D01*
X171540000Y-109621380D02*
X173078000Y-109621380D01*
X167498000Y-110381380D02*
X169460000Y-110381380D01*
X167604000Y-110141380D02*
X169460000Y-110141380D01*
X169560000Y-108461380D02*
X171440000Y-108461380D01*
X171540000Y-110101380D02*
X173376000Y-110101380D01*
X171540000Y-111182380D02*
X173706000Y-111182380D01*
X171540000Y-111062380D02*
X173689000Y-111062380D01*
X167566000Y-110221380D02*
X169460000Y-110221380D01*
X167453000Y-110501380D02*
X169460000Y-110501380D01*
X171540000Y-109861380D02*
X173242000Y-109861380D01*
X169238000Y-108581380D02*
X171762000Y-108581380D01*
X167359000Y-110821380D02*
X169460000Y-110821380D01*
X168276000Y-109221380D02*
X172724000Y-109221380D01*
X171540000Y-109661380D02*
X173107000Y-109661380D01*
X167369000Y-110781380D02*
X169460000Y-110781380D01*
X168991000Y-108701380D02*
X172009000Y-108701380D01*
X171540000Y-111142380D02*
X173701000Y-111142380D01*
X167836000Y-109741380D02*
X169460000Y-109741380D01*
X168556000Y-108981380D02*
X172444000Y-108981380D01*
X168786000Y-108821380D02*
X172214000Y-108821380D01*
X171540000Y-110181380D02*
X173416000Y-110181380D01*
X171540000Y-110541380D02*
X173561000Y-110541380D01*
X171540000Y-110421380D02*
X173518000Y-110421380D01*
X167333000Y-110942380D02*
X169460000Y-110942380D01*
X168235000Y-109261380D02*
X172765000Y-109261380D01*
X171540000Y-109741380D02*
X173164000Y-109741380D01*
X167734000Y-109901380D02*
X169460000Y-109901380D01*
X170098000Y-108341380D02*
X170902000Y-108341380D01*
X167710000Y-109941380D02*
X169460000Y-109941380D01*
X168919000Y-108741380D02*
X172081000Y-108741380D01*
X167270000Y-111502380D02*
X173730000Y-111502380D01*
X167624000Y-110101380D02*
X169460000Y-110101380D01*
X169335000Y-108541380D02*
X171665000Y-108541380D01*
X168084000Y-109421380D02*
X169460000Y-109421380D01*
X167548000Y-110261380D02*
X169460000Y-110261380D01*
X167864000Y-109701380D02*
X169460000Y-109701380D01*
X171540000Y-111222380D02*
X173711000Y-111222380D01*
X171540000Y-110221380D02*
X173434000Y-110221380D01*
X167402000Y-110661380D02*
X169460000Y-110661380D01*
X171540000Y-110261380D02*
X173452000Y-110261380D01*
X168610000Y-108941380D02*
X172390000Y-108941380D01*
X171540000Y-110581380D02*
X173574000Y-110581380D01*
X168408000Y-109101380D02*
X172592000Y-109101380D01*
X167784000Y-109821380D02*
X169460000Y-109821380D01*
X171540000Y-111342380D02*
X173722000Y-111342380D01*
X171540000Y-109301380D02*
X172805000Y-109301380D01*
X169068000Y-108661380D02*
X171932000Y-108661380D01*
X171540000Y-111102380D02*
X173695000Y-111102380D01*
X168661000Y-115082621D02*
X168661000Y-114452621D01*
X171540000Y-109421380D02*
X172916000Y-109421380D01*
X167514000Y-110341380D02*
X169460000Y-110341380D01*
X168016000Y-109501380D02*
X169460000Y-109501380D01*
X167893000Y-109661380D02*
X169460000Y-109661380D01*
X167311000Y-111062380D02*
X169460000Y-111062380D01*
X168850000Y-108781380D02*
X172150000Y-108781380D01*
X171540000Y-110781380D02*
X173631000Y-110781380D01*
X171540000Y-110461380D02*
X173533000Y-110461380D01*
X167276000Y-111382380D02*
X173724000Y-111382380D01*
X171540000Y-110861380D02*
X173650000Y-110861380D01*
X167952000Y-109581380D02*
X169460000Y-109581380D01*
X167350000Y-110861380D02*
X169460000Y-110861380D01*
X171540000Y-110942380D02*
X173667000Y-110942380D01*
X171540000Y-110021380D02*
X173334000Y-110021380D01*
X167922000Y-109621380D02*
X169460000Y-109621380D01*
X171540000Y-109541380D02*
X173016000Y-109541380D01*
X171540000Y-110821380D02*
X173641000Y-110821380D01*
X171540000Y-110141380D02*
X173396000Y-110141380D01*
X167272000Y-111462380D02*
X173728000Y-111462380D01*
X167379000Y-110741380D02*
X169460000Y-110741380D01*
X171540000Y-110701380D02*
X173610000Y-110701380D01*
X169441000Y-108501380D02*
X171559000Y-108501380D01*
X167984000Y-109541380D02*
X169460000Y-109541380D01*
X171540000Y-109941380D02*
X173290000Y-109941380D01*
X169698000Y-108421380D02*
X171302000Y-108421380D01*
X168157000Y-109341380D02*
X169460000Y-109341380D01*
X171540000Y-110501380D02*
X173547000Y-110501380D01*
X171540000Y-110301380D02*
X173470000Y-110301380D01*
X167810000Y-109781380D02*
X169460000Y-109781380D01*
X167273000Y-111422380D02*
X173727000Y-111422380D01*
X167270000Y-111582380D02*
X173730000Y-111582380D01*
X167278000Y-111342380D02*
X169460000Y-111342380D01*
X167289000Y-111222380D02*
X169460000Y-111222380D01*
X168195000Y-109301380D02*
X169460000Y-109301380D01*
X167299000Y-111142380D02*
X169460000Y-111142380D01*
X173770000Y-111582380D02*
G75*
G03*
X173770000Y-111582380I-3270000J0D01*
G01*
%TD*%
M02*
