%TF.GenerationSoftware,KiCad,Pcbnew,6.0.2+dfsg-1*%
%TF.CreationDate,2022-06-15T14:14:27+02:00*%
%TF.ProjectId,accra_A,61636372-615f-4412-9e6b-696361645f70,rev?*%
%TF.SameCoordinates,Original*%
%TF.FileFunction,Soldermask,Top*%
%TF.FilePolarity,Negative*%
%FSLAX46Y46*%
G04 Gerber Fmt 4.6, Leading zero omitted, Abs format (unit mm)*
G04 Created by KiCad (PCBNEW 6.0.2+dfsg-1) date 2022-06-15 14:14:27*
%MOMM*%
%LPD*%
G01*
G04 APERTURE LIST*
G04 Aperture macros list*
%AMRoundRect*
0 Rectangle with rounded corners*
0 $1 Rounding radius*
0 $2 $3 $4 $5 $6 $7 $8 $9 X,Y pos of 4 corners*
0 Add a 4 corners polygon primitive as box body*
4,1,4,$2,$3,$4,$5,$6,$7,$8,$9,$2,$3,0*
0 Add four circle primitives for the rounded corners*
1,1,$1+$1,$2,$3*
1,1,$1+$1,$4,$5*
1,1,$1+$1,$6,$7*
1,1,$1+$1,$8,$9*
0 Add four rect primitives between the rounded corners*
20,1,$1+$1,$2,$3,$4,$5,0*
20,1,$1+$1,$4,$5,$6,$7,0*
20,1,$1+$1,$6,$7,$8,$9,0*
20,1,$1+$1,$8,$9,$2,$3,0*%
G04 Aperture macros list end*
%ADD10R,0.900000X1.500000*%
%ADD11R,0.700000X0.700000*%
%ADD12RoundRect,0.250000X1.550000X-0.650000X1.550000X0.650000X-1.550000X0.650000X-1.550000X-0.650000X0*%
%ADD13O,3.600000X1.800000*%
%ADD14RoundRect,0.250000X-0.620000X-0.845000X0.620000X-0.845000X0.620000X0.845000X-0.620000X0.845000X0*%
%ADD15O,1.740000X2.190000*%
%ADD16R,1.700000X1.700000*%
%ADD17O,1.700000X1.700000*%
%ADD18RoundRect,0.250000X-0.450000X0.262500X-0.450000X-0.262500X0.450000X-0.262500X0.450000X0.262500X0*%
%ADD19RoundRect,0.250000X0.262500X0.450000X-0.262500X0.450000X-0.262500X-0.450000X0.262500X-0.450000X0*%
%ADD20RoundRect,0.250000X-0.262500X-0.450000X0.262500X-0.450000X0.262500X0.450000X-0.262500X0.450000X0*%
%ADD21RoundRect,0.243750X0.456250X-0.243750X0.456250X0.243750X-0.456250X0.243750X-0.456250X-0.243750X0*%
%ADD22RoundRect,0.243750X-0.243750X-0.456250X0.243750X-0.456250X0.243750X0.456250X-0.243750X0.456250X0*%
%ADD23RoundRect,0.250000X0.450000X-0.262500X0.450000X0.262500X-0.450000X0.262500X-0.450000X-0.262500X0*%
%ADD24RoundRect,0.250000X-1.550000X0.650000X-1.550000X-0.650000X1.550000X-0.650000X1.550000X0.650000X0*%
%ADD25RoundRect,0.250000X0.475000X-0.250000X0.475000X0.250000X-0.475000X0.250000X-0.475000X-0.250000X0*%
%ADD26RoundRect,0.250000X-0.250000X-0.475000X0.250000X-0.475000X0.250000X0.475000X-0.250000X0.475000X0*%
%ADD27RoundRect,0.250000X0.250000X0.475000X-0.250000X0.475000X-0.250000X-0.475000X0.250000X-0.475000X0*%
%ADD28R,1.500000X2.300000*%
%ADD29O,1.500000X2.300000*%
%ADD30RoundRect,0.150000X0.587500X0.150000X-0.587500X0.150000X-0.587500X-0.150000X0.587500X-0.150000X0*%
%ADD31C,2.100000*%
%ADD32C,1.750000*%
%ADD33RoundRect,0.150000X-0.825000X-0.150000X0.825000X-0.150000X0.825000X0.150000X-0.825000X0.150000X0*%
%ADD34R,1.600000X1.600000*%
%ADD35C,1.600000*%
G04 APERTURE END LIST*
D10*
%TO.C,IC1*%
X183400000Y-87500000D03*
X181900000Y-87500000D03*
X180400000Y-87500000D03*
X178900000Y-87500000D03*
X177400000Y-87500000D03*
X175900000Y-87500000D03*
X174400000Y-87500000D03*
X172900000Y-87500000D03*
X171400000Y-87500000D03*
X171400000Y-105000000D03*
X172900000Y-105000000D03*
X174400000Y-105000000D03*
X175900000Y-105000000D03*
X177400000Y-105000000D03*
X178900000Y-105000000D03*
X180400000Y-105000000D03*
X181900000Y-105000000D03*
X183400000Y-105000000D03*
D11*
X177200000Y-97210000D03*
X177200000Y-98310000D03*
X178300000Y-98310000D03*
X178300000Y-97210000D03*
X178300000Y-96110000D03*
X177200000Y-96110000D03*
X176100000Y-96110000D03*
X176100000Y-97210000D03*
X176100000Y-98310000D03*
%TD*%
D12*
%TO.C,J4*%
X117985000Y-124232500D03*
D13*
X117985000Y-120732500D03*
X117985000Y-117232500D03*
X117985000Y-113732500D03*
X117985000Y-110232500D03*
X117985000Y-106732500D03*
X117985000Y-103232500D03*
X117985000Y-99732500D03*
X117985000Y-96232500D03*
X117985000Y-92732500D03*
X117985000Y-89232500D03*
X117985000Y-85732500D03*
%TD*%
D14*
%TO.C,J5*%
X156500000Y-101000000D03*
D15*
X159040000Y-101000000D03*
X161580000Y-101000000D03*
X164120000Y-101000000D03*
%TD*%
D16*
%TO.C,J3*%
X145825000Y-93475000D03*
D17*
X145825000Y-96015000D03*
X143285000Y-93475000D03*
X143285000Y-96015000D03*
X140745000Y-93475000D03*
X140745000Y-96015000D03*
X138205000Y-93475000D03*
X138205000Y-96015000D03*
%TD*%
D18*
%TO.C,R14*%
X138250000Y-99750000D03*
X138250000Y-101575000D03*
%TD*%
%TO.C,R13*%
X140750000Y-99837500D03*
X140750000Y-101662500D03*
%TD*%
%TO.C,R12*%
X143250000Y-99837500D03*
X143250000Y-101662500D03*
%TD*%
%TO.C,R11*%
X145750000Y-99837500D03*
X145750000Y-101662500D03*
%TD*%
D19*
%TO.C,R10*%
X127662500Y-117250000D03*
X125837500Y-117250000D03*
%TD*%
%TO.C,R9*%
X145000000Y-106750000D03*
X143175000Y-106750000D03*
%TD*%
%TO.C,R8*%
X143750000Y-88750000D03*
X141925000Y-88750000D03*
%TD*%
D20*
%TO.C,R7*%
X145925000Y-86750000D03*
X147750000Y-86750000D03*
%TD*%
%TO.C,R6*%
X357292500Y-86475000D03*
X359117500Y-86475000D03*
%TD*%
D19*
%TO.C,R5*%
X167412500Y-106500000D03*
X165587500Y-106500000D03*
%TD*%
D16*
%TO.C,J2*%
X182200000Y-94600000D03*
D17*
X182200000Y-97140000D03*
X182200000Y-99680000D03*
X182200000Y-102220000D03*
%TD*%
D21*
%TO.C,D3*%
X164000000Y-87437500D03*
X164000000Y-85562500D03*
%TD*%
D22*
%TO.C,D2*%
X172012500Y-122750000D03*
X173887500Y-122750000D03*
%TD*%
D23*
%TO.C,R4*%
X167800000Y-91362500D03*
X167800000Y-89537500D03*
%TD*%
D24*
%TO.C,J1*%
X178657500Y-110302500D03*
D13*
X178657500Y-114112500D03*
X178657500Y-117922500D03*
X178657500Y-121732500D03*
%TD*%
D25*
%TO.C,C5*%
X167750000Y-87600000D03*
X167750000Y-85700000D03*
%TD*%
D16*
%TO.C,JP1*%
X148000000Y-119325000D03*
D17*
X148000000Y-121865000D03*
%TD*%
D23*
%TO.C,R3*%
X164100000Y-89587500D03*
X164100000Y-91412500D03*
%TD*%
D19*
%TO.C,R2*%
X165012500Y-94900000D03*
X163187500Y-94900000D03*
%TD*%
D20*
%TO.C,R1*%
X171987500Y-119100000D03*
X173812500Y-119100000D03*
%TD*%
D26*
%TO.C,C4*%
X151100000Y-118550000D03*
X153000000Y-118550000D03*
%TD*%
D27*
%TO.C,C3*%
X161150000Y-95000000D03*
X159250000Y-95000000D03*
%TD*%
D28*
%TO.C,U1*%
X166947000Y-118292500D03*
D29*
X164407000Y-118292500D03*
X161867000Y-118292500D03*
%TD*%
D30*
%TO.C,D1*%
X148587500Y-113450000D03*
X148587500Y-111550000D03*
X146712500Y-112500000D03*
%TD*%
D31*
%TO.C,SW1*%
X153225000Y-89802500D03*
X160235000Y-89802500D03*
D32*
X154475000Y-87312500D03*
X158975000Y-87312500D03*
%TD*%
D33*
%TO.C,U2*%
X151175000Y-111595000D03*
X151175000Y-112865000D03*
X151175000Y-114135000D03*
X151175000Y-115405000D03*
X156125000Y-115405000D03*
X156125000Y-114135000D03*
X156125000Y-112865000D03*
X156125000Y-111595000D03*
%TD*%
D34*
%TO.C,C2*%
X162300000Y-112732380D03*
D35*
X162300000Y-110232380D03*
%TD*%
D20*
%TO.C,R17*%
X154737500Y-121900000D03*
X156562500Y-121900000D03*
%TD*%
D34*
%TO.C,C1*%
X170500000Y-112832380D03*
D35*
X170500000Y-110332380D03*
%TD*%
M02*
